<mxfile host="65bd71144e">
    <diagram id="JRvMHI0_FPfXhNfRVez0" name="Page-1">
        <mxGraphModel dx="1663" dy="1162" grid="1" gridSize="10" guides="1" tooltips="1" connect="1" arrows="1" fold="1" page="1" pageScale="1" pageWidth="827" pageHeight="1169" math="0" shadow="0">
            <root>
                <mxCell id="0"/>
                <mxCell id="1" parent="0"/>
                <mxCell id="2" value="" style="ellipse;shape=cloud;whiteSpace=wrap;html=1;" parent="1" vertex="1">
                    <mxGeometry x="200" y="440" width="190" height="140" as="geometry"/>
                </mxCell>
                <mxCell id="3" value="&lt;font style=&quot;font-size: 16px;&quot; face=&quot;Lucida Console&quot;&gt;Docker&lt;/font&gt;" style="rounded=1;whiteSpace=wrap;html=1;verticalAlign=top;align=left;labelPosition=center;verticalLabelPosition=middle;spacing=20;spacingRight=0;spacingTop=0;fontColor=#333333;spacingLeft=5;" parent="1" vertex="1">
                    <mxGeometry x="660" y="230" width="480" height="440" as="geometry"/>
                </mxCell>
                <mxCell id="11" value="" style="group" vertex="1" connectable="0" parent="1">
                    <mxGeometry x="690" y="392.5" width="150" height="140" as="geometry"/>
                </mxCell>
                <mxCell id="10" value="&lt;font style=&quot;font-size: 12px;&quot;&gt;Reverse Proxy&lt;/font&gt;" style="shape=process;whiteSpace=wrap;html=1;backgroundOutline=1;fontFamily=Lucida Console;fontSize=16;verticalAlign=top;" vertex="1" parent="11">
                    <mxGeometry width="150" height="105" as="geometry"/>
                </mxCell>
                <mxCell id="6" value="" style="shape=image;verticalLabelPosition=bottom;labelBackgroundColor=#ffffff;verticalAlign=top;aspect=fixed;imageAspect=0;image=data:image/png,iVBORw0KGgoAAAANSUhEUgAAAlgAAAJYCAYAAAC+ZpjcAAAABmJLR0QA/wD/AP+gvaeTAAAACXBIWXMAAA3XAAAN1wFCKJt4AAAAB3RJTUUH4AQBDhgQAp7VsAAAIABJREFUeNrs3Xl8HGdh//HP7C2t7sO6rJVv+ZSdw9jkIk3Skh9QCIEEXKBB5SoBF0JLCVfLfUNbQtOkl+gBoqRHEiAcSZOGnM4msSPLp3zKtu77WGnP+f2xsiLbOnZ07Ur6vl+vfdnanZmdfWZ25rvPPPM8ICIiIiIiIiIiIiIiIiIiIiIiIiIiIiIiIiIiIiIiIiIiIiIiIiIiIiIiIiIiIiIiIiIiIiIiIiIiIiIiIiIiIiIiIiIiIiIiIiIiIiIiIiIiIiIiIiIiIiIiIiIiIiIiIiIiIiIiIiIiIiIiIiIiIiIiIiIiIiIiIiIiIiIiIiIiIiIiIiIiIiIiIiIiIiIiIiIiIiIiIiIiIiIiIiIiIiIiIiIiIiIiIiIiIiIiIiIiIiIiIiIiIiIiIiIiIiIiIiIiIiIiIiIiIiIiIiIiIiIiIiIiIiIiIiIiIiIiIiIiIiIiIiIiIiIiIiIiIiIiIiIiIiIiIiIiIiIiIiIiIiIiIiIiIiIiIiIiIiIiIiIiIiIiIiIiIiIiIiIiIiIiIiIiIiIiIiIiIiIiIiIiIiIiIiIiIiIiIiIiIiIiIiIiIiIiIiIiIiIiIiIiIiIiIiIiIiIiIiIiIiIiIiIiIiIiIiIiIiIiIiIiIiIiIiIiIiIiIiIiIiIiIiIiIiIiIiIiIiIiIiIiIiIiIiIiIiIiIiIiIiIiIiIiIiIiIiIiIiIiIiIiIiIiIiKSOENFICKJ2r59uwMoAIqAZSOPNMA1Dw8HEAKGgeAc/9sPtALtfr8/qi0vIgpYImI1NGWOBKWxoeniv8//P2+JHTdiQMdI2GoFWsb5//l/OxTGREQBS2RxhyYb4APWTBCUxv7tUYnNWhhrTzCMtfv9flNFJqKAJSKpGaS8QCWwfuRx/v/rFJxS2hBwBDgMHBrzaPD7/UEVj4gClojMX5gqA1478qgaCVJlKfI9DgIRIDrm3+gEfycyzWR/x4B0IGOCh3cBH9uiwIkxwWs/8Izf7z+pb4CIApaIzDxMOYHLxgSqq4DyeXjrAHAO6AS6gO4x/3ZP9Fwq1bps377dmCKAWXnkEL+MmuxjZTPwzJjHXr/fH9E3RUQBS0SmDgYbgNuBm4Armf1LfMPAWeDMmH/PjP3b7/d3aUtcsl1cwHLibdp8I0H34v9nzvNqBYAXgKeBh/1+v19bSkQBS0RePXmvBd4xEqy2zNJiG4EDQP3I4yBw2u/3t6vE52w75kwQvM7/fznxbibmSgNQC/zY7/cf0RYRUcASWYon4xLgjpFgtW0Gi2odE6LOB6oDfr+/T6WcctvcBpSME74qR/aBZbP4di+PhK0f+f3+ZpW+iAKWyGI/yXqAPwXuJt6+x6rTwOMjjyf8fv85leqi2TdKR4LWNuJt77YBq2d4jB4CvgJ8x+/3h1TKIgpYIovxBHo78C2gwsJsLcAT50OV3+8/oZJcUvtMJrB1JGxdDdzA9Gq6jgAf8fv9/6tSFVHAElksJ0kf8CPgmgRnqQf+Gfi13+8/qBKUMfuSQbyd3o0jj+uw1rj+34H3qTZLRAFLZKGfECuBR5m6e4VB4CfAP/r9/udVcpLg/uUAXkP8rtNbiF9anMp/Ae/QkD4iClgiC/Xkdxnwa6BwksleBP4BqPX7/f0qNZnhPncl8AHgD5i8jd8PgT/SUD0iClgiC+1Edw3wcyB7gkmeAXb7/f69Ki2Zg/0vA9gFfJB4f2rj+b7f7/+YSktEAUtkoZzcbiZ+GSZ9nJeHgc8Cf+33+2MqLZmn/fGfiXcRcbEv+f3+v1QpiShgiaT6yew24g3aneO8/DzwXnUCKUnYLwuAfwTeMs7Lf+r3+7+nUhJRwBJJ1ZPY+4C/B2wXvRQBPke8LyI1LJZk7qMfAr4PuC56qdrv9/9QJSSigCWSaieutwD/M873KQa8x+/3/1ilJCkUsu676OlhYLvf769XCYkoYImkyglrK/FG696LXjKBD/j9/n9SKUmK7bM1wHsverp+JGQNq4REZodNRSAy7RNVEfCzccIVwJ8oXEmK+jBw8R2sm4HvqGhEZo9qsESmF648xIex2TnOy5/y+/3fUilJCu+/K4CXgLyLXnqz3+//mUpIZOZUgyUyPf80Qbj6ksKVpDq/338KeBfxdoJj/fP27dtLVEIiM2dXEYhY/vX/OWC8Thq/4/f7P6MSkoWgqanpWFlZmQn8zpin04FtZWVl/9bU1KRCEpkB1WCJWAtXbwO+NM5L9/r9/k+qhGSB+Srw7EXP3Qj8qYpGRAFLZL7C1UqghkvbLv4Y+KhKSBaakREF/ggIXvTSF7Zv316uEhKZPl0iFEksXNmAh4C1F730EnCL3++PqJRkIWpqauosKyuLADeNedoFLG9qanpAJSQyParBEknMnwHXXvRcO/BW9R0ki8B3gJcveu627du336iiEZkeddMgMoXt27dXAX4uHGIkAtzk9/ufVAnJItnPt47s52PH0jwEbPX7/WGVkIgClshsnnRcwIvAlote2u33+3+gEpo9Ox543gYUAqVAwUiIDQOhi/4d77nQntt2KgTMfH//MvGxM8f6pN/vVyekIgpYIrN6wvkWcPHdgTV+v/+PEpl/165dBpA7EhyWjTwKgF7gGHCstra2ZwmEp5yR4FQKlE3w/xLAMYO3MYEu4pdux3u0XfR3x0IOZbt27XKPlN/ykUf5SBl2A2dGHo3A2dra2kELPyj2AhvHPN0PVPr9/mYdEUQUsERmI1xdR7y39rFtFV8ArvP7/cEJTnpe4o2F3wj87siJb6rQ0Hk+bI2833/U1tYOLMAQlTVyYt405t/VI+EpPUVXuxM4DBwYeRwEDuy5bWdKholdu3ZdCbwHuHUkXCV6DO8CngP+C3i4tra2c5L9/ibg0Yue/pHf73+3jgoiClgiMw1X7pET7uoxT7cCV/j9/nMXnfRWjQSqNwGvA9wzfPt+4CfAP9TW1vpTMEhljxOkNo6EycWi+3zYSnbw2rVr1wriva6/B6ichUVGgSdHwtaDtbW1TePs/78Ebh7zlAlU+f3+eh0dRBSwRGYSsD5DvBPGsSeY3/P7/Y+NOfFVAV8AbpnD79IrwD8A911bW2veeenQJnMdpnKI9/R9LfEBgTcSrzlZqrqB/wN+Djyy57adLbO58HvjtaWvAd4AZNbdeONrepcte+0c7l8m8Avg7tra2gNj9v8twD4urL39qd/vf4eODiIKWCLTDVdlwBHAO+bpe/x+/5+MBKuNI8Hq7fP1HbrikUdC6b29xpiahx/eCbPePcSOB573AFcTv8x5I3AF6s5lsnDy0khA+Tnw0p7bdpozCFZ/APwlsOb88y++6U0MZWbOx2eJEu9E9y/P12ht3779n4HqMdPEgM1+v/+QNr2IApbIdALWj4FdY546Aly2Zs0a38gJ8B3zHTq2/frXZHZ1jX2qEfgs8KM74yf66QYq+0iIunEkVF0FeLQXTEsL8MhI4Hp0z207+xMMV78PfAtYf/FrdTfeSO+yZfP5GQLA94BvHTt2LAtoANLGvP5jv9//Lm1qEQUsEavh6lrgt2OeihiGcc3q1auvBb7OzO5ym96XNBbjqgcewBYb9+rgS8A774w3kE80VFUSb4B/I3A9kKMtP+tCI/vRQ8C/77ltZ884wcoOfJNJxv07fsUVNK1bl4z1bwc+fOzYscuBsQOYx4ANfr//qDaxiAKWSKLhyj4SWLaef85ms3171apV64nXMiRFZmcn237zm8km6Qbecic8NUmo8gLvBD4EbNfWnlcB4uNV3rvntp17xwSsTwDfnWzGDp+PQ1dfnbQVj0Qi3zt16tR7iHczct6/+f3+P9RmFVHAEkk0YN0J/O2YcHVk5cqVaYZh+JK5Xiv37mX54cNTTXYE2HRnvC3N2GC1dSRUvQvI0lZOuueBe2/45icfKX/xqeNA9mQTx+x2nnvb24jZkzdsbFdX18Gurq6x/WJFifeLdVybU2RiDhWBCGzfvt0LfHH0l4dhhJcvX77aMIykfkcM02TZ6dOJTFpJvJuIh3Y88Hw68XZiHwJ2aOumlJ3AzgNvfldL+YtPZU81sS0aJf/cOdp9ycv4ubm5G/v7+8PhcPj8EDp2YDfwcW1OkUm+vyoCEQD+mHgP6wDk5eU5XS5X0n+A5LS04BoaSmjanvJV1+144Pl7gCbgnxWuUldaT2dxotMWNDYmdV0NwyA/P9950dN3bN++PV1bUkQBS2RC27dv9wB/dv5vl8tFTk5qtPtedvJkwtOe2X7dJ4CPMsVlJ0m+wfyihKfNa2rCHokkdX0zMjLweC64uTSHeJs+EVHAEpnQB4DRGoXCwkIMI/nNE+3hMAVnzyY8fXf5Km3JBaLbtxoS3Mds0Sh5TU1JX+eCgoKLn/qwtqSIApbIJe4Fxz0225+89vTpr21uaRn9pZ6WlpYS61dw5gy2aDTh6dvXbdZGXSAinjRaN2xLfF9I8mVCAI/HQ0ZGxtinrty+fbvuSBWZgBq5y1INVzcCP7DHYuvXt7UB8Tu2AitWpMw6Ljt1KuFpO9ZsZGBZqTbsAnLi2tdTdHBvQtOev0wYdST3kJ2fn8/g4CD2aJT/d/gw2cPDT1XHx2n82GTdhIgsRarBkqUYrm4BfsVFPWdv7OjA4UiN3xyegQFyWlsTnr7hht/Xhl1gTr32RmIOZ2IH6miUwsTuJp1TTqeTzMxMrjxzhoLBQZzRqBu4DHjyXrj/CzqniIxSDZYstXD1RuA/xtv3naaZMuuZQL9XoyJuDyev+T1t3FmU63ZSmOYkz+Mi3+OkwOMky+VgKBJlIHz+EaE3FKWhZ5CBcNTye4S8mZy9/Cp8LzyZ0PSlR4/Ssnp18ssmN5fCwcGLnzaAD44M6vMh7UEiCliytMLVFcQHSnaN93qy79QaDXrBIEUnTiQ8/enX3kg4zasNPAPF6W6uWJbFlYVZXLEsi2VproTnjZlwoi/AKx39vNLRz76OftqGQgnNe+LamxMOWN6eHrLb2uZ7bMJL90+nk7SJ2wZ+8F7ouDM+TqaIApbIEghXLuCHgHuiaYayUqOj89KjRy01btflwelZlubi1tVF/F55PqVe97SXYzNgTXY6a7LTedvqIkzghdZefnqshWebeyYdifvsFdcQSs/AFRhIeN9IdsACsE9+B+Rn/hZe+gj8t/YyUcASWfw+D0x6m11fYWHyT1yRCKVHEx9Ht6/EZ+luNLthUOx143XYSHfYSXPYSXfYSXfYCESiNAdCtASCdA2HF+2OUJWfyTvWFnF9Wd5UQWFaDGBHUTY7irI5OzDMA8db+fmpdgbHuYwYdTo5vfMG1j7+cELLzj97FncgQDA9uX18BvLz8UzShYgB3/8nePR90K9DjyhgiSxS98Yb4d491XS9l/bzM++KTpzAEQolPP1UtVfF6W425WWwOc/LpvwMKnO8uO1Tt0MORWO0BEKcHRzmhdZenmru4dzA8ILeDy4rzOLjW31U5szf5dTlGR7u2lrBHZWlfO2lkzzd3H3JNCeuuznhgGWYJiUNDZzaujWpZdmXn0/e5H20lQXhS8BdOgLJUqXBnmUpBKyHgUmTSNThYM8ttxB1OpP3ZTRNtv/sZ7gvbUA8LtNu54H7HmYoJ/+C50u8bt68opA3VBRSlO6atfU73T/EU009PNPczSud/cTMhbH9s1wOdlf5eNOKwqQf8H52qp2/2neaQCQ6ZrvHePuHbyG9sy2hZYTdbl645RZituTdsJfT2sqWxx+farIocPmdUKejkCxFdhWBLPJwtRa4Z6ofE81r19K1fHlS13XZ6dOWGrefveIaGm56CwAOm8H1ZXl8fGsFd21dweWFWWQ4Z/frneN2UlWQyZtWFHJ9WR7tw2Ea+1O7Vuv1vny+e3UlWwsyU+LXZGWOl9f78jnSE6AlEBxJWAZpPV0sO5JYDrFHowxnZDCYm5u0zxH0eik+fnyqG0NsQOYv4H90JJKlSH2WyGL38anClWkYnKusTPqKLj90yNL0DTe+BQP4/RWFPPyGy/jazrXsKMrGNg9JYnV2Ot++ah3/eMMmrijMSrmN7rQZfGXHGr74mjXkup0ptW7F6W7uuXY9V5e8Ot7liWtfb2kZVtrpzQXTMGhZldDQTLd9HwoRUcASWTzujQ96/N6ppusoLyfoTW43B7nNzXh7ehKefii3AMfrbuDe6zfy2StXkedJTojYnJfB375uA9+/dj3Fs3g5cibSHXa+d816birPT9l902Ez+NrOtVxWkAlAd8Wa+PiECcro7iaroyOpn6FlzRrMqW8ScDvhfToayVKkNliymAPWLUxxeSJmt7P35psJJLmLhi2PPz5uz+2ZFRV4ly/HW1qKt6wMZ2b8hGy7cgeX/f4b5uQuuOkKRKL8urGT9kn6gDLn+KDjcdh4g6+AgjTXgthHQ9EYPz/dQcdQiMKGAyz7v18ycOYMA2fP0nP4MKG+vgnnba+o4PBVVyV1/Tc99dRUjd0BTt4JGolclhzdRSiL2XVTTXB6y5akh6usjo5LwlXWqlWsvu02ssa5DGPY7ay96XdSKlxBvObozSsLebm9j3MDwXl//zSHjatLcme97dlcctltvKmigN82dxPYtIXsrnPkbtwIQDQYpPGRRzj72GPExmnrVNDYiKeqiuELB2CeVye2biWnqQlbLDbZZCv/Fso/Amd0SJKlRI3cZdF6I3wNKJno9f78fBp27IAkB5XK557DM3LnoCsri8r3vpfVt92Ge4JGzLnr15O9Zk1KlrnNMCjzeogBnfPYl5bNgKtKcsh2LbzfjHabQY7LyanBEPZQkLTeeFcONoeD3A0bWPaa19Db0HBJbZZBvMF7V1lZ0tY94nZjA7LbprwD8ulH4JCOSrKUqA2WLGbrJnoh6nBwdOfORNqQzKnclpbRk5MzM5Otn/gEhZdfPvEMhkF+kvtASsTGXC+VufPXrm1jXkbKNWa3Is/jxJfpoad8FRdfRE0rLKTqrrvwjhOkik6exB0IJHXdz2zcmMgoCNt1OBIFLJHFY9wOpWJ2Owevuy7plwYBKl55JR6uvF623nUX6SUlk06ftWoVrqysBVH463O989IWqtjrZk12+oLfWTflZYA3g4HCoktem2j/MGIxy3efzraYzcaRHTuI2Se+IGJMUpMsooAlsvAMjHcyOHjttfQUFSV95fLPniWzqwubw0HVxz8+bg3FxQq2bVswhW8AVxZm4bLP3WEm3WHnisLMRbGzuu02NuRl0DPB3YTOzEw2f+Qj2C7qDLf4+HFcw8ntj6y/oIBDV101WY1wtw5HooAlsnjcM/aPwZwc9t9wA90lKfBj2jRZURfvWLL85pvJ8PmmnCWjvBxPfv6C2gAeh43L57CfrE35Xpy2xXMYW5mVhqOohGDG+GWWVljIije/+cKDeDRK2aHkN2/qWr6cY9vHvxJoQgciClgii8b3z1VWHjhXWUnD9u3svfnmlBjQGeK9tqf39pK2bBm+m29OaJ6Cyy5bkBuhON3F6jm4hJfhclDq9SyqHdaAeFusSfrEWn7TTWRWVFzwXMmxYziDwaSvf8vq1ey/4YYLL78bRpMD7tfhSJYa3UUoi1bWrl227pKSL3eXlKQN5OUl/W7B0fNNLMbGp5/GEQqx8QMfID2By5XpxcUUXnHFgt0WuR4Hx/uGMGdx/MLN+RnkuBZfTzMeh53DETvZZ09hi0Uv3X8Mg8yKCpqfeurVX8qxGDGbjd4UuPQ9nJFBy5o1DGVn01VSQk9x8Sc+09z8tI5IstSoBksWs61AbqqtVPHx43gGBsjbtIncDRsSmmchtb0aj8tmY7nXPWvLS3faKc/wLMqdNt1hIyfdQ2/ZigmnyfD5yF2//oLnSo8exREOp8RnMG022ioqaF29mqZ160p1KBIFLJHF5YaU+8JFo/gOHACg5HWvS2geT15eQm20Ut3KrNm7TLguO31RD0NR5nXTU75y0lrXsptuuuBvRzic9DEKJ3AVIgpYIotKVaqtUOnRo7iGhvAUFFCwbRuG3X7hw2a75JG/QNteXSzX7SDXPTuX9EozEq8NC4fDNDU1sX//fk6ePMng4OACCFgeIu40+oqXTzhN/ubNl1xeLj1yBPs4vb4n2c5du3bpXCNLjobKkcVsWSqtjD0cHu2zaNOHPjR5h6Lnv6BpaWSvXr1oNsjK7HS62/pmtIwslwNXAncOtre38/TTT9PR0YF5UeMvr9fL1q1b2bx5c0qWk8dhI8ftoGtlJVktZxm38ZphUHr99Rz7j/8YfcoZDFLS0MDZBC89z5NsoABoQ2QJ0a8KWcwKU2lllh8+HL/TyzAovvrqhOZJpG8s0zSJpF6txfhl4HVjt83s4l6+Z+oe2/fv389DDz1Ee3v7JeEKYHBwkGeffZbf/OY3hEKhlCyrDKeDUHrGpLVYBZdffsllxLLDh7FFo6n2cbIQWWJUgyWLWcrUYLmGhig7fBiAzIoK0hLoLsKZmYkrO3vc1wKBAJ2dnQwODhIIBDBNE7fbjdfrJSsri/wU7S/LZhgUpbloDYSITvOWwoIpAtazzz5LfX19Qss6deoUDz74ILfeeisOR2odDtMd8d+/k9ViuXNyyKyooP/UqVf3teFhSo8eTbVaLAUsWXJUgyUKWPNg5b59o21jSq6+OqEuIzImqL1qaWnh8OHDtLW1MTg4OFpDEwwG6erq4tSpUzQ0NBBOkTvKLlae6WFtTjors9IoSneR5XLgsFCrle+ZePid9vZ2DozcRJConp4e9u7dm3LllO6M96IzZS3WOG30yg8exJFaNXOZOhyJApbIIrBr164swJ0K65LZ2cmyMTUMha95zZTzuHNzcXgvHCw5Go1y9OhRzp07N+5lr7H6+vo4ePAgAwMDKbdt3CPtp9x2G7luJ6UjYwmuzk6nxOsm2z1xGyuPw4bHMf5rpmny9NNPT1k243nllVfo7k6t0VzSHa92U9i1snLCUD5eFx6OUIhyi0FzjqkGSxSwRBaJlGl/tfqll0b/b9hs5G3cOOn0hmGM2/aqqamJ/v7+hN83Eolw8uRJYrFYSm2YicYmdNoMsl0OStLdrMpOY21OOmVeN7luJ56ReSYbFqexsZH29vZprVMsFku5WqyxAStei1U+/nTFxTgzMi55vvToUdyBgAKWiAKWyOLbt5edOkVmZ+fo35krV+LOyZl0Hk9BAXb3hZVvgUBgWuEhFArR3NycUhvGneDgz3bDINPloCjdxYqsNNblpFM6SWel0w1X53V0pNZweWMDFkDnqolrsdKLiy/9AsRio+NdpgBdIhSdhEQWiZZkr4A9EmHlvn0XPJe/deuk7a8Mm430cQajbmxsnNalL4DW1laCKTBO3XlOm4FtGsMW2QzjktAx1tDQEC6Xa9rr1dvbSzSF7r6zGVxQTuE0L30lE9RiTTCA+bJTp/D29KTCxwkissToLkJZlGpra/t37do1BKQlax3KDx7ENTR0wXNTXR5MKyrC5rzwLrloNDqjzjFN06Svr4/CwtTptcJhMwhFrQfGydrC5+TksGXLFkzTZHh4mFAoRDQaJRqNEovFRv9/PkRlZmbS39+PaZqj4bWvr4/c3NQYXSkci42GrPPZumf1erLbml69o3DkX29p6UQbn5X79lF//fXJ/jindVQSBSyRxaMFWJmMN/YMDFA20qnoWNlr1kw4j+FwjDvwc2AW2tEMXRT0ki02zdo4Y7Lav5HXDMMgLS2NtLSJs/XatWvJyspieHiYI0eOjPYj5vF4UqiMYE32xcMLpZNxzetw919YK+XJz7+gw9GxcpubyWltpSe5A0ErYMmSo0uEstgDVlKs3LcP2ziNyzPKyyecx1lcgmG3z0k4CqROY+fR8DCtgDXJa5MFqrHO9xV2PlCdr7EyDCOlAtZE/YQF8gowL2rs75mi37OLL1XPMxM4o8ORKGCJLB6tyXjTnNZWCs5cej5xer24ssa/mSriToPcvHFfs9KfldPppKKigsrKSjIzM6e1jPk5404vYQ1FJm4jlZ6e2GDSF3coev5vj8czaQ3ZfItMkEJjdgfDORfuKw6vF2fmxO3IM7q6KGxsTNZHaa6trQ0hooAlsmjM++1zhmmy6uWXx33Ns2zZBA3cDQYLi4hOcEK1UqtSVFREQUEBGRkZrFixYjQwpFLNjMn4Q+slGjqC0diMAlZfX99o4DRNk66uLkvzJztgAQxl5xO7KChmrVgx6fJWvPIKRnK67NDlQVHAEllknpvvNyw+fnzCu7YmGh5nOCuHiMtDZILUkeilL2D00heAy+XCPdLdQyqFh+m2vzpvMDx+LVZ2djYZ4/QHdUnAM00OHDhAY2Mj9fX1BINBbDYbJRPciZcsw9GJw5BpGATyLtyfMioqJl2eZ2CAkmPHkvFRTulQJApYIovLr4B5+8nuDAapmKTfofHayZh2O0N5BZPWWKSlpSV86aq3t3f0/6FQiOHhYcshba6FYzMMWJNcJvT5fAmVVTQapb29fXSg5+Li4tEwmgpMYCA8eZcRwYxsIu5XayYna983Wj719djn/3LxYzoUiQKWyCJSW1vbDrw4X++36uWXcU7S35Qn79I2VoG8ZcRs8YbtEzVqNgwj4cGbW1tbaWtro7+/nxMnTsSDn9NJ9gSDRifDYHhmfU0FIrEJW3ClpaVRPE6nm5NJT0+3PM9cGwhFEqrpC+QvmzTAj/cjYJ47H40CD+loJApYIovPI/PxJrnNzReMNzge+0XtoCKeNIYzXw0+k9XslJWVXdI4ezyRSIQzZ85w9OjR0b6zysvLsdvtqROwIjMLWKZpEpgkpJWWlrJixQpstqkPb/n5+VRWVqZU43aA3gRDaNiTTsgbb9xuS7CT1ZKGhvnsfPTJ2traTh2GRAFLRAHLMnskwtoXXpg6GFzQS7jBYMGF/RKFojFCE7S7cTgcLF++3PK6ZWVlpUzHmRC/9DUUmflV255QZMrgtGEKYOecAAAgAElEQVTDBrKyssYNWh6PhxUrViQcxOZTzDQZDEcSnj6QVwiGgSPBgGWYJmv8/vn6OP+tQ5AsVepoVBa7F4E2YNlcvcGKV15JaFDdUF/f6P+Hs+MN2y+puQhFKExzTRgaIpEI586dS2jYnJycHCqmaPg83wKR6LSH/BmrPxRhyO0kzTFxOPJ4PKxduxbTNBkaGmJwcBC3243X602pGr3x9gErRRR1uhjKzsNmoQ1ZVkcHRSdO0Lpq1Vzn6f/RIUiWKtVgyaJWW1trAj+cq+VntbdTevRoQtOeD1gxp+uSO8DGnlwnU1RUxPr16yftdsFms1FeXs7q1asTuqw4n/pDszfWX9tQYl0rGYZBeno6hYWFZGVlpXS4ipomHcPWG6EP5RYQzc6xNM/KfftwhOa0e6rna2trm3QUkqVKNViyFHwT+GMga1Z/ncRiCV0avDhgDRQWYxrj/7aJxEwGI1G8kwxqnJ6ezsaNGxkYGGBwcJDBwUEikQherxev10tGRgbOi8YzTAXhmElvaPbuYBuKRBkIR8lw2hfNjtoaCE3YH9pkTMOgZdPlluY53+D92JVXztXH+a4OPbKU2VUEstjV19cPbdmyxQX8zmwut2L/fgrOnrU0T94f/CE92fkER9pbjfeImZDrmTwgGYaB2+0mIyODvLw8CgoKyMrKIi0tLWVraNqHwgxHZrfXjGA0Rq7buSj204FwlPah6dconcVF/b795DYeT3iezO5uukpLCc1+Nx7P1NbWflJHH1nKdIlQloq/Ajpma2Henh6WjzOY82SaYzb2enJpGgzSNBjk3ASPA90DBCLRRVX4s117NTZgdQXDC758Yia0BoIzXIaJ/713EcywUFFrmqx58cXpd60/wVKBT+iQIwpYIktAbW1tP/D12ViWYZqs27PH0rAjpmHjmTs/zwAJdIIZM3mlo39Rlf/B7gHO9A/TORweaeie2HwR06QnFOHswDAtgRD9ocglPd63D4XoDy/cQGoCTYPDM+6ANYbJcFYOL97xMUvzZXZ2Unz8+Gx+pJ/U1ta+oKOOLHVqgyVLyb3AxwDfTBay/NAhMkbGr0s4YLzpnbStr0q4i4LWQIhzg0HKvO4FX+jNgSAne4eAV3snNwC33Uaaw06aI/6v0xYPn6FYjH3t/fyysYOTfUPjLvPKZVncsDyP9TlebBg0DQbxZXgmvaswVcPVuYHhKXttT2hZI/ns2PVvZPWTj1Bc/1LC86585RU6y8sJz7w3+2Hg0zrUiKgNliwh9fX1kS1btjwJvBtwTWcZ2W1trHv+eax0S9lbVsGTn/gapt3O6ux0CjyJvXVXMExFZhr2FOsE04r+UITnWnoZr3ImYpoMR2P0h6N0B8P0hCIEIlH+6eA5fnG6g57gxHdUNg0Geaa5B4dhozLXGw9vkSiZTjt228IoLxM4OzA8457tzzvZP8RL7fEbKdorq1j32EPYYokt2xaNkt7XR/vMu/X4Um1t7cM62ogoYMnSC1ktW7ZsqQfeMVKRkjDX8DBbnngCh4Wx3Eybjf+9+7sMFsYHEl6RmUZxemK1BJGYSSRmJjx9qgnHTJ5p7pl00OKxYib8trmHF9p6iQ4F6D/4Mh1P/pLmh/+d9id+QedTv6bzmUfpevZR+g68TCw0zAnTzU5fEZlOB6YZryHLdDlSPpTOdrgCeKGtl6M98f7YgpnZmIZBSX3iI0Wl9fcTcbvpT3BYpnH8S21trdpeiYzQJUJZcmprax/etWvXnwPfSXQewzRZ/8wzuIaGrAW6N7+bjrWbRv+22nj9ZN8QmS4Hq7LSFlQZm8CLbb2WLn01DwT4z3+pofnX/0Xg9DEwJw9mbY89CIbB21ZV8p533s77d38cXC5O9Q1R7HWTmaLdNwxFYzQPBifstX+6zvQPX/D3gbe8m1XPPEqOhbsKV+7dS29hIYPWe///JfB+HV1EXqUaLFmS6uvrn9uyZUspcEUi06+oq5tyrMGL9ZSv4qmPfxlzTLcJ2S4na3PSLS2nNRAizWEnx70wfg9FYiZ7WntpCyTe5cDTv/wZX//w+2h94ueEezpHIlpihrs72PPUkzz684fZcvkVFBaXjDSGB6/TTqrUZZnEG+S3BoLT6utqKj9uaCE4JrSZNhtdK9ex5olfYCRYnoZpktPWRuuqVZiJDyH0AvCm2traoI4sIgpYImzZsuVXwAZg02TT5Z07F7+V3crJ1G7nfz/9vUvGGwybJlcUWu/vtHUoiNdpJ9uV2iErEInxTHMPXQn2Rh4cGuILd9zOQ//wt4T7ZzYAcVdHB//1o3+jJzDM5p3XEBjpiNTrtONIcrusoUiMM7PUmH38co/y3yfaLn0+v4i03i4KjifepYgzGMQ1PExnYmNfNgA31tbW9uqIIqKAJQJAfX19rL6+/oEtW7a0AjcCl/RY6RkYYPOTT2KLWjsx7r/1vZy49uZxT7SXF2bhnMYAwy2BIBlOO1kpGrK6gxGebelOuF2RaZr81Sfu5OX/e2zW1sE0Ter2PIeRnknxxq20D4U43hdgcKTHd7d9fu8y7BwOc6QnwNHuQXqCYfpD0fEf4cQeAxM8f7hncLSB+yXhfMM2Vj/5S5xDgYTXO6O7m6GsLAI5kw6/8xvgrbW1ta06mohcylARiMCuXbs2AT8BNp9/zjU0RNXjj5PW12dpWe3rNvOrL91HzD5+ELp1dRHrstOnva7lmR6q8jNHuzVItphp0tAb4GhPwNKlr//4/nf4yd98e25+OTqc3P/kC+QXl17wfGGai7XZ6SxLd81ZeURiJo0Dw5zoCzAQmp/+uX7b1M2zLRPXAJbtfY6bvnaXpWVGnU72/e7vEsjOvvilAeCTtbW19+nIITLJcUhFIAL19fXtW7ZsqQHygO3pvb1seeIJ0vqtdfgZzMjiN39xD6FJetPOcjlYOYNG632hCGcGhsl0OpI+Dl9zIMjzrb00DwYtdQZ+YM+z3POpj83ZepmxGO60dLa89poLng9EopwZGKZpMMhQNIZJvD8u2wzvOuwPRWgaDHKsd4i6jv6RRuzmvG2HJ5u6J+1stb+kHE9/LwXHDia8TFssRsGZM3QtX07k1f6xfgvcXFtb+6iOGiKT012EIiNqa2uHgY98ctu2h1fu2/dzy98Pw+Dpj/4FgwXFk052qm8Iyma2rsORGM+19FCR6aEy10u6Y36DVm8owoGuAUsN2cd69Kc/wjTnNoDU73l20pDaF4pwNL7ZyHE7KfA4yXE7cdsNnDYbLpsNl90Y7fIhFIsRjMQIxmIEozGGIzG6ghE6hkMEZ3mMRUuhPhajJYHt8OJ7Pkpx/YvknD2Z8LJdw8NUPfYYjZs397WuWvWVmN3+3dra2piOFiIJnBJUBCKXuhc+B3zZ0gn9Le/hpXd/JKFpP7BxOfme2Rmk2DCgJN3Nqux0CjxzN/BxJGZybjDIqf4huodnNv7fey6vZKC3Z063YdnqtfzgN0/PeDk2w8DExDRTc1891hvgP48n1gwq79RR3vjp92GLWN5+t94J/6Mjg4iFY4eKQORSd8JXgD8CErr1vHXjZby8648TXv7B7oFZW1fTjPds/nRTN0+c6+Jk39Cs3a0WiZm0DYXY19HPrxo72NveN+NwFY2E5zxcAZStXDUry4mZqRuuAE70Jd43W9eKdZb2U+JD3/yRwpWIdbpEKDJxyKq5F54AvoZh7JroLNtfvJwn/uwbF/R3NWXA6hrk2pLcWV/n3mCEV4LxdmMuu40Cj5M8j5M8txO33YbLbhu3cXzUNAlFTUKxGL2hCF3DYbqGw/SHI7MeLjr7B+PVbnOcWl5/y1sX/T4aMU0OdlkL6wfe/C4KGw5Q8fzjU036KPDJO+EVHQ1EFLBEZjtkndrxwPPvLjh+6LYt//0vjrK9z2IPx9u7xOwOjr/uDey7/f0EM7MtLbc7GKY5EKRkDofBCUVjNA0GaRq8sBLOZjAStGxEY/FQFYnNfRVNhj1GhWuYyoFjXLFxJS8dODFn73X3B9/C59/2GpqNAEeGPQxGF2dl/aHuwYSHIhrr6Y9+nognjVW//SVG7ML5WzZdbi47sv/6j0bCv9URQGT61AZLZAo7Hnh+OXAGwDE8RP6Jw4TTvAwWFFkOVmOtz/Vyy8pli7780m0x1qcNU+oME+1tJDbQxCNP7uW2P/nrOWnofsdbr+Pvvvh+DJcXR+FmTAwaQy4aht0MxxZX0PrXI02XBGgrspobKa5/ifSudoZy8jl3+dUMFBYDVOy5bWejvv0i06caLJGprTz/n4gnjdaNl83KQg93D9JSHKI4zbVoCy7PEeFKbwCXYWIO9xAbaALgDa+7jL/57B187q9/St9AYFbeq7wkn7ve+wbef/sNAJihQWKDbdi8RVS4QpQ7QxwcTuNUcHGUd+tQaEbhCqCvxEdfiW+8l1YBClgiM6BG7iJTWzFXC/7tua5FW2jFzjCvzRjEZZgQDRHpPnbB6++//QYOPvIdPvKu1+NyTv+33roVJdz/5Q9Q/4vv8Me7fhfHmLZw0b4zEIvED3YGbE4b4kpvAKdhLvjyfWJu951V+tqLzIxqsESSGLBO9A1xZmCY8gzPoiqwDHuMbelDI20QTCJdDaNBZ6y8nAy+/al38dH3vJ5fP/UK+w6dYt+h0xw8dpZQ+NLpHXY7m9Yu54rNq7hy5LFxzXJsE/VqH4sQ7TmJPW8N51tEFDvDZGVGeW7Ay9ACvWR4uHsw3p/a3Fmpr72IApYsEHWN1blVvppuBawLPXK6gzvWl+KxL44KZcOAK9MHcYzUEsX6zmCGJu8Rv6K0gA++48bRv0PhCGeaO7HZDJwOB06HHafDjjfdg9viWIyxoU7otmHPXTUastJtMV6bMbggQ1YoFuOxs51z/TaqwRJRwJIUD1WbgE8BbwTy6hqrjwH3A9+t8tUslOs02XO58O5gmIdOtnH7muJFcddJmTNEhj1+Z1psoIlof5PlZbicDlb7imZtnWKBdoiFsWWUYLizLwhZTw1kEI4tnJJ/4lz3rPVztlQCVl1j9ZXAh4HXAieAnwE1Vb6aECJzRG2wZC4Pan8G1AHvIT7GH8Aa4NvA/9Q1Vi+UgD/n1+9O9g3x5CJpj7XGE294HetrJNqbOu2kY8M9RDoOEW5+kUjbfqKdR3D3HSdvqJEDXQM0DgzTE4oQTeFeRZ9r6WFve998vNWiuURY11h9N/Ac8Y6DN4z82LsPOFrXWH21jtQyV9RNg8zVQe1twH9OMdkXqnw1X0z1z7LjgecfBW6aj/e6piSHq0tyF+wX02uLcr3rDNGBFsxg74JYZxP4WGM5+4deHYA73WEny+Ug02Uny+kg0+Ugy2Un0+mIP++0z3iAaKv2dvTx68bO+XzLjD237Rxc4MehdwH/PskkAeB3qnw1L+ioLbNNlwhlriQyKN/n6hqr/7PKV3MgxT+Le77e6OnmHs4OBnnLikLS5nkA57EipslwZGRQ42iU4eirAxwPR2Pj/B0lGI1xTXoP1yxrWlA7qgHcltt9QcAKRKIEIlFaJulBwuuMh6/zQSxzzP+znA4yXHZssxSV93b0z3e4AigHDi/gcFVBvKZqMunAJ4B36pAtCliyUFQmuP99Gni3AtarTvUN8c+Hm7i+NJe1Oem4bNav5JswEo5iDEfGBKQxoWiy16d7mcyXPbQgd9aqkTserXzqwXCUwXCU5kBwwuDmdcZrws7XemWO/j9eI5bhdEwawXpCEX7d2MHJvqSUa/4CPwZ9EchIYLqbEFHAkgUk0d4c31nXWP35Kl/NSQWsV/WHIvzsVDsOm8Ga7HQqc7w4bcaENUfng1FwTO1SMoRiC/PiZrY9SpkrxNnQ7HVCagID4SgD4eiEHYIaBmQ4HWSNE766gxGeae4mHEtam7CchXrwqWus3ki87WciYogoYMkC8iJwcwLT2YFPAnem8GdJWidVkZjJ4e5BDncvjKYwfTH7gt1he6Pzv+6mGQ/T/aEIzLBX9jmQy8L1VRK/ieuMDtcyF3QXocyVn1uYtrqusboohT+LW5szMceHF2ZRdUQc9Eft2oCLIGDVNVbvBG6xMMtPtalFAUsWkh8DAwlO6wHuUsBa+F4OpNMRWXgV4/sC6dp4iyRgAV+3MG2Qye8yFFHAktQy0mP7fRZm+XBdY3WqtvlQwEqQCfyyN2tWlxmzuTBcGRjubPpJA2N2D1v9UTv3tRdo4y2CgFXXWP17wPUWZrm3yldzTpta5oLaYMlc+h6wO8GAkkW8HdbXFLAWtn/tzGdr+hBVadO78800HNizyrBnFGP3Fo32vA7wrwfO8sGNZZjhQWJDnUT7zhDrP4cZnX6H3D9oK6QzokPhQg9YdY3VBtZqr/pT9Hgji4RqsGTOVPlqmoF/sTDLx+saq9NS8KN4tDUTFzEN/uJcKc1hp4UjkRN7zkpcFdeTvul23L7rcOStuyBcAdhtBhgGhisDe3YFrvJr8Gy4HVfF9dgzSy2v60+7cvlNX5Y22iIIWMBtwOUWpv9ula+mQ5tZ5op+tslc+xbwPuJ3C06lcGTaH6TKyu944Hl7gusuY/RG7dx1Zjnvyuvi97L7cBuXdjUQsafhzizBnl2BPbMEjKmL2TFe7+mGgT2rHHtWOWZogEhXA9HuY5iR4QmXEzQNvttSxKMKV4siYI0Mu/VlC7O0E69hF1HAkoWpyldzvK6x+gES7yn5k3WN1fdV+WoiKfIRdHlwmlrDTr7XWsQ/dhRwRXoAl83EgUlf1M7piJefvHGH5eFmXPbJK90NVwbO4stwFm0lOtDM8aYThPubybVHcNtMWsNOfjuQwWN9mbPa55UCVtJVA+ssTP/VKl9NvzaxKGDJQvcNCwHLB7wLa5cW55Iuo89QX9TOE/2ZFzx3XWmu5XAVNU3SHQluDsOGPbOMlsx0/ny/gtRiDlgjzQr+0sIsp7F2A46ITh6Smqp8Na8Aj1iY5VMjDVZTwZC24OzbVpBpeZ7+UJQsl7XfhJlOXd1d7AEL+ChQZmH6L1T5aoLavKKAJYuFlbt7NmCto8A5s+e2nVHifeXILLIalAD6wxE8dmuHrAyXKulnIH3HA8+ndPVfXWN1NnC3hVkOAv+qTSsKWLJoVPlqngaetjDLp1No9Qe1BWeXy2790BOMxohaHJZPNVgzluq1WJ8E8ixM/9kqX43GHhQFLFl0rNRiba9rrL4xRdY7oE03ywHLZv3QYxgGUdNawvI6FLBmKDtVV2xkeK2PW5hlT5Wv5kFtUlHAkkWnylfzCFBnYZZUqcVSDdYsc9qsN7GzA9GYtYA1nZoyubAIU3jdPg94F+DxRBSwRObENyxMe2NdY/X2pH9JzNiwNtvs6hy23vO6zTCIWazBmk6QkwukZCO2usbqlcAHLczymypfzRPanKKAJYvZT4HjC+FX5567K+x77q64yxc4vlGbbXad7LeeWW0Gli8R2gwDZawZcaboen3JwrqZwGe0KUUBSxa1Kl9NFPi2hVluqWus3pCEcFUJPAN8zxMdcmrLza5TfdZ7v7AZBhFzOu+mhDVd17f+4rJUW6e6xuotwB9YmOU/q3w1L2lrynzTPcySDD8k3jFgSYJnx08B752nYGUDPgZ8FUgDcMXUS8OsB6z+6QUsq5cI+0IRy/PIq7b2+O/fc3fFbuDvgX/b8Y3TPSmwWl+zUDkQAT6nLSnJoBosmXcjnfz9lYVZ3lXXWO2bh3C1Cvg/4mOUjQ46rYA1+5oHgxy3WItlNyBisZF753BYhT0D0fj4kJuB7wNNe+6u+Jc9d1dclaz1qWusvhp4k4VZaqp8NUe1JUUBS5aS+4BEfw07gD+b6xVaU+r6yMoip68w2x7wemyjbXcUsObGgyfaLM/zmzOdlqbvCipgzULAwukwyPba0soKHDeuLXU9lMRVstLVyzDwRW1FUcCSJWVkoNUfWJjl/XWN1YVz+mUwaHM6jIrcDHt6Wb6D1aUufIVOXh99np3BvWTE1FvDbPrV6XaC0cT6fIzETL699xR72/t41ELIOtilbTYdBdEubhx6hss8LawsdrKyyElRjgOv21ZmGOQnY53qGqvfAFxrYZYfVPlqzmlrSrKoDZYk098AnwDSE5g2jXingp+dw/VpH/uHAXhcBjvMw+zoPoyJwUlHOftd66l3VbLftZ4eW5a24jT1h6M8eKKNd6wtnnS6qGny+T3H+G1TNwBfffEEuW4nVy6bvOzrOvv5+wNnVNAJyIn1sTV0MP4IHqIs2hJ/wXn+m3CBeW/UNjI26dcszNKLtdoukVmn22skqeoaq/8G+JMEJ+8BKqp8NX1zsS7d96x9E/AzK/OccZSy37We/a5K9jvX02HP00a18gvPZvD9a9dzeeH4YSlmmnx+z3H+9+yFtVYeu43dVT7euqrokm4YekMRfnS0mR8fbbbcZmupyIgNUhU6xNbQIbaFDlARsVTRE8nd3eCc5+PEHwA/sjDL56p8NV/VlhYFLFnKAauceL9YiR6w767y1XxzjgLWDuD5mSyj2b5stHZrv2s9zfZl2shTyHY5+Pvf2URFpueC5/tCEb758qlLwtVY63K8vGlFATuLcmgdCvHwyTb+71w34ZiGmxsrzRxmS+jwaKBaFW7EmH5FVDh3d4NrHo8RTuAQsDrBWVqB1VW+Gl0fFgUsWfIhq4bEu2FoAVZW+WpmvXf17nvWrsJaJ6hT6rTnst+5njrXeupd62l0lGqDj8NmwNb8TG5Ynk+ex8nBrgEeOtnGQDiqwpkGlxliU7iBbcEDbA0dYm34JHZmrSxDubsb3PN4fPgwcK+FWXZX+Wp+oL1Akk1tsCQVfBO4I8HAXwxUA383B+vRNtsLzI92c330Oa4ffg6AXlvmaO3Wftd6TjrKMfU7h5gJezv62dvRr2/DdA7kZoQN4WMj7agOsSF8DIcZmau3m7frrnWN1enExxxM1Engfu0Rkgp0ZJeUUNdY/V/ArRYOomtHeoWfVd33rB0CPPP1uQds6RxwVo624zrmXEEUu3YImZSdKGvDJ+OX/IIH2BRuwGWG5uvth3N3N6TN03Hh01hr3P6eKl/Nv2sPkZT44aMikBTxDQsBayXwTqw1ek1UO1A+Xx86IxZgR3AvO4J7ARgyPBx0raXeWUmdawNHnasIG/qa6pewyerwabaGDrItdJDNoSOkmUkbg3xearDqGqtzgT+3MMt+4MfaWyR1vrciKaKusfpR4KYEJ68Hqqp8NbN6sO++Z+1LwOWpUiYhw8kR52rqXBvY76rkkHMtQcOlnWUJqIicY1so3oaqKnQolfphC+TubvDOw/HgG8SHyUrUm6t8NT/TniOpQj+NJZV83ULA2kx8yIzZPqC2pVKBuMwwW0KH2RI6DEAEOw3OlaNtuA641hEw0rTnLAJl0Ra2BuNtqLaGDpIT60vVVZ3zWzTrGqtLSbz7FoBnFa5EAUtkAlW+msfrGqtfAF6T4CyfnoOA1Z7aX9goG8LH2BA+xu2DPyeGjRNOX/wuRWe8A9Q+W4Z2pgVgWbRjtNuEraFDFES7Fsqqz8clwr9gzHigCbhbe5QoYIlM7hvAfyc47WvrGqtfV+WreXKpBKyL2YixJnyKNeFT3MqvMDE47Sij3hXvGmK/az3dtmztVSkgL9YTb0MVPEhV6BAl0baF+lHmNGDVNVavAd5nYZZHqnw1T2kPEwUskck9SLxTwQ0JTv9pYDYDVsdCLjwDkxWRs6yInOVNgccAOGcvHtM1RCVt9gLtZfMgK9Y/crkvfsmvPNK0WD7aXNdgfdnCuckEPqO9TVLzeCySYuoaq+8AfmhhliuqfDUvz8Z7d9+z9qPAPYu5fNvsBfGhfUZC1zl7sXa6WeA1A6/2lh48wIrI2Zn0lp7KenJ3N+TO0Xd/G/CyhXNTbZWv5g+090kqUg2WpKIfAV8CfAlOfzdw+yy998BiL9xl0Q5uHOrgxqFnAOiy5YzWbtW71nPaUabOTxPgMYNsCh0dbUO1JnwKG0tiiJ65TI1ftxCuwljrhFRkXukoKimprrF6N/D9BCePARuqfDVHZ/q+3fesvQ346VIu+z5bBvWuSupHhvg54fQRw7bk90mXGWZDuIFtoXgbqsrQcRwsyaF8unJ3N+TPwXf+Oqxd7r+vylfzYR0tJVWpBktS1T+O/DotTGBaG/H+ct43C+87sNQLPis2wFXDL3HV8EsABIw0DrjWjV5SbHCuJLIEept3EKUydJyq0CG2hQ6yIdyAywzrmzl33TR8w8K0AeK13CIpSzVYkrLqGqs/C3wlwclDwOoqX83Zmbxn9z1rrf6KXnKChotDzrXsd8V7mz/iXE3IcC74z3X+jszzXSdsCh3FYwa1wS/Vnru7Ydksf9ffDDxkJYxV+Wo+rU0hqf0jTSR1/S3xmqnMBKZ1AX8K3DXD9xxQsU/ObYbYFjrAttABAMKGg6POVdS5NlDvrOSgay1DhiflP8f5Oy63BeNtqLaEDuM1A9rAU5vVNlh1jdU24KtWfgcRHyBeRAFLZDqqfDU9dY3Vf0fi45F9oK6x+itVvprOGbztoEreGqcZYVPoKJtC8SZwUewcc64YvVPxgLOSAVt6SqxreaSJraGDo90nZMX6tQGTHLCAdxEfmSFR36ry1fRoM4gClsjM/BXwMcCdwLRe4sNr/OUM3k81WDNkJ0pl+DiV4eO8ffARTAxOOsrH9MW1nl5b5rysS0m0Ld6GKniQraGD5MV0Xk6lgFXXWO3CWluqZhK/+UUkqdQGS1LeSC3WHyc4eRdQUeWrmVZQ6r5nbTags/Aca3SUvtrbvHM9nfbZ6VapINp1wfAzy6IdKuzZ15y7u6F0lr7bVu4WBvhwla/mPm0CWQhUgyULwbeBD0BCt67lAR8CvjvN99IlwnngizThizTxhsDj8TO2fRn7Xev5ccYttNgLLS0rMzZA9cADbA0epCzaosKde7NSg1XXWO0FPmdhlmPE7y4WWRDUuY2kvCpfzb2jS0sAACAASURBVAngPyzM8omRSw+W5e5uiAC6dWyelUTb+L2h37I1dNDyvKsjjbwh8LjC1fyZrW4a7gKs3I34F1W+moiKXxSwRGbXNyz8ci4F7pjBe6kWK0lKI63TmEfBap7NuAarrrE6H/ikhVn2AT9R0YsClsgsq/LV7Ad+YWGWP69rrJ5ub5hq6J6sgBW1HrCWq+ZqwQUs4oO0Z1mY/jNVvhpTRS8KWCJz4+sWpl0DvH2a76MarAUUsFSDtbACVl1j9XLgIxZm+W2Vr+aXKnZRwBKZI1W+mmeBpyz+Sp4O1WAlK2BN4xJh2TRCmSQvYBHvRsUzD99jEQUsEQus1GJtrWus/n8KWAtHmjlMbqzXwgEsRkm0TQW3QAJWXWN1JVBtYZafjfywElHAEplLI5cK9s3xr19dIkyiMguX/JZFO3GYurFsoQQs4mOLJto2MgZ8RsUtClgi8+cbFqa9tq6x+hqLy1cNVhJZaYdVpvZXyTCtbhrqGquvAN5mYZYfVflq6lXcooAlMn8eIN7pYKKs1mKpBiuJrISmUrW/Sobp1mB9ncRHDwkxsyGvRBSwRKyq8tXEgG9ZmOUNdY3VWy1MrxqsJFIN1uILWHWN1TcAv2thlr+v8tWcVFGLApbI/PsXoMnC9HdbmFY1WAslYKkPrAURsLB2c8og8bZaIgpYIvOtylcTAr5nYZbb6hqrVyc4rc7ayQxYEdVgpbiAlYnrGqvfCrzGwix/VeWr0bVfUcASSaL7ge4Ep7UDf57gtKdUtMmTZg6TGZv6Kq2BybJYpwps/nVZCFd24KsWl/0dFbEoYIkkUZWvZgC4x8Isd9Q1VpcoYKW+/FjPlNNkxgbURUNyJPqjhs6WvE+dOLB6w8kDa+hqzScambKHhq9X+Wp6VcSyGDhUBLLAfR/4U8A70QSxmMFgbyahoNOdnjn4OaYepuMIcAYoV/EmR16sh1Msn3EIkzlxKJGJnnj+y5mnD+V+MRxyA9B2dhmGESO/uIPl687g9gQvnuUs8AMVryhgiaSAKl9NZ11j9T8AHx/7vBmDzpZC2s4WMdibSSwWvzvc6Q59+NdPfuHbr3/dF05NtMzc3Q2h7nvWfgn4B5VwkgJWdOrwlB/tVkElx38lMtGzT9fd/5N/rXcEBkNs2bKFLVu24PP56GheRldbASs3HqegtH3sLF+s8tUMq3hFAUskdXyXeK2UEyDQ7+XYK+sYGkwbnaC9vZ0jR46QlWMzqsyc+4Cbp1jmD4FrgT9U8SYhYCVQO5WnGqxk+HXu7oZXEpgu49tfffj2nu54LdXx48d58MEH8fl8vP3tb2fDhg0c37+WQL8X37rTYJhHR75zIouGoSKQxaCusfqfgD9qO1vM6UMriMVs9Pf38dhj/8tzzz1Hd/ertR0rV+dF8wtcGS/uaZny13L3PWvfR7ydV5pKef48mP567st696TT7Bp4iDsG/lOFNX+OAa/J3d0wZdXh2vW59zcc7v7gRK/ffPPN3HrrrRiGwYoNJyjytdxe5at5QEUsi4kaucti8a3ejlzz5IFVxGI2XnzxRT7zmc/yyCOPXBCuAE4e77IbNiOhXqJzdzf8E7ATaFARz59EaqfUBmte9QNvSSRcAQUnj/VOWvP7q1/9invuuYeYGaavK7sTUFIWBSyRVFTlqznS1Zp3GExqa2u5//77GR6euILq6KGuD5DgoLO5uxvqgCuBh1TSqROwdIlw3pjAu3N3NxxMcPpPRyIxz1QT7d+/n7r9z+B0h79d5asxVcyigCWSqjuzI/q1Yydf5PHHH59y2t6eYD7w9kSXnbu7oQ946wvubS+ppOchYCXQyD1PjdznRdBwfT93d8PDCU5eztR36Y4613Kw5c2v//w3VcqigCWSwn7/d//y348d95+zMIulQaBzdzeYX8n5/+zdeXxcdb3/8df3zEz2tTttKbSltFDa0k4hKTuisggqS4rsIiBefqK44H4FRbyKqBdFZFGRRe1tQFAERGVRtoT2AN1YulDaUro3abPPzDnf3x8zbdPSZGaSTJbJ+/l45JFk5jvnzHzmzDnv+Z5zvucLf1mWc6iKnemApV2E/SVc8XDhGb9O4yE3ArmpNt6xY9s1qrIoYIkMAFu3bf1aGs1nAGekM/2ICdX/qPQaWkyeip1BebaNfNvxLl6DpdxTwMq0v+efxP1F56Y6dMIU4LJUp33AmKKaZ/+x9hFVWRSwRAaAf/9r3R+HjchfmcZDvpnmLBq3BIby77xKFTvDOttNWOI3EsRTkTLsldwjAQpSbP4DUjyuEfA3rG+8QhUWBSyRAWTr5pYvp9H8uMRPqizA0/nHqtCZDlid7AIc6uv4q0yzGN7MOYRLhmw/pmXx709oXvLAMY1L/jiyg+ZHAeemMfkHgDdUZclmGmhUstHfgKXAESm2/ybwsQ9sYKw1De6fhlIYtV6r75Xl+94pS/3cJuuwNGcymwLDGOltVbUzpNRv6PC+kk7uk56xOnggzSaf2UVbf2NxwFocYjQvvr8e7FsW8xbWeSkWbH24dOqVP0xj0m3ADaqwKGCJDMQv3/Aj4MEU259RnJc3c3Pt3eVgKn3HVhrfjG9Z8sDBwRyKiBqCgQAtkQCfG7ml6acbR2IxLMydzsean1G1M6SzY7DybZsKlGHvhMbF05D/gR0dZWAqDVRi/E8313t3/eTrF5n7HvkPS5evS2XSdwJrVGHJdtpFKNlqHrA6lYYBx+Hm6z9Vaw1PW2NvNpazMPYIoGg/yW33eD2bAsNV5QzK6yRE5Vldsi7T6pxSAFpt5xf8KC3ON//volOpmf8Dfv29Kxk1vKyz5g3AzaquKGCJDFwe8JNkjY4LT6b2oR9wZdWHQqlM1Fr8PQFrmKqcQZ32YPnqweqtgLWfHqz9b0wcw2Vnn8CzD3y3s5D1M2CLqisKWCID273Axo7uPGbmofz1zq9x+CFjU56gZU/A2qyA1WcBK0+7CDOuPsUerH0dNHoYf7njqxQVfGAok63EL8wuooAlMsC1Aj/f3x3jx47g4du/TF5uKK0JWky7gDVUFc4g7SLsW3WBRMDy099MTJs8jgvO/MCZtjcT30UoooAlkgXuNIYd+9541dwPUVpckPbEfLtn8KVdu1AkM/J99WD1pQZTCECz37XNxMWf2DP6yYihJa0HHXTQnaqqKGCJZAn77LPNn5374b2+NRtj+NTHjunS9DxM0+4Pj/VV4EwGLO0i7FOBxHeJRq9rm4kJB47Y/fdN152f98Zfv/8ZVVUUsESyROuQdV//9jVnj83PzdkTuqyltKSgS9OL+E7zrr9DxFTgDOosROVrF2HGBW0iYHWxB2vjlvhAsYdNHMOFZx2LMeaWlkX3j1dlRQFLZIBrW3zvFGv472HlxXz63BP3u/JPVxSa9myAFLAyST1YfWvXF4hGP9Clx//jxSUA3PD58wg4DkChb/iOKisKWCIDnGcCtwC5ANdddgah4J4Nxf2P/KdL04xYZ0/A0rXwMipPAatP7foC0dRuF2FjcysNTS1JH/vmqvV8//aHOGraRD5+Snj37SbNi6uLKGCJ9DN22fwiLKfu+v/AA4Zy/hlzdt//k98+xn8WvJn2dNv8PcdghWxUhc6g/E7PIlTAyrQ9PVh7NhPfv/1hjvjY9fzuoWeJeR/8ghGJxrjzT//ktCv+h7ZIjO9/ce6+TYpUWRk0X1JUAslGLbFIGYac9rd9+TNn8ofHXsRai+9bzvzsLXz63BP59ufOZuSwPWcEtkViLH57DS2tbZxw1OF7TXdnzNl98cHR3mYVOqMBq7VL90nPOCC2CXKhKbGLcN2Gbdwz/2naIjE+//17uf7Hf2D6lHHMPHw8nuez+r3NLFm+lk1b4yftnjLnCI4/6rC9pmkwz6uyooAlMpA3ziXRrS0NgS3A7uvZTJ4wmjNPnsVjz7gAxDyP38x/ht/Mf4bhQ0o4aPQwojGPN1a+RzTmcci4Ubz+1x/jOHsGWlwXzdm26+/x0bUqdAZpF2HfGh+LX1dw1y7Cm3/9CG2RPccdtrRFqF20ktpFKz/wWGMMN103l+Y2D4OhMM8BWG4sX1JlZbDQLkLJSmb85a3G2ushvp+jqc2nqdXna1eetd/2W7bvZOHSd1j01hqisfiuj5VrN/Lnf7zSvlndmkjO7i37wbH3VOhMhmRfuwj7Q8Bq8B371jvv84e/vpDyY8/56NEcedjBFOUFKMxziPm8lR9pmZk345K3VVlRwBIZ6BvoGZfdh3WOj3k2lp/jUJTnED5iAidXTE15Grf+7rFdf24w1qlq9Z3iXTdMiq5WkTMogNfhiQS5NqICZdi42HpybBTPGnPaVT9+3vNTG/ctGAhww7Xn7nVbyOF5M/vqZlVVFLBEskTBjItrggHzRru9fFx/1VkpP37xW2v52i1/vCn/rbwD82dc/DQwBOK9VxNi2kWYaV4Hqygfo+JkWI6NckJrLY0r32DzlrrjU33cpWefwCHjRu3zfrFIFRUFLJEsY7Fu+/9POvpwZh8xIeXH3/7g308yc+fu6kopBzi9+VkVNuPhKoDtIEjFjA4f7Q1nNj/Nuj/ckXL7/NwcvvW5T+57c7NjeULVFAUskSxjrPPPfW+7/sqz0pnE8cCuK9cOGeLX8+GWF1TYDIt2EqIihFSgXrBhyWJ2Ll2Ycvv/uvAjjB5Rvu8XnC/nz7hU+9NFAUsk2xTMuORPhr2/QZ958iwOmzgmncl8C8Bgh3y1/i4KrQ4nybTOeqnUg9U7bnpsW8pt83JCrV+87PQFQATYhuEFCx8rnH7ZXaqkDEZaS8mgEA3ZS4NRcwNwFZBnjOHzF59a//++97uyFCdxBjDjiob/GzMrslQF7Y33rJPVU4yACpRhb22I8Nra1Mcba41EbzropM//UJUTiVMPlgwKJYddtq1g+qVfyI+0DDXBwMGObyf/9rHXRwBrUp3GUePz5p3X9HiBqtlLAcuEOrlP3w0zbXNDWtfa3Aj8r6omsofWUjKoJE4Vbx+qbgV+mcpjF61tmxL1LKGAzmDrlYDVaQ+WVl2ZdtTB+ZQVONQ3pzQ8w02A9puLtKMeLBnsfgukdM2bqG/Z2eKrYr0VsHQMVp/KzzH87PyRmOTfJ1YB96hiIgpYIu21ALel0vDo8fkMLdKxP72lsxClXYS94+xZRVR/bgwjijtd7r8D6MrnIgpYIh/wK2BnZw3KChx+dfFIVaoXdbaLMKpdhL3mlMMLePWGg/n2mUMZVbqn7o7BArcA81QlkQ/SWkoEdgA/IX4cyQccf1g5v/pUGQcO0celVwNWJwe5axdh7yrMdfjqqUP48keH8NqGHOpzD2bSzBPtqPK8Z0ee8AUVSEQBS6RDNwMlwOeA4tycYOS00z+Wc9lll1FRUYFp2UJks4uz5VUCm1/FtG5VxTIesHSQe39gQ4X4w47EGz4Tf0SYw0rG77rLsev/fQcwQVUSUcAS6XA7AnyN+ICixStfevgd54DZObvvzB9O7KDT4KDT4luWhrU4W1wCm12cLa9joo2qYE8HLHQMVp8I5OINPQJ/eBhvxEz8sslgOrgm5Mijxm995LOTh51999sqnIgClkhnYpteumd8bNSsTgcg9YvH4RePIzbhbLA+Tv1yAptfjYeubUvBa1Mlu/tG6CzC3mEC+EMOwxs+C3/4LLyhU8FJ7VJENliAN2rODXD3hSqkiAKWSOcbjYIDbuzoG/v+N1AOfvkU/PIpMPlC8KMEti3F2ewS2OLi1C0H66mwaYp2cr1BjeTenUDl4JdOjAeqEbPwhk6HYH6XJ+cNnXamiiqigCWSlF868cPdmoATwhs+E2/4TKJcCX4UZ+e7ODtW4exYhdmxCmfHSkxkp4rdWcDqdJgGXew5pS8LOSX4pROwJRPxSyfgl07ELxkPgdyem0fhAcXvr3BPGD0p/B9VXEQBS2S/1q9fP85Cfo9O1Anhl03CL5u0d0dC69Z46KpPBK6d7+A0rAWrwUwhyThYWnXts4wF8YsOxC+diN0dpCZi84f1zuybNpwPKGCJKGCJdLChqF/x0X2DUMZ6F/KG4eUNwxtZsedGL4LT0L63ayXOjncGZW9Xp5fKGcTHYNm8IYkANQFbOjH+d/G4lI+byshzChZUau0hooAl0smWIvbhPp1/IAe/7FD8skP3utm0bsM0b8K0bMZp3oRp2bL7f9O8GdNWT/xEyOzR5HR8Xe0mk5+dy59xsHnDsAUjsPkj8BO/bf6I+G0Fo7A5Jf0w9A2dqJWHiAKWSCefiIKZ/TL35Q3F5g0FDme/h8t7EUzLFpyWTfHAtSt4tewKY5sxsYF1Ld5GU9jhfQ1O0cAMTzml2Pzh2IKRu0OTnz888ffI+HtsBt4FNmz+0NL169cXjxkzpkErEREFLJH9BJlh4wbkEw/kYIvG4BWN6biNH4uP1xVtxCR+9vzdFP87suu2hj33x1riZ0H6Xvy39TB7/Z/kmDETACeIdYK7/8YEscFcCBZhc4ogWIgNFWFDhRAqwoaKyNuWD7EOXm7hSCLjr0s8xyZMtKnd62mCWFP8efux+I+NYXwPbOL/JEEIE4gHIhNIPOfEbxOAQAgbLIw/78Rz3fU7/ndhu7/b/y4ATJZ+cgwm2lAB/EtrEREFLJG9rF+/fqyFvKx9gU4Qm1sGuWU9vzNxd+DyMdaLBxMnEaa6GCpyWhfGL2K0v4CVV05swindfL4xjB8DY/YOUlkbgjIcsZo3n6GAJaKAJfLBDURkx2E2p1SF6FLxAhCIj03VU+EtGijo0n3pPF/bg8MVDHrWP1JFEGn3nVYlEElsc5s2TFcV+g8v0HFnYqS7AUsysDUJjlERRBSwRPazRY9MVhH6j5jTccCKBvJVoH7GBguGqQoiClgiH2Sc8SpC/+F3svsu4GjV1e+EiopVBBEFLJH9fBpCo1WE/pR3Oz5ENGh0IHp/Y0OFofXr1+epEiIKWCL7bLXztYujP70dnYSokKOA1S/5UR2HJaKAJfKBb+AlqkL/Eepk7RRSD1b/3KDUvaUTRUQUsET2ZiINJtsuNzOQddaDFVC+6oefnx04DevUgyWyax2mEohA3S8nGf71aWNzSvCHTsMfOg1v2PT4NQEdfUz6Qn3U6+Q+XwXq62/nDetwti3B2b40/rthHcAWVUZEAUukvVFAjonsJLDhRQIbXiQEEMjFL58SD1tDp+GXT+mXF9vNRhtbO76kzabWmArUm7xWnPqVBLYlwtS2pZjIfofZP0jFElHAEkm+YfDacLYuwtm6aPdNNn8EfulE/LJD8EsPwS+diC0cPSAv0jtQA9ZGBayMMc2bcHas2uvHNK1Pfs1JBSwRBSyR/Uj5Is+mZTOBls0ENr7c7pOUh18yIR64yuKhyy+ZAEENiNlVnfVS1Uc9ol6MUECrsC7z2nB2rt47SO1YFb9odk9/URFRwBIZtLq3YYi14mx/A2f7G+2jGLZodKKXKxG6SidiC0aq2km0Rlpp8To/4aC+tZnhOvEz5S8Fzo53cHas3B2knMb3Uu2VUsASUcAS6bJxPT9Ji2lcT6BxPYH1/95za6gYv2witl3o8kvGgxPSu7A7PDUlbbO1JcLwQtVqL14Ep+FdnPpEkNq5Cqd+FSbaMDC+qIgoYIlknV7bMJhoA4Etr8OW19vdGMAvPhBbcAC2cDR+4QHYxI9fcMCg29W4raUtaZuNrVEOG4QLqok2Ypo2YJo34DRtwDRtxDRvwDStx2lcn4leqXQU1/1yUnn5tSvqtEoRBSwRwTvgmMOdrYu7e/xJ11kPZ+e7sPPd/d+dWxYPXAUH4BeO3it82YIRYAJZ9X7Ej7/qfLCr99qydDAsL4LTvCs0xX+cRKAyTRv6bhlNxgnglx8G+cNnwopntFYRBSyRQW7ZsmU5bSXFEzEQqF+B2ewS2Lwwfiq6H+0fvRZt9Zi2etj+Jh+IUiaALRiBzS2PB7GcUmxuGbT7O/67FHJKsaF+uF/N+vHgEG3ERBtZ1pQDdB4a32w2mLrlECqEnCJsqKh/Bk3rYyI74+9fZAcmsiPxfsb/pv3/rdswrdsZGAPeGvyS8XgjwvgjwnhDp0OogOB7z54OdytgiQKWSiCDXVlx/hE48Q2zVz4FyqcQm3wR+BECW5fgbHYJbHFx6lf09e6XDjbg3u6ejtR6GkLY3NI9QWx3CCuJD6pqglgnCE4ATLDdbYHdf3/gNicUDzcmAH5kT1iK7AlN7QOUiTZCpN1tsebdT8/H4blRv0/6Mt5qiLDzP99ipLe13RotDxtKhK3E7/Z/Eyrc+7acIgjkAz74MfA9sDGMH4v/b73E731u23W7H8PYxOO8lnhIaqtvF5x2YCINZMsVAvzC0fgjwvjDZ+ENnxlffvZdHPOHTdVaRUQBSwRa6+ZQOGo/QSQHb0QYb0SYKPFjp5zNrxHY7OJsceNnYQ3IrWQU07IV07K1Xz697YEyLKnt/tsaGLJ3wIq1YmKt/fa1DTh5Q/GGz8QbPgtvxCxswajki1du+UQVTkQBSwTHCcxOpV/KhorxxpyAN+YEIDEe1uZXCWxxCWx+FVq3qZg9YKtTnkbbISpYD7LBQvzhM/FGJHqoSsanP428oWNVSREFLBFsIOeILj0ufwSxg04jdtBp8cC1czXBbUsx9SviAzfufAdiLSpwmrYFyjPSVvb9ZpGDXzp+96C4dugReGWTun8cWzC/YO3ataPHjRv3voosClgig1kgb3xPTMaWjCe61zd+i9O4PjGw48o9o2U3b1LNO5FOr1Q6vV2D+ktE/vB4iEpc3skrnYAtGpuxkwIcxzkMUMASBSyRQb3xcUIZGg7c4BeNxS8aC2NO3HNrtCEetOrbha6dq/vNGYt9TT1Y3Uk2+/RKlR2CXzIRm1Pcq0/DGDNMb4YoYIkMYhs3biz0PK9Xh1C3oWK8YUfCsCP33Oh7mIY1iV2Lq3Aa12OaN2GaN2IiOwfVe5JeD9ZgPAbLYPPK8fNHxC+7VDS2V3ql0qSAJQpYKoEMZr7v948NgRPAlk7AK52Ax0f2vi/WgmneiNOyOR64mjYlBqLcFB98srWObBkGAGBrGr1SWwPZF7CsCUBBPDzFQ9QobMHIxM8o/IIR4OT095ehgCUKWCqBDHJD+/+nNB9bMh6vgzO6jB/DtGyKB66mRPBq2RQfgynakBjcsiE+HpP1+v3LTWsXoRMf0sEMhIAZyMWGirE5JfExx3JLsDll+IngtDtE5Q0F4wzwby6xEVq1iAKWyOA24L9pWyeILRwDhWNgeKct4wN6tu0KXDsgsnP33ybaEN8d2bYTEoNnml2DalovPsiqH8NYH2sT9yUG5sTa+GCc1gffw+76u4OBWa0JQCAPgrnYQF48fATyIJhHXRq9UjETpHHEHApjO8BrBa8NE4v/xmvt5Lg2gzUOJjGgqsUBE8A4Qaxx9tzmBDBm121BLA7GiQ+ouus2gvm7gxOJ8LT7/9xSbE7i7/7f69SDASsyWqsWUcASGcSstUMHz6s12GAhBAuxvXa1HLs7kMXDmIVALrtGzv/ghtmjtXZDvF2qZn2Z1oIOcrL142HL2nhYcoLxQUwHeg9Rvw9Y3kgVQRSwRAa3fJUgw6Fu1yV0Usg0Xmsdvk1vd19LSz1FHQUs40Awv13ck155161fpCrIYKevcTKoWWtDqkL/0dpSl/ZjGlubVLh+x89TDUQBS2Qwf9OONuqbdj/S1Nac9mPq2tpUuH73zcXPVRFEAUtkMH8AojtKVYX+o661Ne3HbG7zVLh+F7BsjoogClgig1lbowJWP/Jem0n7Masi2hvV/wKWr4AlClgqgQxmxmtRwOpHlkfTP71xSUyXy+l/HyyjYxtFAUslkEH9RdtrK1YV+o83Y+nn3fWRQIfjbUmf0RnqooClEsig3gpsfX27s3VxfNBM6eu4y8a29AdSiFmItjWofP1lo9L4HoH3X9CpnaLti0ogg/oDsHze/waXz7uIYF6+N3Q6/vBZeMNn4pdN0mCUvSza1kisiwNVNbQ2MyRPe3v7gmneRGDr6zibXQJbXsO0bAG4Q5URBSyRQaz82hXL6n456TpirXcFNr1CYNMrhAAbKsYfMRNv+Cz8odPwiw/uePRx6RFbG+oA06XHrmtqZUiZatgrgappA07dmwS2vIqz+VWcpvf3bfJv4PuqlAz6z4pKIAJ1v5w0H6jqsIGTg1c6EVs+Gb98Cl7ZodiSg+IjlEuP+MeKpdy5pWu9UB8uaeWaIyapiD0ept4nUL8cU7ccp/5tnPrl8YuGd5KTgRnl1654X9WTwU49WCJxVwGzgfH7vdePEKh7E+re3HNbIA+/7BD88sl4ZYfil0/BFh2oXYtd9Fx918PqfxrzuCbWCkEN2dBjYapuOSaa1rFtFrhU4Uok8ZlSCUTi6n45aRbwL6Dr5/0H8/HLJuGVTcYvn4wtm4xfPFYftWRb5oa1nLukezV6YMI2CkcdqWKmG6bq3sKpX5FumNqfb5Zfu+JHqq6IApbI/kLWDOAfwIgem2ioEK90En55InSVT8YvHK2PXztvrl7ItzeM7NY0Plu+idMOm61i7sNpeh+n/u1EmHq7p8LUXvkYuK782hW/ULVFFLBEOgtZk4GngTGZmocNFWHLDsEvHIMtGhv/XXwgfuEBEBhku7lizVztbmSL172xKYMG/niEQ7B4zOBbaGMt8SDV+B40vhf/u2k9pn4lJtqYyTl7wBXl1664T2sOEQUskVRC1vhEyBrf2x9JmzcUv2gstmhwhK9FK17me1vG9si0Lip8j3NnzMnOlXWsCdMQD0+maT2m8T2cxvXxs/hat/XFU4oAF5Rfu+LPWmOIKGCJpBOyxgBPAtP6y8fV5g3FFo/F5o/Ezy2DvCHx37lDsHlDsLnl2NzSAXN2o9+8hU+/vpNGcnqqQjwwqZGC4YcPnJWwH4XW7Zi2uvhP63ZorcOJ1EHrdpzmTZjG9ZjIjv70tOuB88uvXfEPBQqhYQAAIABJREFUrSlEFLBEuhKycoGbLOZ6gx0gn2oHm1OKzS3D5g2BvKH7hLAyyCnBOiGsE8QkfmOCEAhhTQgTCGHTCWm+h4k1QbQRE23ERNv/3QjRpvjvSEO8XSR+2015F1NjJvToyz/I1PHz5jvIC+Vgg4WQU4wNFmBDRRAqiv/OKcQGiyCnCBsswg8VQE4xOGkEPeuDjYEXxdgY+Hv+tl4kfpsXwUTqMa3twlNbHU5bPDyZ1rp4PQaWp4jvFlyvNYSIApZIt1z34K+evmrnnz402ts0qFYP1gkmwlYQnCA4ObtDGbAnMMVa0p76owWncmfJxRl55qe2/Jsv7fhN2o+zThBCxdhQITghsDFMIjh9IEwNvssrNQBfKb92xT1aI4gkp1ESRVLZ8F7w3SlPFZx4fJFtZlJ09aD5ZmKsD34U47VhYi3xHqnITkxbffwn1hwPG2l6L3gAPyi7Fi9DuzJXhQ7mkOgaxnob0n69xmvd8xojO+OvOdYcv92PJoKVHWwfgWeBU8uvXfGM1gYiqdGIiCKpeafV5HJ7yWV8a8jX2RIYqop0UYNTxA1lXyZicjI6n1vKPse7wQNV8G6ImmAMuBY4pfzaFWtUEREFLJGetmrXH6/lTOVzw37IXwo+SluGQ0K2iZkg3y/7IuuDozI+r2aTz3+Xf4VtTrkKnyYfhxfzZvPd8q/8pPzaFbeXX7vCqioi6dExWCIpqKiuOQh4d9/bi/1Gzmh5lo83/ZOhfp0K1QmL4SelV/NM/rG9Ot+J0TXcuv0H5NtWvQkphNK/F5zIXwpOZVNgGMCs2qrK11QZEQUskUwFLAdogf2PJxDE46SWlzm7+e9MjGpPyr6iJsitpVfz77zKPpn/hNhavl/3U4Z52/Vm7MeGwAgeLTyVf+SfQIvZPdbaNmB4bVWleq9EFLBEMhqylgOTkrU7MvIG5zQ9yVFtizBo27TTKeKmsi+yJGdKnz6PoX4dN9T9nEOjq7UwJyzOOYxHCk+jJncm9oObg/m1VZXnq0oiXRNUCURStiqVgPV6zuG8nnM4B8be5+zmpziudQElfsOgK9b7gZE8Wngq/8w/vn2vSJ/Z5pTzxaHfo6LtdT7Z9HeOjLwxKBfiRqeQl3Nn8WjBqawKHdRZ03/pIy/SderBEklRRXXNr4Br0v+QWSZG1zArspRZbUs5PLqcHBvNyhrtcIpxc6fxn7xKanOP3F+vSL8xPraOj7b8h3DbYsbF3s/a5TZqgiwLHcpruUfwWs5UVoTGp/q+TKitqlR3n4gClkjGA9ZXgFu7O50cG2Fa5G1mJgLX+Ni6Absr0cfhzZxDWJgzHTd3OitCB/frUNWR4d42ZkWWMrttMUdG3qDYbxywy6nF8E5oHK/lxAPVkpzJXRkS453aqsqJ+tSLdJ12EYqkbmVPTCRicnBzp+HmToNiKPN37g5bk6OrOMDbTMjG+t2L9wiwPjiK1cEDWR06kNXBA1kWmkyjUzDg39gtgaE8lX8iT+WfiMEyKbqaQ6LvMj62joNj7zE+to4iv39e0iZicng/MIK3QofwWu5UXsuZyk6nuLuTfVofdxEFLJHesiATE613Sng27xiezTsGiO9SHO5tY4y3idGxTYzxNjI6tonR3sZeCV8tJo86p5QNwRGsDh7Iu8F4mFobHEPUZP8qw2JYHprA8tDe10gc6tUlAtc6xsfWcVBsPUO8ekr9BgJ4GX9PNgRG8H5wJO8HRu75HRjJtkB5JnoNdfyVSDdpF6FIGiqqa94BxvfdBzYevkZ7mxgT28QQv56QjRIkRsjGCOARsjGC1tt9W5AYQRsjRAwfhzqnlDqnlHqnhHqnhLpAKfWJ2+qckoyPsJ59K1FLsd9Emb+Dcn8HZf7O3T/l3g7K/B0U2yZ8HGIEiJng7t9REyRGMP534neMABETYnNg2O4wVeeU9m7GjA/PsE3vrkjXqQdLJD0v9GXAshg2B4axOTCM13Om6t3oByyGnU4RO50i1jImG17S6wpXIt2nS+WIpOd5lUCynHYPiihgifS6F1QCUcASEQUskZ71FvFLiIhkoybUSyuigCXS2xLXZXtGlZAs9YfaqsoWlUFEAUukLzyiEkiWukMlEFHAEukrjwMRlUGyzEu1VZWLVAYRBSyRPlFbVbkTHQgs2Ue9VyIKWCJ97s8qgWSRLcBDKoOIApZIX/srZPj6KCK953e1VZVtKoOIApZIn6qtqtwCPKdKSBbwgTtVBhEFLJH+QhslyQZP1lZVvqsyiChgifQXjwLvqQwywOngdhEFLJH+o7aqMgbcpUrIALYa+LvKIKKAJdLf3I3GxJKB687aqkpfZRBRwBLpV2qrKjcD1aqEDEBtwO9UBhEFLJH+6n9VAhmA7qitqtyqMogoYIn0S7VVlQuBh1UJGUC2At9XGUQUsET6u28BMZVBBojv1lZV1qsMIgpYIv1abVXlcuAeVUIGgKXET84QEQUskQHhe0CjyiD93Jdqqyp1mScRBSyRgaG2qnITcKsqIf3YY7VVlf9SGUQUsEQGmluBVSqD9EN1wOdVBhEFLJEBp7aqsgm4jPgFdEX6kytrqyrXqgwiClgiAzVkvQjcokpIP/Lr2qrKP6sMIgpYIgPdDcAilUH6gSXAl1UGkd5lVAKRzKiorpkGvALkqRrSR5qB2bVVlW+qFCK9Sz1YIhlSW1W5BLhclZA+dI3ClYgClkg2hqx5wI2qhPSB79RWVd6nMoj0De0iFOkFFdU1fwI+pUpIL7mttqryOpVBpO+oB0ukd1wO1KgM0gseBL6kMoj0LfVgifSSiuqaUuAvwImqhmTIE8AnaqsqdeFxkT6mHiyRXlJbVbkDOBXQeESSCc8BVQpXIgpYIoMxZLUBVcCdqob0lHBB88a/HbLihZrzKlpUDZH+QbsIRfpIRXXNjcQHJBXpsnPK6/n8iM2Y+Ar98VbPu7h85uX1qoxI31IPlkgfqRmz9sdjcyLfRtctlC5+O756+FauTYQrAAsfyw0EFjQsuv8IVUik7z+jItLLmhbfd7XB/AwoeL6hiJs2HEDU6uMoqQkay9dGbeIjJTs7XMQw5jMF0y6Zr2qJKGCJZL2db943NBg1vwE+2f72Rc35fHv9GJp8dSpL5w4IRfnu6A1MyWtN3tjaW/Onr/66MTeql1REAUskO7UsevAUa7z7wYze3/3rIjn8eONIlrXkq1iyXx8p2cl1IzdT4KSelyz8rmDaJVcaY6wqKKKAJZI17MK7Qi05+T8Ark/2mbPAI3Vl3LN1GK3qzZKEAsfnupGbO9slmMz/Fky/VIOPiihgiWSHutfuLcsNBB4lzcFFN0ZD3LpxJG5zgYo4yE3Ja+W/R29gdCjavaBv7fcKZ1x2oyoqooAlMqA1L3pwrDH+kxa6fEbXEztKuWPzcB2bNQgVBzyuGLaNj5fV99yK2pjzdeC7iAKWyIDVuPjBaQ7+E8DY7k5rWyzIzzaN4KXGIhV2kKyUTy/dwVXDt1IW8Hp68vUmGDgy//CL1qjSIgpYIgNKy5IHTsLaRy2U9uR0n95ZzC83j2CHF1CRs9TE3LbIV0ZtyjkslTMEu8qaF/Pfzj3RzJ3rqeIimaP9DiI9qHnR/Z+y1j7V0+EK4JSSBh4Y/y6XD9tGSUDbxizzzjGFjT+/++B3t2Y0XAEYe2zLlLavquQiGf6oqQQiPaPl9fuPsw7PARnvYmrzDY/tKOMP24a01XuBXFV/wFoJ/BB4oLaqMmZfmp/fWtx6HZavZyKkt1vzb81vyBtnjpmraxeKKGCJ9F/1i/9QnoO3CDiwN+cbs4Z7tw77xx+3lx8MHKp3YsBYDtwM/KG2qvID3ZFNr/5ptBOMPtWdEySSsdZcUzjjkl/rrRBRwBLpt5oXP1AN9ry+mn/MNxd+ZMWkKPBNYJbekX7r38CvgYf2F6z2E9r/BhyToeeyMn/aO5M1yruIApZIv9T62h8m+QFveR/Nfp2Fp43hsYJpl/4ZoKK65lTga8DJ+oz3C9uA+4C7a6sq307ngXbhXQWtOQUPWezpmXhivrEziqZdtlhvkYgClki/07TkvpuNNd/qxVn6GB4B87OCaZe81FGjiuqaMcBc4FPA0XqnepUPPA/cDTxcW1XZ1tUJ2RW/yG1pLfsXluN6fgtgzymYdtkjertEFLBE+p3mxfe/B4zplZlZnnWC5rN5Uy9Zmc7DKqprxgPnJ8LWDL1rGVEPPAU8Dvy9tqpyS49NOL678CVgSs9uAcz1BdMuuVVvnYgClkh/DFi9cRHdCMZ8O/+Ii3/a3Yv2VlTXTE4ErU/1+AZ78FmWCFSPAy/VVlXGMjWjltfuPdgGAi8Do3pwsrcUTL/063obRRSwRAZdwDKw1DP2okwcK1NRXTMdOBM4DpgDlOkd7VQr8CzwN+CJ2qrKd3tz5k2LHphljP030CPD+hvLKfkzLn1Gb6uIApbI4ApYxt6Wn7fj62bSF9oy/Toqqmsc4sMCHJsIXMcB4wb52xsB3gJeIt5L9XRtVWWfjh3VuOiB0xxjHwOC3ZzUpvy38sZoRHcRBSyR/hqwXgGO6ukNu7HmqvwZl9zfl6+torrmwHZh6zjg8B7YsPdXa4DFwJJ2P29ncrdfV7Usuf8Ka/lNtyZi7a0FMy67Xp9gEQUskX6pZdEDl1pj7+vBSW7B8c8uOOLTL/a311pRXRMEJgCTiQ9sOrnd36MGyFtWt0+IWgIsra2q3Dmglrsl93/TWn7YpWxluL9g64FXmJNPjukTLKKAJdIvJU6jfw/LsB74QC7F887Kn3n5uwOtDhXVNSXtQtckYCQwpN3P0MTv4gzMvh7YksLPhtqqyg3Zsuw1L37g82B/kda63PLT/OmXXN/dkyVERAFLJOOaFt13jTHmF3TvOoSP5udELzVTrmjI5lpVVNeEgPJ2wat496Z/z2+b5Da/XajaWltVGR2sy17L4gcustjfk3zXbROYbxRMv+R2fWJFFLBEBk5vwqIHKy3+lcZwAVCQxkMbjeG6/GmX/lZVlK4uexj/R8CJ+29h/2oC5tr8qZeuVbVEFLBEBujG7r7rMeaWFJu/5BC4JG/6Re+octJdrYvv+7CH+bqBw4AcDG9ba35aOP2SR1UdEQUskQHNzp8faJ7S9luDvayTZlFjzY15b+f+WKfJi4goYIlIKiHLWtOy5IGfAZ9n72NjWjDmXuPbW/NnXLpalRIRUcASkTQ1L3pwLI49xlq/3DHO23l55lUz6eKdqoyIiIiIiIhIGtSDJSIywITDYQcYA2xyXTeiiogoYImIZHv4mQJ8CDgeGE18rK9y9j9OVSvgAte5rrsuhWmfBdwATAXygBiwHPiR67oP9NDzLyd+FuJWYJXrujoJQ0QBS0SkT0JVAJgLfAOY3oVJLHRd96gk8/gNcEUnTf4MnOe6ru3iaxgF/BS4sN3Na4CrXdd9Su+ySHoclUBEpFvhagLwKvDHLoYrgNnhcPjQTuZxYZJwBXAOcG0XX0MO8Pg+4QrgIOBv4XC4Qu+0iAKWiEhvhauTgAXdCFbtHdPJfV9OcRpf7OK8LwJmdXBfELhF77ZIeoIqgQySDWGA+HEr44A3XdddpapIN5epCcAjQFkPTM4D/t7BfBzg8BSnMz4cDhe6rtuU5vxndPN+EdmHerBkMGwIjyK+C2cR8BiwIhwO3xkOh3UMonR1mcoBqnsoXAE84bruxg7uy0v8pMKw5+LZ6RiZ5P7ScDicq3deJHXqwZLB0MvwFPGzuNpvhK4GaoDfq0rSBXPpeJfavnzgfeDdxO/2B6G3AYuBX3X0YNd1m8Ph8DvAxBTmta2ToJYsmPVEGxFRwJJB4kv7hKv2TlbAki76rxTaWOAnwHdd123r5vweB76QYjsRUcASybhjO7lvhMoj6QqHw4fT+QHpu8LVJ1zXfayHZvtt4CxgfCdtNpH6wfAikmE6Bkuy3QGd3KddHtIVx6fQ5oUeDFe4rtsInADM66DJ34BjXNfdprdHpH9QD5ZkrcRB7MNUCelhs1NoM6+nZ+q67nvABeFw+BvANOK9WWuBZa7rrtTbIqKAJdJbhmgZlz4IWB7xMwwzwnXdNcRHWBeRfky7CCWbDVcJJAPGJ7n/Ldd1t6hMIgpYItlKB7FLj0oM+lmSpFmjKiUiCliigCWSuhKSnxyhgCUiCliS1bSLUHpaKiO3K2CJiAKWZDX1YElPS+WSNU0qk4goYIkClkjPUg+WiChgSVbTLkLpCy0qgYhojCDJZurBStOc+S/lm4AdESU0wvh2JJaSAN52GzCbvUhgy7DSrZufPOOMtkw/j2P/8kKx3+aM9HFG4TDSYoZj2YZhNQ6rXzmnQiOWi4gClogCVs8Ih8OhYDA4sra2dj3x6911b3oPLzwgaGPnWGuqDDbsQxE+OPjxBgZ8HPDBCfpsbxpCRXXNTmvMFsf6i60xf/N954kFc4/e2J3ncdKzzwabtxScYBz7cSxnxSJM2H2ungWz66VawIOK6pqdWFYDq3FYjOGe2nMr39MiP6CX7TzXdVtVCVHAEun/+ssuQjN79uxDfd+f5DjO+vr6+jdWrlyZUi/QzJkzT3Ec58PAYcAUYGIsFguGw+E6Y8xVCxcufLgrT6hifs0lGK7Cjx0LOCa9rFZirC2xmIlYznaMbyvnv7zQYv7mBwIPLjj3qHdSfh5/rBlJiO+1bOV8Y2xZGk+jBMMMYAaWT2L5VkV1TbXvOD9fcO7RC7I8iOQAc4BJwHrgZdd16wfoaykErgSuAqaEw2EX+Kzruou0+pKBThe7lYG6kRkC/A/wIeLXG9zfslyaZDIxkp/xFQPWAXe6rntXus9z1qxZlcaYXwGz2t38vrX2S6+++ur8Tl7fFGvtz4wxp3cy+WgkEhm5ZMmSulSfz1EPL5jg+N49ibplQivwwyGF22/pbFfi1PnLcgpN43UG+x2guEefgeVFHH5eu7TiEW40fprL1dnAN4GDgdB+mgRSeL5tdH4clk0Eo/td1/1Jms/vBOAe4NB2N28FPue67sPd+DzNA85P0iy/J3uYwuHwMOBJPnjpoRZgtuu6b2hNJwpYIr0fsG4DvtDLs53huu7iNJ7jRGAh+x87yTfGnLlw4cIn29945JFHlgUCge8D/0UKPczW2s+8+uqr96byfI5+qPZLxtofAAW9sGZZ7lvnmgVVRz+9710V82vC1jH/Z6ydmOFn8echhdsvTPWYsXA4XA5sAHJ7cZk63nXdF1J8fgcCiztYnqJApeu6rw6EgBUOh8cB/wAmd9DkGdd1T9GaTgYynUUoAzFc5QGX9sGsr0insbX2s3Q8MKVjrb2+/Q1Tp04tCgaD/wSuJcXd98aYj6cUrqprrzbW/qxXwhWA5VAH/18V1TVf3StcPVxTieHpXghXAOdsbxzy5LF/eSHVHrKqXg5XAJen0fbznSxPIeDrA+TzOxV4qZNwBVAZDofVASAKWCK9rA3oi2NOouk0NsYckaTJzHYbnVBeXt5D1trZaYa4ZSk2vbSP3qtbKqtfvgjgqIdfOQGff5J81y3AMmvMrw3258BPMfzEYn5soNpiUr+QsuHkWFvwuePn/yeV4/H6YvyqdAYlPaKb9/eHcDUH+A8wJknTza7rWkQGMB3kLgOO67o2HA7fA9zcy7O+N53G1tpCYzr9Ep6zOwbAb4BT0/6G5DgpHXdjsKkcp9WC5UUMzwAbDTZgrXEMNuDjBAw2YIw9yMeZZbAzSX7RYwBjMfdWVr881vr+d+m8B63OYm71bOBBd+7stZ0U1lQ8XDsNy3XAJUnXY4ZZEXLmAcl2OT2SCO5lvbhM/T6NtkO7eX9fh6vTgYdIrRf1Z1rTiQKWSN+ErB+Gw+EngbOBo9j/8YQfofNe2q2Am2RWbYlv3E9m4KBbD2DWrFlXkn4Pk2et/anruq+lFMTwf+gR+LDBtt8FFgMWAE/j8MyQ/O0vpTzGlbXmqD8vmB3wvc9YzAV03isVspgfJZniHW3B3G+/fvbM5D2Txtja+LFInzl6fu1NBvt7DCckedSHjp5f+7FX5lY83sky1RIOh8cDHwfO7CBAFgLHJZnXGuCtTu6PEd9F9rd0jukbyMLh8EWJLyihFJr/ynXdX2otJwOd9nFLNq/UW+n8mJqnXNc9LVPznzVr1nPGmBM7aVLvuu6QcDj8BvEhGPbbxlq7whizPPF7hbX27dzc3DdefvnltEYMP/qh2tmO9S+0xsSA54Kh2PMvfuK4hm7X+bGFBcHW2M3AF7u0TjH8pPa8yq91ef53LQwFh8R+CVydpOkb4+za6dVz53rdWKamAG8maXab67rXZWB5rgEqOmmyyXXdUV2cdsYOcg+Hw18Efp7isvFt13V/qLWXZAP1YIn0HX/27NmnW2v3DVcxY8w8Y8xPFyxY8HpPzeyV8yoWEj+rsUe5Z81uBr5UUV3zpMX8dZ9esmR+2p1wBeBePTuKtf9V8VDtJDoffuLwtYy7Arhbi16vfcn5AfDtFJrGgKtc1/29qibZQge5i/Qdz/f9L+1z26ue5x2+cOHCS3oyXPWG2qrKfxhrUz+TzXBbbVXlV3tk5sZYP+Z8GogkmefHtdj1SrBywuHw3SmGqybg4wpXooAlIj2l3Bjz4Xb//6a1tXXO66+/vmKgvqDaqopfAKmc2fh+o1/8tZ6c94ILjl5H/NiszgLWBC12GQ9XuUA18dHZk9kCnOy67pOqnChgiUhP2b2L3hjzmOu6Vy9btiwyoF+RMdYa81SyZhZz27K5UzPxWt0kMx6PtTr2NHPhqpj46OznpNB8FXCM67oLVDlRwBKRTFjT0tJyIeBnw4sx2KeTNGnwbOCujMzckmwk87xj5714gBa5jISrEcBzwMkpBuFjXNddqcqJApaIZMoNy5Yta8yWFxMwXrJdhHe7c2fvyNDstydr0JabO0SLXI+Hq4OBF9j7mpsdeQo4yXXdzaqcKGCJSKascV33gWx6QZ4NdDpSu4nZ2zM1b4Mdl6xNTiTSosWuR8PVNOBFYFIKze8HznRdt1GVk2ynYRpE+tYCsmTX4O6QY+0Q2/GQRxtqLpjzbqbmbR0zjiQXWGkL5TZrseuxcHUs8DdSG/3+R67rflNVk8FCPVgifchauzQLX1bHu+Asr2WwmAb4aJJWm9xzZ2/Qktcj4epjwD9TCFc+cK3ClQw26sES6ctvOI4zuAKWSXoQepcd/fArn8ByWJJmz2ip65FwdSnw2xS2IW3ARa7rPqyqiQKWiPSmvg1Y1pojH329ND/aMswPOMOsZ4biMMzx/aEW41lMozG2yWIajWObfM+py8mNrOrsEju+cQ421naQr2xGerBOf+KJ3G1NfDeFpv/UItftcPVl4FaSX/qmnvgAos+raqKAJSK9KTZ+/PiVCxcu7NWZHj2v9lDH8ausMefxUO0RQNA3DvhgjAUL1phdgWjPbx8c4xOLBKmortkIrABWGOxyYIW15q1YXXCFsbE5Hb5gG1zW06+nav78wJqmofcb7MwkTbfn25ZqLXbdClc/AlIZrf894DTXdZepaqKAJSK9zauurvZ6Y0ZHz68d7xj/IoupAjvddv8676MSP8fvnpaB4JBYjI6P7YzZOvNOT76uiodrKtf45o4UwhUYbn+u6mSdvdZ19wAXp9BuWSJcvaeSiQKWiGSlqvnzA2sZd7013Ggxub0wy87WKU5wSMytqK5ZC6wx2LUWs8ZasyaAt/blN+Zs4EbT6RmVpz/xRG59Y9mhvnFOwXIJPrNMstMG49Y7vn+blohuSSVc1SbCVb3KJQpYIpKVZs9fMHmt8f4AhFMMIZnmANMSP+zq+TLG4uNQMbU2RnXNemATgLHWWGMcLAaDA5Rsb+LgxN+k0QkXtdZUvTz3mO1aKjLuYGAE8eOvRBSwRCS7hOcvHBcwsWeA0QNsfXRQ4mf3cWDd3JsZs5grX5lb8bKWim77EfCNJG1GAk+Hw+HjXNddo5KJApaIZI05818a4pvYU10IV00Y1uKzFsNaIGiwwy1mBDCceM9E4QAqxTYcql45t+JZLRU94ntALvClJO3GJkLW8a7raswxUcASkezgG+ceYEqKzd+2mD/51pm3cO5Rb6cQ3vJNwI6I2eBwgx1hMcMd64/CMNZacyDxC/2W9HEJWoB7/ZjzowUXHL1OS0SP+kri/b0iSbuJwL/C4fCJrutuVdlEAUtEBrQ581+a5sPZKTRtAD5bW1U5L53pvzz3mBZgTeLnAyqqaxaTOMZqP94hvvsvkKGXX2+N+VWu33bb83NP2KKloee5rmvD4fBngWJgbpLmhwNPhcPhD7muu0PVk8FGl8oRySKeCXyH5EctLcEQTjdcJRW/VM0hHdy7s7aqcmJ+Y0uRb52Z1pqLgJuAB7G8CLwPaR2Jb4HVBvuIxdwIfDKYExv3ynkV31G4ynjI8omfUfhECs1nAY+Hw+FCVU4GG/VgiWSJY/784gjPs+clTSYBc8kr51Ss6On5HzVvwViC5Hdw95sAz11+civweuJnL6c/8UTulsbhBwcCXrn1jAkYz1jHGOsZY40x1jEm6MWMH3DaaOGN2osrd+pd77OQFQ2Hw+cBfwdOSNL8WODRcDh8puu6baqeKGCJyIDieYE5JOmVNti/1Z5TuShDa5NDO7k36bFQT55xRhvwtt7JAROyWsLh8JnEr+84O0nzDwPzw+Hwua7rxlQ9GQy0i1AkSxjsMcnaWMfcnKn5B6zXWcDarHcoK0NWA3Aa8dHbk/k48EA4HNZ2RxSwRGTgsJg5SRLYm7XnVtZkav6+cQ7rJPzpuKjsDVnbgI8QP4khmU8Bd4XDYaPKiQKWiAwUByRJYE0Zm/ON1nHwP9FJi216e7I6ZG0gvhtwfQrNrwR+rqqJApZI9irKqldjkh5TmbELSx81dcHJFjOuw2xnjc4iy/6QtZp4T1Yq4159MRwO36SqiQKWyMAUSXL/sKx6tZZQkvszdnCxwV6epMEwLY6DImTY29rzAAAITUlEQVS9CZwKpHKG53fC4fDXVDVRwBIZeJKduTY8y15vfZKQ42dipsf8+cURBntOkmYnaXEcNCHrVeBM4iPqJ/PjcDh8jaomClgiA8u7Se4vD4fDgWx5scbYZAewz6x4sKbHL2Pje86d0OH4V7uEj36o9pNaJAdNyHoeOIfkvcgAt4fD4UtVNVHAEsmegGWAqVnzai3JAlYRuXymJ2d59EO1F1hMKpfmwVj7PW60WucMnpD1d+Aikh/7Z4DfJQYuFVHAEsmCgAWQNd+cAzHvCYtJNlL2zXPmvzStR8LVvNpDjbW3p/GQ6RVTa/8ZfnjhAVo0B03Iegi4iuSXQQoAfwyHw6eraqKAJZIdAeuibNlN+OIFx71vsL9J0qzAN85jRz9UO7s786qorvmECdgFwJA0H/qhgO8tqnio5oyeeM3hxxYWVMyvOa/ioZp5FdU1T1RWv/x19ZL1u5B1L/ClFJqGgIfD4fBJqpooYIn0b6tTaDMKuCNbQpZj/f8BWpM0O8hY+1JFdc1XEhdoTj3Q3LUwdPRDtT8AHgG6dDyXwQ7H8nhFdc2yiuqa/654qGZSOo+ffv+iwsr5L59fUV1THWyNbcFQjeV84HSL+VHF1NpfatHvdyHrNuCGFJrmA4+Fw+EKVU0GOo2mK1krHA4HgTXA6BSa/xW4EVjSU9dKmzVr1nPGmBM7adLmum5eT7/uiodqLsbyQEorAGuXWmP+aK2Z98rcig4D6Zz5L02zxlzu41xssJ2dfekb7HVYPmuNOSKNNdFyY+06H2ejwW4ENmJoMb7NtcbkAsXAZOBw4BA6v45qa0tL/rDFl85oysAyNYXEhas7cZvrutdlYN41QGfBY5PruqO6OO15wPnJwo/ruq3dfA0/Bb6cQtM64CTXdRdrTSYDlS72LNn8rTkWDofvTgSnZD6e+GkOh8NLiB+YW5T4yQVWAb92XXdef3/dtedVPljxUM1ULN9I1jYRgn5ojP1hxfyaRRjeN8bWWWvqE70JQ4DxPkyP56BOD6WJGGMvqTlvzvxj//TCw7Fg8HlgQkpP2nKoxRy61/QtWNOl74ChIXnb9eWxf34mvxIOh0uIj+bemXLgz+FweLrrus2qnAxE2kUo2e4uUhv0cJeCRC/BMcRDxQRgDHAC8KdwOHzqQHjRtUsrvo3htrQeZJgBnG6tuRC4Brgc+ESiDsk0+Dhn1Jw3Zz7EjwcLON6HMEnHIsuEPz039+TGLFyWbTfv7+5jbQ+9jquB/0uh3USS96qJKGCJ9NE35o1AT+6uuTrlvGJMso18Q8Ze+I3Grz2v8jrgAsjgNQjjNhvHnrSg6uin29/40rnHriHCURYzv7cCiMHe12iLr8jgPLb2UJsu1TnJ/RsyOO0druu29dBn0gcuAR5Pofl4rcVEAUuk/4ase4H7emhyZ6RxQPySJPe/lunXXltVOQ/DzETIsT08+Shwb8Dxjq45d86r+53/hZWbXqmqON8Y+3FgZeaiFS861q+sqZrz6WVzp0YyuCxtBTZ2833vqqVJ7l+YwWkv7uE6RoHzgH/3US1FFLBEesjlwM09MJ3XXddN6aLJgUDgbmBHR+HE9/0f9MYLrz2vcsUrVRXne4HAdGAe0N1jWpqA/8VhQm1V5WdeOvfYNckeUHPenMdqqyonOfjHAnfQc7087xhjz6+dW3ncy3OPeaWXlqXOLlJcQ2o9M11xO/GDv/enPsnzSuaPxI8z7ChIfz0DYbUVOAtY0ElgfFSrLhmodCCoDCrhcPh44BagsgsPbwGucF33T6k+YNasWccbY+4kfvbb7lAAfMF13cf7ogYn3ftsXktx/oeMtWdZzDHEz8or6OQhrVheMca+YKx93sn1X3zxE8d1a/dm+K6FoZzyyCkWE7bGTAEOI36WYFGSh74NvIjhRc8PvLhw7lFv98EyZIBvAN/a5/k+Anzedd33Mzjv44C7E/XaZSlwpeu6td2c9lTgN/t8NtYC/+W67hMZfE0lwP3Ej/fb5d/ARa7rrtdaSxSwRAZW0DoSmEb8AO5piZ/2wznEEoGqGVhOfHfeL1zXXZXuvKqqqgLvvvvuFM/zJhhj3i0uLn7zueeei/WnesyZ/9IY4BCPQJE1pjVIrMU6ppUoLQ1OyapM7nbbzVpz1LwFY4OB2AGeE/ADeJ7nBHwfxwtGYp6f42x+5ZyKbf1oGSpOLDclwDLXddf10nwDiYA1nvhYb2+m2quaYng8FJgErAfe6Kljr1KY7+HAlMQXkEWJY7VERERERERERERERERERERERERERERERERERERERERERERERERERERERERERERERERERERERERERERERERERERERERERERERERERERERERERERERERERERERERERERERERERERERERERERERERERERERERERERERERERERERERERERERERERERERERERERERERERERERERERERERERERERERERERERERERERERERERERERERERERERERERERERERERERERERERERERERERERERERERERERERERERERERERERERERERERERERERERERERERERERERERERERERERERERERERERERERERERERERERERERERERERERERERERERERERERERERERERERERERERERERERERERERERERERERERERERERERERERERERERERERERERERERERERERERERERERERERERERERERERERERERERERERERERERERERERERERERERERERERERERERERERERERERERERERETk/7cHBwQAAAAAQv6/bkgAAAAAAAAAAAAAYCF0bEkh90PvtAAAAABJRU5ErkJggg==;" parent="11" vertex="1">
                    <mxGeometry x="33.33333333333333" y="20" width="83.33333333333333" height="83.33333333333333" as="geometry"/>
                </mxCell>
                <mxCell id="12" value="80, 443" style="text;html=1;strokeColor=none;fillColor=none;align=center;verticalAlign=middle;whiteSpace=wrap;rounded=0;fontFamily=Lucida Console;fontSize=12;rotation=-90;" vertex="1" parent="11">
                    <mxGeometry x="-34.72222222222222" y="55" width="85.41666666666666" height="30" as="geometry"/>
                </mxCell>
                <mxCell id="16" value="" style="group;fontSize=12;" vertex="1" connectable="0" parent="1">
                    <mxGeometry x="960" y="392.5" width="150" height="105" as="geometry"/>
                </mxCell>
                <mxCell id="15" value="&lt;font style=&quot;font-size: 12px;&quot;&gt;Nextcloud&lt;/font&gt;" style="shape=process;whiteSpace=wrap;html=1;backgroundOutline=1;fontFamily=Lucida Console;fontSize=16;verticalAlign=top;" vertex="1" parent="16">
                    <mxGeometry width="150" height="105" as="geometry"/>
                </mxCell>
                <mxCell id="7" value="" style="shape=image;verticalLabelPosition=bottom;labelBackgroundColor=#ffffff;verticalAlign=top;aspect=fixed;imageAspect=0;image=data:image/png,iVBORw0KGgoAAAANSUhEUgAABLAAAANTCAYAAAC+VuRtAAAABGdBTUEAALGPC/xhBQAAACBjSFJNAAB6JgAAgIQAAPoAAACA6AAAdTAAAOpgAAA6mAAAF3CculE8AAAABmJLR0QA/wD/AP+gvaeTAACAAElEQVR42uzdd5gdZf2w8fuZswmkUENXmoJ0KW52NwkoEQTEhoWIigiiYAORIm13M9kNoSkqVhAsIKIRC4oCgkYkJLubFaSKohCa9J5CNnvmef8Irz8LJeWUmXPuz3X9rut9EZLde87OPPPdKSBJkiRJkiRJkiRJkiRJkiRJkiRJkiRJkiRJkiRJkiRJkiRJkiRJkiRJkiRJkiRJkiRJkiRJkiRJkiRJkiRJkiRJkiRJkiRJkiRJkiRJkiRJkiRJkiRJkiRJkiRJkiRJkiRJkiRJkiRJkiRJkiRJkiRJkiRJkiRJkiRJkiRJkiRJkiRJkiRJkiRJkiRJkiRJkiRJkiRJkiRJkiRJkiRJkiRJkiRJkiRJkiRJkiRJkiRJkiRJkiRJkiRJkiRJkiRJkiRJkiRJkiRJkiRJkiRJkiRJkiRJkiRJkiRJkiRJkiRJkiRJkiRJkiRJkiRJkiRJkiRJkiRJkiRJkiRJkiRJkiRJkiRJkiRJkiRJkiRJkiRJkiRJkiRJkiRJkiRJkiRJkiRJkiRJkiRJkiRJkiRJkiRJkiRJkiRJkiRJkiRJkiRJkiRJkiRJkiRJkiRJkiRJkiRJkiRJkiRJkiRJkiRJkiRJkiRJkiRJkiRJkiRJkiRJkiRJkiRJkiRJkiRJkiRJkiRJkiRJkiRJkiRJkiRJkiRJkiRJkiRJkiRJkiRJkiRJkiRJkiRJkiRJkiRJkiRJkiRJkiRJkiRJkiRJkiRJkiRJkiRJkiRJkiRJkiRJkiRJkiRJkiRJkiRJkiRJkiRJkiRJkiRJkiRJkiRJkiRJkiRJkiRJkiRJkiRJkiRJkiRJkiRJkiRJkiRJkiRJkiRJkiRJkiRJkiRJkiRJkiRJkiRJkiRJkiRJkiRJkiRJkiRJkiRJkiRJkiRJkiRJkiRJkiRJkiRJkiRJkiRJkiRJkiRJKqxgAkmSpBecNziCx1mPbOnaxGTZ/5GtTQjrQFybyNokcW0IaxNZA2LLC//lKAirv7C6GkFk7IuvvMLTxBhf+P8tgLj0hf/heQLPkfE0hKcJ8WlieAri0yTJU4TsaYbLT8PIp0lbH3dDSZKkZuMAS5IkNYfTr1+HpattQoyvJoSNCWxKjJsAryKEV73w/96wAOujJcBDEB+E8CCEfxJ4gBgfAu4nKz8ESx4gnfy8G12SJDUKB1iSJKlxpLePhEWvJsQdSOL2xPAayF4DYQdg4yar8RTEOyC5nRDvJuNuQriDbOFfSScP+2GRJElF4gBLkiQVz7l3rcazT+5EOexKyHaBsA2wNbCp65tXNATcA+GvRG6HeBOxfBNTJ/yDEKJ5JElSHrnAkyRJ+Zb2rUkLryfyBmKyPWQ7QGgFVjNORT0H/I3AHRD/ROBPjM7+xLETF5tGkiTVmwMsSZKUH2lMoH9HSuwBYRKRdmBL1yx1sxS4DbgB4g1kzCbteMAskiSp1lwMSpKk+klntZCM2pnA7i8MrN4MjDNMrj1EYDbEG4jMJmu/iTRkZpEkSdXkAEuSJNXOeYMjeHTpJLLSPoTsjd4K2BCeZtkVWtcS4tV0TfiLSSRJUqU5wJIkSdXV278lMb6FEPYmsg+wllEa2iME/kjkCrLyFaQTnzSJJElaVQ6wJElSZZ198xgWPb8nsC+BfYHXGaVplYEBAlcT4tUMtw94u6EkSVoZDrAkSdKqS29amzD0FhLeQeQ9wBij6EU8QeA3ZOEnxDFXk+4wZBJJkrQ8HGBJkqSVk85Zl6T0duBAYB9gpFG0Ap4icAUZv2L06r/hhJ0XmkSSJL0UB1iSJGn5nTa4MeXs3RDfC7wJKBlFFbAA+A2En5IlV5C2LjKJJEn6dw6wJEnSy0tnrU4Y/Q4ChwD7AS1GURUtXnZlVriY7eb/hilTyiaRJEkOsCRJ0ovr6XsDJEdA/ACwhkFUBw9C/CmE79DdfrM5JElqXg6wJEnS/0kHN6NU/gCRjwOvNYhy5A4CF1Ee/i7ppEfNIUlSc3GAJUlSszv3rtV4+qkDIfsEhImuD5RzQwR+SojfoLNjtjkkSWoOLlAlSWpW6exNCCOOIPBJYAODqHjinYTwPcojzyPd9Wl7SJLUuBxgSZLUbKb37U4MRxN5Nz6QXY3hOQiXkmVfJ+24xRySJDUeB1iSJDWD9Ka1SZYcCuGTwOsMogZe3v6BkH2dbe77uW8wlCSpgY7wJpAkqYGd1rchw+GTBD4LrG0QNZF7CPErlFu+Tdq6yBySJBWbAyxJkhpROmcrkuQoCEcAqxtETewxIt9gBF/llPYnzCFJUjE5wJIkqZGkc3ejlBxD5INAySDSvyyEcAkh+wJdHXeZQ5KkYnGAJUlS0cUY6BnYH/g8gTcaRHpZwwR+TDnOIO24wxySJBWDAyxJkoqsd97eZNnpBFqNIa2QjMBPIemia/xfzSFJUr45wJIkqYh65k2COB3insaQVsmyQVa5fArpxL+bQ5KkfHKAJUlSkfTMbYekE3i7MaSKWkrgR5STlHT83eaQJClfHGBJklQE6cAuJLEXB1dStS0Bvk2pNINTWx8yhyRJ+eAAS5KkPEvnbkFSOh3i+z1uSzW1kMDZlEtnk7YuMockSfXlQliSpDw6++YxLHr+BAKfB0YZRKrbcvmfkE1j2/suZMqUsj0kSarTEdkEkiTlSBoTkoGDgTOBjQwi5WXVHG6E8nF0TfiDMSRJqsOh2ASSJOXEtL7JJOEcIrsYQ8qreC0kx9DddrstJEmqHQdYkiTVW2/f1sRwNvAuY0iFsJTI14gxJe141hySJFWfAyxJkurlvMERPFo+lsg0YDWDSIXzEHAS3e0XmUKSpOpygCVJUj1MH3gjWfwWsJ0xpMKbRUg+Sdf4v5pCkqTqcIAlSVItpXPWJWk5HeLHPQ5LDWUxkbNYZ93TOXrrJeaQJKmyXDhLklQLMQZ6Bz4MfBFYzyBSw/o7MX6KqR3XmEKSpMpxgCVJUrWlfdsTwnkEdjeG1BQigYsojzyGdNenzSFJ0qpzgCVJUrWkMaHUfxQxnIkPaZea0cPE+AmmdlxuCkmSVo0DLEmSqiGd9xpC9l0CbzSG1PQr7p9QLn+CdOKTxpAkaeUkJpAkqYJiDPT0HUGS3eLwStKy/QIHkpRuY9rAO4whSdLK8QosSZIqJZ27BUnyHWCyMSS9xOr7YkYu/TQn7v6cMSRJWpFDqCRJWjUxBnr7Pw7hC8AaBpH0CuZDOJTututMIUnS8nGAJUnSqkgH1yMpfw94mzEkrYAyhNPIFvaSTh42hyRJL88BliRJK6tn4E0QLwFeZQxJK6mfwAfoar/HFJIkvTQf4i5J0oqKMdDb91mI1+DwStKqaSdyE9MG3m8KSZJemldgSZK0ItIbNiBpuRjYxxiSKrwyv5hy6ROkrYuMIUnSfx8mJUnS8pk2sBch/gDYyBiSquQOKB9E98RbTSFJ0v9xgCVJ0itJZ7WQjD4NOMFjp6QaWEjk40xtv9QUkiQt4yJckqSXM6N/HMP8GNjLGJJqvFQ/nw2Tz3Bk61JbSJKa/qhoAkmSXkI6sAtJ/DmwhTEk1cn1ZGEKadvDppAkNTPfQihJ0ouZ1v8BkngDDq8k1dceJHGQ6X0dppAkNTOvwJIk6d+ls1oIo6cTONEYknJkCTEcxdS2b5tCktSMHGBJkvT/zbhxfYaHZ0Lc0xiScilyHnHs0aQ7DBlDktRMHGBJkgTQM29XyH4BbGYMSTlfwv+BbPi9pBOftIUkqWmOfiaQJDW93r59iOEnwJrGkFQQfyckb6dr/F9NIUlqBj7EXZLU3Kb1H04Mv8bhlaRi2YqYzWH6wBtNIUlqBg6wJEnNKcbAtP6UwAVAi0EkFdC6ZPG3TBv4kCkkSY3OWwglSc3n3LtW45knv0vkA8aQ1AAikR6mtqemkCQ1KgdYkqTmkg6uRyhfTmCiMSQ11so+fJcNkiM5snWpMSRJDXeYM4EkqWmkc7YiKV0JbGUMSY0pXknW8j7S1kW2kCQ1EgdYkqTmkPZtT5JcA3ETY0hqaDEOMCLszyntTxhDktQoHGBJkhpfz8B4iFcC44whqUncTlLel86JD5pCktQIfAuhJKmx9c7dE+LvcHglqbnsQFa6nnSOt0xLkhqCAyxJUuOaNvAOYnIlsIYxJDWhLUlK15P2vd4UkqSic4AlSWpM0wY+RIg/A1Y3hqQmthFJ+APTB3zzqiSp0BxgSZIaT2//UYR4MdBiDEliHbJ4NdMH3mgKSVJROcCSJDWWnr7jiZyLLyqRpH83liz+mp7+PUwhSSoiF/eSpMbR2/dZYviyISTpJS0iZG+ja8IfTCFJKhIHWJKkxjBt4OOEeJ7HNkl6RQsJ2dsdYkmSisRFviSp+Kb1H07g2x7XJGm5OcSSJBWKC31JUrH19H0UwrfxuY6StKIcYkmSCsMBliSpuKb1HUYIF+DwSpJW1nMkYT862+aYQpKUZw6wJEnFNK3vw4TwPRxeSdKqeposvom04xZTSJLyygGWJKl4pg28gxB/BrQYQ5Iq4lEy9iBt/5spJEl55ABLklQs0/s6yMK1wBhjSFJF3U2ptDuntj5kCklS3njbhSSpONJ5O5KF3+DwSpKq4TVk5d9y+vXrmEKSlDcOsCRJxTB9YFOS7DeAJ1aSVC2RHRka+RvOvtlfFEiScsUBliQp/9LB9cjiNcCmxpCkKgt0sHjJz0lvH2kMSVJeOMCSJOXbmbPXIJSvBLYxhiTVSnwLpQUXEKPPzJUk5ULJBJKk3EpvH0k2/EtC2N0YklRzO3Pdg/CHC/5gCklSvXkFliQpv8KCcyHsbQhJqtd+mG6m9X3YEJKk+h+SJNVXOjialmwcWViPUF6fLIwjxDUIyRoQW4iUiKy57Cc2joJk9X/9t5HFEJ9/4cc5I4nPEHkGeJbAs4TwLMPZ05A8CuMfJQ2ZwVUYPX3HQzjbEJJUd0tI4t50dsw2hXIvxsC0OevDyA1oietSjmsAa5KwJrA2WVgLYvKia2viEJGFACQ8BwwDGTE+Q0wWkvAEIT4Ow48xPPQE6eQFBpdqxwGWVE3p4GiSbEtC3JLIFsCWELeAsDmwITAOGFWjryYDHiXwKJF/EngQuIeMuwnZ3WTZPaSTHnWjKRemDbyDEH+BVwpLUl48TlaeQDrx76ZQndfX65FkWwLL1tgZWxLYlMAmxLABxA2Alhp9Nc8DTxB4jMi9xDCfJLsH4j3EeA/ZknscckmV4wBLqoSzbx7D4kU7EkuvB3aGuBOBbVg2pCqS54A7CeE2YnYHIbmNcnIHaet9bmTVTE//zsBsYKwxJClX/sqIoQmcvMdTplDVTZ/zKmKyA4QdIG5HFnYgsD2wdsG+k8eBu4jcQhJuJoZbyMq3knY860aWVowDLGlFpbPGEsa0E5gAcWdgZ+C1NPaVIk8C8yDOIzJIHJ5Huvs//TCo8j9fAxuRxH5gM2NIUi7NIhu7H+kOQ6ZQRY//pdhKRiuBVqCV4v0ieEVEYD5wM4RbiKGP1cIcTmp9xg+D9NIcYEmveECdvQlhxCQIkyBOIrALtbssOc8eAP5I4I+US9eRtt5pEq3az9qs1QmjZxHoMIYk5dp36G4/3Axaab19WxPZgxDeSGQP4DVGISNwGzHOhnADWWm2d0FI/8kBlvQ/J9F9a1JK9oZsP2LYywPqcnsEuA64hixeRdrxgEm03GIMTB+4hMgHjCFJRTiLiJ+hq+PrhtByOa1vQ8phX2BfYDKwsVGWywMEfkcWriQOX0M68UmTqKkPPSaQgJ45OxFK+xF5K7A7MMIoq7x7uZUYr4J4JRu1zObI1qU20Uv/DPrGQUkqmCGSMJnOtjmm0P9IY0IyOAGy/QlhP2Lc1XPPVVaG2EcIV1LOrmRqx02EEM2ipjrDNIGa9qDaMm93suz9EN4BbGqUqnoK+BUx/ow1st9y7MTFJtG/9Ay8CeK1eGuuGs+zy044AFid2r11VqrVqcQ/yXgDadvDthDp7SMJCyYTwnsgvovGfoZVHjwMXEGMM9nuvt8zZUrZJGr4o44J1DRiDJzW306WvB/igcCrjFIXC4DfEOJPKC++gnTy8yZp5sXu7E1IRvwJ2MgYyqHFwHyI84FHiDxBwhPE8BiRJyiFJ8h4goRnKS1Z9pr0MRst4uitl7zsn3rm7DXI4rKB7ZLV1yFhLWJ5PQLjCIwjMg4YRwjjyNiUwObAq4GSm0Q5dD0blvbySutmPY7PaiGMfQuh/EEIb6d4bwhsFI8RuYwQfkw2/nrSkJlEjcgBlprgwNr3ekI4mMCBwBYGyZWnIcwkyS7m1PYbvAy6yZw3OIKHy78nsLsxVEfPQryVGG4jcDcx3Esoz6cU5nNqxyO5+nl5tPxqsrgFIdmcGLcg4XXEsCPEbfHWd9VVPJfujs/aoYn0DIwn8iFCPAivtMrbKf4/IbsM4g/pntBvDzXUp9sEakhn3zyGRc8fBPEIQmgzSCHcTeAiQvkCOic+aI6mWPx+CeIxhlCNZMCdhHgrcDNZchuxfCvphPmF/87S20fCc9uShB2JvJ7AThB2gbiJm101E8PBTG27xBANLB1cj1L2EWL2MQjbGqQQZ/u3EPk22cgfkO76tEFU/I+01FAH1r7tCeEQAh8H1jVIUU8y4++J4Xy2u/dn3s/foHoGpkD8sSFURQsh/pkYlr2OfEScwyntTzTXMXH2JoSRb4A4iRB3hzAeGOlHQ1XyPFk2iXTCjaZotGN23xsgOQLih/FZfsX9+Qz8CpLz6Wz9nXc9qKgcYKn4zr1rNZ564oMQPkWg1SAN5R4C59EydD4n7/GUORpE79ztiMkAMNYYqqDngN8D15KF2Ww//1YH4P8lnTWWMKYd4h7AvgTG43O1VFl/I1v0BtLJC0xR9P3F4OhlV1vFzwLbGKSh3E6I32T1Ud/jhJ0XmkNF4gBLxXX69eswPOITxHAUsLFBGtoCIt8lKX2FrtZ/mKPgC+KkPA/Y3hhaRZHAzWRcTZJdxQYjbvAh0iv68zhnXZKWvQnsR2RfbzlUhX40v0d3x2F2KKjpc15FlnwGwhF4N0OjewLiNynxtVw981F6GQ6wVMAF99wtCKVjCPFwvIKj2ZQh/IIk+wKdHX3mKKBp/d8g8ElDaCUNAb8lxp/R0nIVp7Y+ZJIK6unfmRD3J4YDgV0NopUW+SBT2y81RJHW133bUwonETkIXwrRbJYQ4kWUW84hbb3THMozB1gq0oH19ZQ4hRjeC7QYpOl3X9eQZD10dsy2RUFMG3gHIV7usUcraAi4lshM4sjLfQhtjfT2bf3CIGsKsLNBtIKeIUt2Ix1/tynyvr6euxtJOBXCAUBikKaWAb8miTP8RbFyewZoAuX/wDq4LaXh9IWFtAdW/bdZhKyHrgl/MEWOnTa4MeXyzcD6xtByLqKvJcYfMXLpL3wGXr2Pw/2vIwlTIPuQbx7Tcov0sVHpjd7am1PT+zrI6IbwVmPoRVwBSTfd428yhfLEAZZyvGCe9xqSbCrwIXzIrF55d/YHKJ9E94R+W+TtJCYGegeuAvYxhl7BAxC+Q7L0O3ROutccuTzp3Z0YPkbkQGC0QfTy+/9wOlPbTjFErtbXO5Jk04F3GUOv9BMM4WfAVLrbbjeHcnHGZwLlb3E8sCkZnRAPw3vwtcIH2vhzspZTvYc/R3r7P0fkHEPoJSwFriDEC9jmvqt9c2BBnDG4FkuzDxLj4cAbDKKXkBF4C13tvzdF3Y/FWwLTiHwI72jQiv4cw48IMaWr4y5zqJ4cYCk/zr55DIsXnwThOGCUQbQKhgnxuyQtU33Ic5319O8M9AOrGUP/5RGI3yBLzidte9gcBZbO3Y0k+SxwEDDSIPqv041/0hJfzyntT9iiHj+fN61NMtQFfMafT62ipcTwDUYumeat/arbEcUEqrsYAz3zPkiIZwKvMogq6DlgOtnYL5PuMGSOGjtnzigWlAaB7Y2hf3MH8CWyRT8gnfy8ORrpRHn2JiQtR0E4EljHIPq3M45L6Go/2BA1NHNmiTs3/zjQg8+fVGU9DnSx7b3f9qpp1f5wItXT9HltZNmXgQnGUBXdReBYutqvMEUNTev7AiEcZwi94HfE5It0t15FCNEcDSydNZbS6MOIfBZ4rUEEQIwHMLXjckPUQG//m4nhyxB3MoaqOEm4hSwew9SOWcZQ7T52Uj2c1rchWTiTyCF+DlXD1fOVhPBputrvsUWVTe/rIAuz8QUMTf9DB+FXEFLfZNSEZs4scedmBwJTfXuhgIdpYUdvJaz6+vqLLzznSqrVof5nJOVjffmKasHBgWpvWv+BBL4BrGcM1cFiImcRx87wtsIqOfeu1Xj6yT8BOxijqRe010JyCt1t82zR5NKYEAbeS2A68DqDNLUf0t3ucKXiu9sY6B34MPBF19eqk0UEetjm3i94W6GqyQGWaqe3f0si3wL2MYZy4GaS5Ag6xw+YosJ6+k8DfG16855JXQuhm+72ubbQf0hntZCMORhiN7ClQZr27OPddLX/whCV+rnq254Qvk1gojGUA3MhfJzutttNoeocQqRqW3YLwVEQpgNjDKIcKQNfYWy5k2MnLjZHJRbSc3cjSfqBFmM0nXkk4Xg62/5oCr2s8wZH8Ej5cGAasIFBmo63ElbkeDurhWTM8RBTfNOv8mWIwAzKY0/3bgdVmgMsVfng2rc9SfgO0G4M5dhfSJJDvRqrIiel84CdjdFUHgROIWv7AWnIzKHldsbgWgxlnRCPBkYapKl4K+Gqrq8D3yWENmMox24nST7q+lqV5ABL1RFjYHr/p4jhbGCUQVQAw0TOJI7t8bdFK6m3fyqR1BBNYzHELzJq1BmcsPNCc2jlT8bnbEVSOhs4wBhNdRbyDt8OvKI/KzEhGTge6MGrrlSU9TVhGtvOP91nY6kyhw6p4gfXGzYgafkO8DZjqIBuIiQfoGv8X02xAnrm7ASlQbyKolmWDz8iS04kbb3PFqqY3v43E8OXIe5kjKYwn6y0A2nrIlMsh+lzXkVWugh4szFUQNeTDH/YNxVqVSUmUEVN63sLScufcXil4tqVmN1Eb99nTbGcYgxQ+ioOr5rBPUT2o7vtAw6vVHFd7b8nW7gbIR4DeFVf49uCpHyqGZZDb/8BZKWbcXil4tqDrOUWegYONoVWhVdgqTLSWasTRp9F4DN+rtRAfkgWP0na8awpXsa0/o8Q+J4hGlqZGL9MbOn2agnVZl0xZyuS0nmesDe8IUK2C10T/mKKl1hfJ6O/BHzCGGoYgYspx8+4vtbKfXykVT64zt2CUumnxLibMdSA/k4WDiRt+7MpXuzn/6a1SYbuBDY0RsOuFP5MjB+ju+NPxlBNxRjo6T+UEL4ArGuQhjWLrra9CCGa4t/09m8J4TLX12pQfyOL7ybtuMMUWhHeQqhVM63vLSTJoAdXNbCtSOIcpvV92BQvIgz14PCqUS2BcDLlReMdXqk++5cQmdrxXUpxe+AygzSsyfTO842E/663/+1E/uT6Wg3sdSShn2n9B5pCK7Q0MIFWyrK3DJ5EDL1AySBqEl8jG3ucbyl8QTqwC0kcdB/QkG4HPkR3+82mUG4su135XGBNYzScR8hGbku669NNXWHmzBJ3bt4DnOx5mprlrBLCF8kWnkw6edgceiVegaUVd+bsNejtv4wYZnjiqibzGcKCWZw2uLHLjRgI8evuAxpwIRn5KmPL4x1eKXemtn+fLNkVmGuMhrMhyZLTmrpA2rcmd25+OXAKDq/UPALE40lGX82MG9c3h5bjAyOtgN6+rYn8EsK2xlATu58svLOpn4vVM3AoxO/6UWgoDxPCYXS1XWUK5ftEf1YLpdGnEukEWgzSMDJIWukef1PzfabnvYYk+yWwgx8DNff6OjuAdMKNptBLcYClFThhnTcJsl8A6xlDYgEh+xBdE37ZfAvtm9YmGforsIEfg4ZxBS0jPsopuz1mChXG9L4OsvBDYEtjNIzf092+V1N9x71z9yQmlwHj3PwSC4gcxNT2X5tCL8ZbCLV8egamQHYtDq+k/28sMfk5PX3HN9+RY+mpOLxqFBmELrra3unwSoXT2dFHVm4FvGqwcbyZaQPvaJrvdlr/R4jJb3F4Jf3f+jpwOT0DnzKFXoxXYOmV9fafSOR0Py/SS4h8k+3uPYopU8oN/71Ov2FzspY7gdXd8IX3BJEPMbX9alOo0NKYEPpTQuh0rdIQB9U7yRbv1PAPdO4Z6ITY42dWeinhC2TjTyQNmS30r0+FCfSSZs4scedm50JwAi69sssZW/4Ax05c3NDfZW//D4j4uvPiH/3/TDl5L+n4u42hxtk/9e1PDD8A1jFG0fdR8TN0dXy9cdfXm38N+IQbWnpFPycrHUzausgUWraElV7MOXNGsaD0E+BtxpCW23VkIw9o2NeAp3N3I0nm4e3nBRe/x9jsUw0/bFVzSudsRan0UyKvN0ahPcbI0tac1PpMY30+B0eTlH8MvN1NLC3vsoU5xJFva9j1tVaIJyF6kYPrrLEsKP0ah1fSinoTpaHrOG1w48Y8YiRnedwotAziCXR3HObwSo27hpn4d8qLJgFXGKPQ1meofEpjfTb71iSUr8ThlbRiAhNJhn7PjBvXN4a8Akv/dXC9aW3C0K8JTDSGtNLuIbAXXe33NMx3tOzWHN8IU1xLIB5Kd8ePTKGmMHNmib9s/iUCRxmjsIYIpe3pav1H4b+T069fh6GRvyHQ4WaVVla8kyTbm86JD9qiefmbdP2fdHA9Skt/5/BKWmVbEvk96bzXNMyJYEzOcLMW1qMkcU+HV2oqU6aUmdp+NIFjAR8AXEwjieWe4q+vBzZi6WrXObySVlXYlqx0HencLWzRvBxgaZnTBjcmKf+BGHczhlQRW5Bk15H2v67w38lfNjsE4k5u0kL6K1kygc6OPlOoKXW1f4nI+wAfAFxMB5H2bV/Yrz6dvQlJvM5jqFQxryVJ/tgQ62utFAdYgulzXkW5/EdgB2NIFfVqEq4jHdy2uIvv20cSQuqmLKDIbLLyRN80qKY3tf3nJMlk4HFjFPBcJQlTC/mVnza4McmI3wOeaEuVtSkJ19E7dztTNONBQc1txo3rk5V+C2xlDKkqNiIp/4HeedsU8yix4KPAZm7Gogl/IC56K+nEJ20hAZ3jBwjZGwGfnVI8B9LTv3OhvuL0hg0ol68BtnHzSVVaX8fkmoZ5XIeW/9TEBE3sjMG1KA9fBWxvDKmqNiRm1xTunv3zBkcAJ7r5CufXZAvfSjp5gSmkf9M14S8E9gC8KrFYAsTuwny1M25cn1LL7/DOBqnaXkWSzWL6DZubonk4wGpWZ988hiXlK3zmlVQzm5Ik15DO3qQwX/Ejw4cBW7jpCmUmG5beTTr5eVNIL6Kr/R6y0mTgb8YokvBuegbG5/7LTPvWpDx8FZEd3WZSTWxG1nIN6cBGpmgODrCaUTo4msXP/5rA7saQamorkhHXMKN/XO6/0vMGR0A42U1WpPO78F22vfeDHNm61BjSy62DWu8jC28icJsxirOHAzrz/bmatTpJ+KW/HJZqbmtK8WrSOeuaovE5wGq6RdvtI0nKPwPeZAypLrZnKb8kHRyd66/y4fIhePVVkc7tzqdz/OFMmVK2hbQ866G2hymxJ4FbjFEU8R1M72/N5+dpVgvJ6B+5vpbqtXvg9YTkSs6cvYYxGpsDrKb6wY6B0oILgH2NIdVRYCJJ+Ueks1py+fWdNziCwCluqMLs3H9ANv6ThBBtIa2AU9qfoDz8FuCvxijI0TNjWj7X12POB97lJpLquYcIbSxp+XFu19eqCAdYzaRnYCqRDxtCyoV3kIz6LjGG3H1ljwx/GPCtLsXwC7LFh5GGzBTSSkgnPUpS3gsf7F4U+9Mzb9d8ra/7pxHjYW4aKQ/CW0lGf9MOjcsBVrOY1v8RAt2GkHJ1kD2Y6QP5+rmcObMEwauvCiFeSTb2/aSTh20hrYLOiQ+SJW8BHjRGEZSPzdf6OnS6TaRc+Ri9/b5Fu1HPnkzQBHoG3gTxamA1Y0i5E4GD6W7/YU4W4wcSmOlmyf3H5gZGjdqXE3ZeaAupQnr7tiaGPwK+zSrfhkmGt6Jz0r11/SqmD7yRLP7W9bWU0/V1DB9matslpmgsXoHV6HoGdoD4Cw+uUm4F4AKmz2vLyVfzOTdJ7pdkg2SL93N4JVVYV8ddZOGtwHPGyLUWyi2fretX0Dt3OzLX11Ku19chXkDPvEmmaLwTJzWqdHA9kvI8fJOYVAQPkYR2Otvur9tXMH1gIlm8wU2Ra/eShQ7StodNIVVJ78B+xPgrwAcB59dzjBjanJP3eKrmf/Pp16/D0pEDwFZuBin3HifLxpNOmG+KxuAVWI1q5swSyfClOLySimJjsng558wZVbevIONYN0OuPQPhbQ6vpCrrarsK4qcNkWtrMDziE3VZXy8dcQkOr6SiWI9S6ad1XV+rohxgNaq/bH4ahL0NIRXKriwsfbsuf3Nv/5YQD3AT5NZSYjyQ7rbbTSHVQHfH+cBZhsixGD5LOmv1mv6dd242HcJbjS8VaV8Rd6vb+loV5wCrEU3rexeBzxtCKuJBlg/RM/CpOvy9xwIlN0BOBY5iasc1hpBqqKvtJOCHhsitDQmjP1S79XX/uyH4ZjPJ9bXqyAFWo+mdux0hXIzPN5OKfJT9EtP7Omr2151+/TrAoXbP7aLrNLrazzOEVGMhRLJFhxPpM0ZetxHHEmP117zp4LYELnJ9LRV8fd3TP8EOxeYAq5GkfWsSw8+ANYwhFdpIsnAZM25cvyZ/29LVjgTGmj2XfkNs6zaDVK+11eTniUvfC/jsuXzanul9b6rq33DOnFGUyj/2OCk1wPqacBnpwEamKC4HWA21NZPzIGxrCKkhvIrhpd+r+m+WZ84s+bDi3LqbEUMHk4bMFFIdpbv/kyS8Hxg2Rh6F6j7MfWHyFSKvt7PUCOImJPEHpNE5SEG54RpFT/8hEA8yhNRQ9qe3/7NV/Rv+uunbgFebOneeJ8sOrMsr4iX9r862P/p80byej4b3kM7epCp/9rSB9xPDx40sNZS9KA0cZ4ZicoDVCNJ5rwG+agipEYUzSOfuVr2Ff+LCPJcnZPEI0gk3GkLKka72LxHijw2ROyNIRn604n9q7+BrCdE3l0kNuc5ielXX16oaB1hFl85qIcl+AKxpDKkhrUaSXEo6q/LP3pg+sCng68Dz52tM7bjYDFIOlRd/DLjdELk7G/34slviK2TmzBJZ+SJ8rqzUqEaSJD/k7JvHmKJYHGAVXRjdCfg2BamxvY4w+guVPxGLhwMl8+bKn8jGelm7lFfp5AVkpfcBi4yRK5u9cEt8Zdy5+YkEJppVamjbsHjJOWYoFgdYRdYzbxKBUw0hNYHAEUybV7mrpWbOLBE4zLC5soisdDDpDkOmkHIsbb2TEI43RM7E5JMVWl/vCkw1qNQUO44j6BmYYoficIBV2MXT4GjIvge0GENqCoGQnU9609oV+dP+ssX+wGZmzZXjSFvvNINUAJ3jvwX8yhC5sg+9g69dtfX1rNUh+wEw0pxSs4hfIx1czw7F4ACrsFsumwZsZQipqbyaZOgrFfmTQjzCnLlaPF1JV9t5dpAKIoRIy4jDgYeMkaPzmqy8alcWhzHdwPamlJrK+pTKXzZDUXb0Kp6evjdAPMYQUlM6hN7+t6/Sn+DD2/PmEbLyoYQQTSEVyCm7PUZMDgf82c2LwMHEGFbqv00HdiHEE4woNaHIh+jt298Q+ecAq2jOGxwB4UK8dVBq5oPs11fprYQxHoIPb8/P1gzxo6STHjWFVEBTx19J5GuGyI3N6Z33xhX+r9JZLZRwfS019YosfJMzZ/vm0ZxzgFU0j5RPAHY2hNTUNiMZPW0V/vuDTJgTIXyPro7fGEIq8klP6STgH4bIzQY5eIX/k9KoE4hxN9tJTb6+fn7EaWbI+dLZBAXSO28bYvZnYHVjSE2vTJa1kU64cYX+q57+nYE/my8XHiErb0868UlTSEVfo/XtQwxXGyIXnmFseWOOnbh4+bZd/5ZEbgdGmU5qehlJ2IPOtjmmyCevwCqSmH0Th1eSlimRJOczc+aK3gr4QdPlZqd+jMMrqUF0dfyWwMWGyIW1WNDyjuXfFYcv4/BK0jIJWTyfdJa3E+d2A6kYpvUfCEw2hKR/8wb+usXyv01w2YNt32+2PIhX0t3xIztIDaTE5wCfZ5ePfeyHl3N9vS/Ed9pL0r/ZgdLoT5ohnxxgFUE6a3UCZxlC0v+u0eN0ZvSPW65/d9mDbTc3Wt0tJIRPm0FqMKe0PwHhOEPkwn6c1rfhy/4b5961GoFzTSXpf9fXTCMdXM8Q+eMAqwhKo48DtjCEpBexLkuZunwH4/gBc+VA4GS62u8xhNSAutt+APgsrPproZy8/BXHTz91AvA6U0l6EesQstQM+eMAK++mz3kVkZMMIeklBT5Fz5ydXvbfOW9wBIH3Gavu7qC86JtmkBpYVv4MMGSIum+IKS/5P53WtyHEz9tI0kuvr+MnSPteb4h8cYCVd7F0OjDWEJJeRglavviy/8ajS98KjDNVvRdDyWdJJw8bQmpg6cS/Q/iGIeq+w51AOrDRi/5PGb3AGjaS9LLr6yScY4Z8cYCVZz1z24kcbAhJryy+hWl9b3mZ3b1XX9X/ZOqXdI2/1g5SExixpAd43BB1Ps9J4gH/80/TeTsSw0fNI2k57MW0vneZIU87duV588wAgh0kLZcQziaN/7tfnzmzRGR/A9XVEFk8wQxSkzh5j6cgTDVE3b37f5fX2dlAyTSSlnN9fdqLrq9VF26IvJrWNxl4syEkrYCdCfMO/J9/+tdN98DbB+vta6TtfzOD1ESyhecTuM0QdTWZ069f57/W1/uZRdIK2IEwzxch5YQDrLwK9BpB0orvO2Iv5w2O+I9/Fkte+lxfj5GNdJ8uNZt08jBZPNYQdTWCoRFv/7eDZI9JJK3E+noq6awWQ9SfA6w8mjbvrRAmGULSStiaR4YP+89/FN9plnouesKZpLs+bQipCU3tuAb4vSHqug9edhvhtL63ENjdIJJWan2djDrEDPXnACuXyqkNJK3Cav1U0ttHAtAzZyfgNTapm4cpJ980g9TMq+3QZYS62o+zbx4DodsUklZhfd3NuXetZoc6H1JNkDO9/QcQQpshJK2CzUieW/YG01Dy6qv6LnZOJ21dZAepiXW2zQGuNkTdjGLx81/26itJq2hznn7qcDPUlwOs/PGNNZIqIJxMOquFzNsH6+gBsoXnm0ESSeLVP/X1MRNIWnXxlH/d5aD6HE5NkCO9ffsQ2cUQkipgK5LRxxLCeFPUSQgzSCc/bwhJdI4fAK4whCQV2qsIC3wjYR05wMqTGI4zgqQKmgEEM9TFvZTHXGgGSf+SZVOBaAhJKrCE44nR9XWdGD4v0r7Xk4Q/u02a3qPEOJ8k3EvkfgKPkvE48CRJ8hwAkcUwPExoWeOFFfHqZIwjMA4YR2BTIlsAmwOvxkG1VIeja/wMXR1fN4Sk/9DT/2tgf0NINROBByHeSwjzyXiAJDxG5AlC+UloWfacylBeAElCDKOXLa/LYwiMI4RxxLDBsjV13BzYEtjIrM3+qUr2Z+r4Kw1Rey0myIkkHIfDq2ZzN8Q5kMwjxNsol24hbX28on/D2TePYfGS7Ynx9RB2JcSJwE7+7EtV9SSrj/qeGST9j8AXiQ6wpCrJCNwBcS6RQQi3ksXbSTuerejfcvr167B05I4QdoJsPNABYRvP5ZppX54dDzjAqsthVPU3fc6ryEp3Az4QrrE9TOBqMq6mJf6eUzseqctXkc4aSxg9CdiXwL7A9m4aqaJm0N1+qhkkvaie/huBXQ0hVcTfieFq4GpWS/7ISa3P1OfI3z+OpXFPEvYlhn2Bzdw0DS7L3kA64UZD1JZXYeRBufRZgsOrBnU/xJ+T8BNObb+BEOr/7It08gKWvc572Su9p9+wObF0AJEDIUzEwba0KoYolb5mBkkvKYYvEuIPDCGttDuI/IQYZ5J23JGLr+iU9ieAn77wf9AzsAMxHkhgCrCdm6wBlZLjgQ8aorY8Ua23c+aMYkHpQWAdYzSMxRB/SogX0tlxXS6GVsurd942xOyjwCF4f7+0MkfV79PVfqghJL2k8wZH8Ej5bpY9p1LS8nmSyCXEeAFpxy2F+sp75rYTwuHEcBCwhpuyYQxTKm3Gqa0PmaKWS23VeYfWfwjwfUM0hPuBrzFi6NucvMdTxV9cZ++HeBKwg5tWWi6RLO5SuIW1pNrr7T+ByFmGkF7xdPVWyL5MtviHpJOfL/S3ks4aS2n0x4kciwPsRnEq3e0zzFDDPYIJ6mxa//UEdjdEoc9Z7yQm09komcmRrUsb61uLgZ7+dxLCyUC721p6Wb+ju31vM0h6RWcMrsVQ+QFgrDGkF1uDMpsk9tLZfk2h7mZYHuntI0kWHAJ8HtjajV1o95C1bUUaMlPUhgOsuu68+rYnCbcborD+DmEa286/lClTyg3/3fb2v5kYuiDu6aaXXvSQ+n6622baQdJy6em/EPioIaT/0E+MXUztuKbhv9OZM0v8ZYv3kcROIju66Yu6/Iv70tXxW0PURmKCen7YkyOMUEhPEziJtdfdke62HzTF8Aqgq/33dLdNJoZ3Avf6MZD+wxOsvc7lZpC0/KvwcKERpH95APgIXW0TmmJ4BTBlSpmpbT+mvGhXQjwGeMaPQSFP6j9mgxrWNkGdpLNWJxn9ILCuMQojQvw+WcsJpK2PN3WJs28ew6Lnuwh8DnyDpgScQ3f7cWaQtEJ6+m/DZ02quQ1BPIux2QyOnbi4uc8PBzYiyc6G8CHP0wtlKaW4Kad2PGKK6vMKrLqVH/M+HF4VyT+I4S10dxzW9MMrgBN2XsjU9pPISjsDv/PjoaYXsguMIGnF9x14FZaaV6SPLHkD3R1dTT+8AkjbHqa748MkYU8Ct/kBKYwRZOFQM9SGA6y6yT5ig8KsLn9KNrKVqW0Oav7nQNt6J11tb3nhsuchg6hJF+Cz6ZrwF0NIWmElLgKWGEJNd+QknstGpTeSjndQ89862/7IWuu2Qjx3WSvl/xMdDzVCjc7MTVAHM25cn+Gl/wRajJFrzxPiSXR1fMUUy2F6fysZPwJeaww12TL8UKa2f98QklZKb9+PiOH9hlCTeIwQDqGr7SpTLIdpfe8ihO/gnTsFUH493RNvtUN1eQVWXT7bw+/D4VXe3UGWjHd4tQI62wfJRrZC/Jkx1EQWMXr1y8wgaaVlJQfgaha/Iwuvd3i1AqZ2XE6WvYEYB4yRc7HkLyJqwAFWXT7c0Q93vv2QrDTeS5pXQrrr03R3vPeFWwrLBlHDC/yaE3ZeaAhJK22jcC3wpCHUyGc/EHrI2vYhbXvYHCu6vp4wn41adifyVWPkek3oOX5NMqu2ThvcmHL5fqBkjFweX8+lq/0YQvB+81XV27cPMfwEWNMYatyjaDyQrg6vwJK0anr6LwQ+agg1oCEIh9Pd9gNTVMC0gY8T4jfwbp68nku20t3xJztUj1dg1Vo2PAWHV3lUhnAY3R2fdXhVIV0dvyULbwJ8pawa1ULKLb8xg6RVFsJPjKAG9CxJeIvDqwqa2vZtYngP8LwxcsjnGVadA6xay8JBRsidpYR4EN1t3zNFhaVtfybjjcD9xlADnnH+irR1kR0krbLywmuBxwyhBvIUZPvQ2fZHU1TY1LZfkYR9geeMkbelIQcRo3e5VZEDrFo6bXBjAu2GyJUhAu/xFqAqStv/Rpa9EbjXGGooMXO/IalCx8rJw8DlhlCDeJws7kn3hH5TVEln2x9Jwn7AAmPkyqb09u9mhupxgFVLw8P74XPHcrVFCOEDdLVfYYpqL8wnzCcr7Qc8bgw1iAWskXn7oKTKCdHbCNUInoZkH9KOW0xRZZ1tc4jxPcCQMfK0L0/2N0L1OMCqae3wViPkRkYMh9LV9jNT1Ejaeidkbwd8Y5sawbUcO3GxGSRVTHmNP+AtQSq2hSTxrXSPv8kUNTK14xoihwKZMXIiRs/5q8gBVq3MnFkispchciJwClPbLjFEjXVP6CeGdwFLjKGC70OuMoKkikp3GAJ+bwgVVEaMH6Kzo88UNTa1/VIIRxkiN9qY0T/ODNXhAKtW7tx8IrCuIXJx4nkhXe1nGqJeB9m23xE5DH9TpELvR4YdYEmqwr4lXG0EFfTD+zmmdvgct3rpbvsGMZxuiFwoMRzfYobqcIBVK9HbB3NiHuWxnzJDnU1tv5TI2YZQQf2Fzkm+lEBS5ZXLVxpBhRO4lO62cw1RZ93jT8WXQeTlh8Jz/ypxgFWzz3D0YW719zSB979wib7qLS7qhHiDIVS8z663D0qqknTCfOCvhlCB3MXIpUeaIQ/nmyEyYugwfPN3HryVNDprqQKj1sJpfRsCrzdE3Xfqh9PVfo8h8rJInzxMknwAeMIYKhhv8ZFUPTE4JFdRLIbyezlxd18+kBcn7/EUJB8Cho1RV+tD3y5mqDwHWLWQJZOAYIi6+ppvHMyhzrb7ieEwIBpDhVmsx0XXmUFS9fgcLBVFPIbuibfaIWe6x98AocsQdZaUdjdCFbKaoBb79jjJCPVcB4YbWXvd4w2RU1PbfkXky4ZQQXYo/aSTn7eDpKpZfclsoGwI5ftwGH9Md8f5hsipbPxZeMV4vYcAzgCqwAFWTT670elrHXffRD7B0VsvMUWOrVE+FbjbECrALmW2DSRV1bLbsW4xhHLsSUojjzJDjqUhIwkfBxYao27eaILKc4BVbefMGUUIuxiibr5Bd9s8M+TcsRMXE7LPGUK5F5hrBEk14EtOlOdj4Smcsttjhsi5zrb7gRmGqJuNSOe9xgyV5QCr2p5LOoCRhqiLRxkx1G2Gguia8EvgCkMoxyLlrM8Mkmqwt5ljBOXUn9jm3gvMUBDZ2C9AvNMQdRLK3kZYYQ6wqv6hTfzQ1i/+icvexKHi7JGGPwMsMoRy6i+kE580g6SqiyWvwFIeZZB9milTfEZbUaQ7DBFK3u5Zv/NRZwGVPl00QdX38xNtUI+FH3PoGv99QxRM56R7CZxlCOVzDeLtg5JqddLZeh/wgCGUswPhBXRP6LdDwXSNvxa4zBB1WTv6LOwKc4BV/U/trjaog1I8jhCiIQpoTPks4CFDKHey6BURkmq4hHSfo1xZSLa0ywxFXcMkJwJLDVFz23LOnFFmqBwHWNWU3rABsJEhau43dHb4nJqiOnbiYohehaX8ifzJCJJqt88JNxpBOToGfo100qOGKOp56fi7Ae9Oqb0Si0o7mKFyHGBVUyjtbIS6hE9tUHDZ4m9B+KchlCNLWXfcX80gqXYDg+RWIygnFhBLXzBD0dfX2Wl4FVYdusfXG6FyHGBVU8ABVu39nu62eWYouHTy84R4riGUo/35Xzl66yWGkFQzpaW3GEG5EMOFpK2PG6Lo6+sJ8yH+2BC1/vlJHGBVkAOsqp7wBD+stT/J/JIRGkR55HnAAkMoH4sPPJGUVFudEx8EnjCE6iwjSb5qhobZmmcDPie4puenXoFVSQ6wqnvC44e1tv5Oue03ZmgQ6a5PA98zhHKy+LjNCJLqwH2P6u1XdLX+wwyNsr7uuAXCdYaoKWcCFeQAq1rOGxwBbGeIWp5gcgFpyAzRSMrn20C5kAWvwJJUDz4HS3VeX0fXYg0nftsGNTWO6XNeZYbKcIBVLY8u3QoYaYiaWUo5+GaNRtM98VbAZ5qp/krDXgUhqfaCV2Cprh5gm/uuNkODyRb9DHjKEDVUTrY3QmU4wKreimNLG9S095WkbQ/boRE3bfiuEVRnizh14n1mkFRzMdxpBNXv88f3mTKlbIgGk05+HuKlhqjl+QzOBirEAVb1+CGt7RHWN2o0qlLLZcCwIVRH8wnBB55KqsNKfel8I6h+J91l19eNu3OZaYNanqomWxihQp9cE/ghbQBLyOIVZmhQp+z2GHC9IVRHnkBKqo/XPfgAsNQQqoO/vfAoBzWibPz1wEOGqBGvwKoYB1jV44e0dq4l7XjWDI28048/NYLqJnKvESTVxbLbt+43hOpw8PuZDRrYshdfXW6IWv04Za8xQmU4wKraCbcDrNq1jlcaocGVMx8gqnruz+cbQVIduQ9SHc4SE9fXjb++cX1ds9ZhCyNUaNdkgiqJ0QFWrTjcaHzpxL8D/zCE6rM/D16BJame5ptANfYc6ydzzdDgRi79Hd6iXCsbkM4aa4ZV5wCrKifbfWsC6xiiRou6ZcMNNb5rTKC6CGVPHiXVcR8U3Aep1v7Aka0ONhrdibs/R6TfELUydgsbrDoHWNVQKm1shJqZY4KmWcHfYAPVZ58+4j4jSKqbLLoPUq3XXK6vm4fr65r9WJWdEVSAA6xqiKxnhFrtCKIH2KbZ1l7Krrrt0R83g6T6rdbjY0ZQjc8QXV83zzLH9XXNzmUYZ4RK7J5UhQ/nsB/OmrUOXvbaLLpa/wE8agjV2LPeRiGpvueX8QkjqIbKDCeDZmiW/UvZAVbtTly9yKUCHGBVQ5asb4QaHWBHl283Q1O51QSqMU8cJdV5XekASzX1d9LWRWZoEumkR4FHDFED3qVVEQ6wqsHLA2t3gD124mIzNNOOP9xmBNX2Mxe9fVBSfa1WdoClWvKXhc3H9XUtOCOoCAdY1eGHszZ7AXe2TbfJo9tcNf7MhSeNIKmuTtr9aWDYEKrRSbZrrWbjL4hr9bPljKACHGBVh5cH1mZv+w8bNN2O/24jqMb7Ga/AklTnY1+IwFOGUE1k0bWW62tVZUnpM7AqwQFWdaxrglrsbH2tdBO6xwSqMa/AkpQHDtNVG6XkXiM0mej6ujbnrl6BVQkOsKpjdRPUZC/gAbbZbFB6ACgbQrVb1CULjSApByeY7otUI0tdXzfdKdXwfCPUYj8enRFUgAOs6ljNBDXZCTxkhCZzZOtSfCucanqUjEuMICkHhkygmlhzg4eN0GRaVneb14YzgkoszU1QBdEPZ034Wulm5XZXLXfonjRKqr8Q3BepFhZw9Nb+4qbZDD3zFBANUXXOCCrAAVZ1jDRBDYzytdJNKTrAUk0Pk540SsrDwc+hgmrBNVYzSicPA88YouqcEVRiZW6CqlT1w1kLn5+0wAhNKPCsEVTDk0YHWJLycPBzgKVarLGeM0LTcn1dfV6BVQEOsKpyvuOHswaWvvBaaTUfBwqq4f7cqx4k5WJn5LFPNeCtqq6vVUXOCCrAAZYfTneyKtjayoGCanqYdF8jyXWPmkPmoLSJub6uPu/SqsTK3ARVUTJB1ZVN0KzCsA1UQ37eJOXg0MdSI6j6n7Po+tr1jqonYeZM5wSrHFHuAIqpxQRNy99eqHZiNsIIkjz2qTkE19fuY1Q9GVOmOCReRQ6wqnPG4yWY7mRVtR8vt71qeZQMft4k5eDY575Irq/lti84ZwSVWJqboBp8U0wNtJBGP7/NyWfMqZYnjX7eJOVhZ+TJpVxjqZrcx1SfM4IKcABQHT4AsSbmrm2DprSOCVQ7mQs6SXngYEE1EFxbN691TVB1DrAqwAFWVfgGj5ooJeOM0JTc7qrlYt4BlqQ8cIClWpzDuMZqRufetRowxhBV5wCrAhxgVeeExw9nTTI7yGhSXoGlWu5oPGmUlAcO01ULq3H2zQ4yms1zz3j1VW14kUsFOMCqCh/iXpvMySZGaDLnzBmFlzirpryFUFIuuC9SbTy/2PV1sykPu81rwxlBBTjAqk7WRTaohbi5DZrMsyM3B4IhVLvdTLKGESTlwJomUG2UXF833VqHLYxQE84IKsABVlV2AvFxI9Sic9jMCM22pso8wKq2vFVZUj6sZwLVRJY5wGq+tc6WRqiJx0yw6hxgVWcn8IQRaiFubYNm2+RxKyOoxit5Txol1dfMmSVgLUOoRlxfN936Ori+rk3oJ22w6hxgVYcDrNrY0QTNtt93m6vWgldgSaqvv2+1rmt21e6wxw5GaLZtHl1f1+Q8JngFVgV4MKwObyGsjc1Ib1rbDB5gpSpygCWpvoYy90OqpZ1M0HQLbIeWtZB4kUtlMqoaJ9kOsGpUmpalrzdDk0hjAsFFlWrNE0dJdV6tR/dDqqXNSOf4xuemWV/P3QJY2xA1EB1gVeSQaIJqfDijH87atZ5ghGbZWw3shG9hUu2N4Zw5o8wgqX5rnbLP4lMtBUpJhxmaZWuXJhmhVq29yKUip4QmqMaHc4Qfzpot6nCA1Tzc1qqPZ0eubwRJ9VtXBvdBcn0t19dFl3kFViU4wKqGMUP/BKIhamLislvL1PgLeHY3gupzpCz7SnFJdRTdB6nWBz7XXE2zvo5u65rtysODRqjA3skEVXDsxMXAI4aoifWhbxczNPoOPwYiexlCdfr8bWEESXXkPki1PvBNJJ011g4NLh3YCPB5wrWRse6695ph1TnAqtp+n/lGqJFS2NcIDW5a367ARoZQfY6UiSePkuppSxOoxkZSGr2nGRp9fRP3AYIhauKfHL31EjNU4GNrgioJ3G2EGsnC/kZo9D1Vsp8RVDdegSWpvotKbyFUHdbXuL5u/PNV19e1c48JKnRaaIKqmW+Cmu18J5LO3sQQDb2NDzSC6siTR0n1kd4+EnCNo3qsvd7DzJklQzTqvmXW6kTeZoiacYBVIQ6w/JA2xuc4GfEeMzTqAXbea4jsYgjV0RYmkFQXpec2d72uOtmQO7fwAd8Nu28ZvR+wpiFqJDobqNyJv6r0IQ1+SGu7U3i/ERr1AJt9wAiqs039LbSkusgcoKue6+vo+rpxz1XdtrXlbKBCHGBVrWz0GVi1FJhE77xtDNFwC6dA5DBDqM5GcsdrtjaDpDqsb3Ywgur4+fsA58wZZYgGk85ZF+IBhqjpz5KzgQpxgFUtnW3zgWcNUcPdQsw+aoYGM73vTcBrDaH672HKOxlBUh12Pu57VE9rs6DlvWZotAlA6YPA6oaooRbuMEKFPr4mqNZ6I0TgdkPU1KH+lqjBxOSTRlBOPoyeREqqw64n7mgE1flD+CkbNNQ+JQCfMERNPcAp7U+YoTIcYFV1B8EtRqipDVhQOtwMDaJ38LWAv/VTPgSvgpBUY2lMCMFbCFVvE+gZeJMZGsT0gXeBtybX2M0mqBwHWNU94XGAVXuff+GV0yq6WD4F8MHZygsHWJJqq9T/WmCMIZSDRdnJNmiUTcnnjVDr5s4EKskBVlXrZn5Ya29TwgLfWld0ad+rgYMNoRx5DWfOXsMMkmq4kHRwrrzYl+n9rWYouN55ewMTDFFjwZlARY+MJqiilpZbgWiIWu8kOJE0+tku9p7pBMAr6ZSvPcvSFi+5l1RDPntPOZJxohGKvkvJTjJCXU5sbrVBJU8TVT0ntT4D3GuImtuO0P9uMxRUesMGED5mCOVv4RfGG0FS7fY5uM9RnryHdHBbMxTU9L4OYC9D1NwSNkz+ZobKcYBVfYMmqIMQziCd5ethi6jUMgMYbQjl72QyTDSCpNrsb2LAW32Ut/PGZPgcMxR0f5IFt1192t/Mka1LDVHJHZGq/am9wQZ1sRWlMSeYoWB6BsYTOcwQyun+3AGWpNqY1r8dsK4hlC/hrfT2H2CHwq2vP4oD8Xq53gSV5QCr+okdYNXtXDOeTG//loYoiDQmxOxr7peUY5u98IIBSarynCCZZATlc33NVzj7Zt+OWRSnX78OgdMNUbedubOACvNEsdqyhTcBCwxRF6OIeLlsYfZG8z5BCG2GUL4/p4lXYUmqwb4mOsBSXm3GosU+0L0olo6YDqxviLqIxGEHWJU+PJqgytLJw8CAIermAKb1v80MOTejfxzEHkOoAEsRB1iSarGvcYCl/ArhRHrnbWOIvJ+Hzt0NwpGGqJu7SCc9aobKcoBVm738bBvUMz/fWjYgUT4X6TEwzAWA20hF+MB6UimpyiedN2wAvNYQyrGRZNl3SGe1mCKnzpkziqT0PaBkjHqdg3r7YDU4wKrJhzfzw1tfr2Y4XvzCG32UN9P7jwYOMISKsT9nV9I5PlhZUhVX56U3A65ZlPfj4USSUb2GyKmFyVcg7mSIOoqZF7FU4xBpghoo0wf4+sz6HmXfyvR5x9ohZ6b3txLDmYZQgZQIpb3MIKl6S5ZkHyOoIB/Wz9M7sJ8dcmZa/weI4eOGqPePh28grAYHWLWQdjxLZK4h6izG0+np9xWyufm5mDWWjEuA1Yyhgh059zWCpCqtVQLRfYwKdESM8SLS2ZuYIi/r6zlbEfiWIeruHro67jJDNXY6qo0QrjRC3Y0Afsjp169jihws0JPRFwKvM4aK9/llP29JllQVvQOvh+gwQEWyPsnIS5g502ct1Vs6a3WS0kxgTWPUe60YfmOE6nCAVbtPsQOsfNiCpSN/Tnr7SFPUUc9ALzDFECqoV9E7d0czSKq4gLdjqYjnOXvy182+aYc6SmNCMvpiYFdj5ECSOcCqVloT1EhX2y3Ag4bIhTdRWuiltfXSO/BJAqcaQsU+ySx5kimpCnMAbx9UUT+74eP09n/OEPValwx8GXifIXLhecotfzBDdTjAqtlOJUQCVxkiLwfZeBjT+qcbosZ6BqYQ49cMoQY4yXSAJamyzpy9BjDJECrwsfEL9PR/0BA11ts/lcBRhsiNP5C2LjJDdTjAqqXM2whzJXAqvX0nG6JWB9e5e0K8yP2OGsQbmXHj+maQVDFLWt4G+IgDFf3c8iKm9R9oihrp6TuCSGqIXJ1kes5f5Z2MaiVyDTBkiDxtkzCDnv7PG6LaB9f+PYjJ5fjGQTWOFoaXvssMkirIk341ghKBi5nW5zGy+uvrQyB8wxA5EzIHWFXkAKuW0o5ngWsNkTtn0tP3FdLoz0M19M59J3A1vhFFnmxK0kusEWeNhfBWQ6hBrEYIP6Wn7whTVGt93fdZ4LuAb3/Mk8Cf6eq4yxDV4wl77f3YBLnc2xxN0v99zhscYYsK6hk4lJj8FBhlDDWgN5PesIEZJK36inz0Oz1WqsGUIJzHtP4zTFFBMQZ6+s8khi97Lp/H7RM816/24dIENbba0p8Diw2RR+FgHhn+zQsPUdWq6u0/EeJ3gBZjqEG1kJQOMIOkCvCKTjXo8poTmTbwNe90qIB0Vgu9AxcAPv4kr7Lhy4xQXe5Iau3E3Z9j2e1UyudRdm+eb7mWdHAzW6z0wXV1evq/TeQMIBhEnnRK0stY9osz32yqBl5ex0+TzJtJ2ufjJFbWjBvXJxl1JfBRY+TWPNKJfzdDdTnAqovopYW5PsiGNpLyTS88u0kronfeNiSj+4CPGUNNssPY09sIJa2S50e+E1jdEGrw85/3koQb6el7gy1WUM/Amxge/jOEvY2R63NIz/FrwAFWPWQtvwQWGiLX1iUmv1j2cPfbfaX18h1cDyZmg8DOxlATaaE04sNmkLTyJz3xMCOoSbwWwlx6+08kRq/SfyUxhmUPa4/XQNzEIPneWoSl3j5Yi0OmCep1st//Y2CKIQphHllyEOn4u03xItLB0ZSyrxFdgKtp1yx30t2xnR0krfgxdN5rSLK78JfKaj4/Z8TQ4Zy8x1OmeLF9w8BGJPEHwF7GKMRa8Aa6O3a3Q/V5sKzbZzz5nhEKYzxJdiu9/Scyc6avqv130wbeQVK+zeGVmlvYlul9LlokrcTuI/uo63E1qXezdOQd9PQfYop/k8aEnv5DSOItOLwq0Ll9+K4RasMDZt0+5K1XA/MNURijiZzBnZvfQDp3Nw+u815DT/+vCPGXwJZ+POQ+PfjcN0krZubMEoFDDaEmthHwfXr6f870GzZv+hrT57URBvqB7wPr+/EojGeJi3z+VY14C2E99Q50EWOPIYp3qkrgMsql40lb72uq7/ycOaN4rnQigRPxgbPSv1tMNnIT0l2fNoWk5TJt4B0v/CJIEgxB/BYZXaQdzzbVd3769euwdEQK4dOAd3sUz7fobv+kGWrDK7DqqTx0ITBsiMIJRA4kKd/OtIEZzOgf1/Df8XmDI5g28HEWlP5CYCoOr6T/NorS0g+YQdLyrybiR40g/ctICEeThL/S03cM58wZ1fDf8Zmz16C3/1SWjvwHhKNxeFVMWfZtI9TyRFz11dP/C+Bdhii054CvkoWvkrY93FDf2TlzRrGwdAiRE/FWQemV3Ex3+y5mkPSK0r5Xk4R7gBZjSC96mvpPyM5mteELOXH35xrqW5vRP44ynyDyOWCc27rQ/kR3e6sZarhnMEGdTet/G4ErDNEQlkC8FErn0j3+pmIvrGdvQjLySIifxHvwpeUXw95MbfudISS9rJ6BsyEebwjpFT0D4duE+A262u8p9vp6cFuS4aMgfAQY46ZtAIFP0NV+niFqmVz1NXNmiTs3vxvYzBiN9JMVbiRyIdnwj0gnPlmMg+rtIykt2J/I4cBb8TJmaSXEK+nu2N8Okl76eNu3Jkm4D1jLGNJyy4BZRC5kjfIvOHbi4kJ81WfOXoPnW95H4HAIk9yMDWUBWXxV0z2zrd6n2SbIgZ6+4yGcbYiGtBTitcBlZC2/JG19PFdf3bJbBPcC3kfkXcDabjJplUSyuCNpxx2mkPSievs/R+QcQ0irMDgI8ddk/IS4+GrSyQty9dWlN61NMrQ/cCCwHz47tkFXfOErTG07xhC15QArFzu5vjVJwv3AmsZoaBmRG4GrSfg95UUDNT/gprNaSEbtDOFNwD7AG4FRbhqpokfWC+lq/5ghJL34cXj034HNjSFVxBBwA4GrCfE6hte4kXSHoZp+BefMGcWCUivEycSwL4E2fL5doxsmy7YmnTDfFLVeZisffBZCc+74QriFGAcg3ArcTpbcXrGrtNJZY0lGbQPJTsAOQCvE8XjPvVRtz1OKW3BqxyOmkPSf672+gyBcagipisfgyCAhDEK8nSS5heHynRW7zSudsy7JiO0I2Y5EdiTSSuANwAjTN5PwI7rbfPt0PcqbICeWvY3mbnd+AhYQmE9kPsTHiTxBCE9CWADZ8//5ryYthLgGWViLENdn2ZtMXg1sgQ9fl+onxl6mdnQbQtJ/6OkfBN5gCKnmniSE+cR4P4EX1tc8CXEBkaX/eYYcViOGMcA4AuOIjIO4+Qvra59dJyC20t3xJzvUngOsPOntv4jIhw0hqUKeA9YwQ108zYih13DyHk+ZQhLgm6clqTH8nu72vcxQH4kJciSWzwaiISRVRIgfZdmzIVR7azM04nNmkPR/+2SmGkGSir4v9+Vr9eQAK0+6J94K/NYQklZZpI+ujssg/tEYdVvgHMOM/nGGkMS0vncB4w1RN5kJJK362o5b6Bx/tSHqxwFW/rZIJ16FJWmV9yWx94Uj7eXGqJs1GPblHFLTizGQhNQQdT3pPMn1taQKmEoI7kvqeYpjgpzpbB8Efm0ISSu/UA830tl+JQBZ6Zcu2uu6MY4ivWEDO0hNrGfgfUR2MUTdPEF50ZcAf6EjaVX8ic429yN15gArj7LQ5QmnpJXfh5D+67dDaet9wJ+NUjdjCKXPm0FqUmlMSPCNpHUVf0U6eRhIXV9LWvldSdLl1Vf15wArl4udtj8DPzWEpJXQT/f4/3zLVeSXZqmjED5NOncLQ0jNuNLuP5TIjoao60nnzwDobr/Z9bWklduPMIep4680RA4OqybIqSxOBcqGkLSCTvif3w6FxMud62t1SuEMM0hN5szZa0CYboi6WkBceM2/HRBT19eSVlhClxHysimUT2nHHQR+ZAhJK+AKutuv/59/2j3+JmC+eeoohvczfeCNhpCayJKWU4CNDVFXvyGd/Pz/HQ/bbge+axZJK+B6utp/b4Z8cICVZ+WkG3jeEJKWQwblU17mf7/CRPXep8cvkkaPu1Iz6O3fEsIxhqi3+PP/+UelUjew0DaSlmt9nSS+UTpHXEjnWTr+bmL4kiEkvaIQvk/3xFtf5t+YaaR6byNaSeYdYgipCUTOAlY3RF0tIeM3//NPT219iMgXzCNpOdZuF9M5fsAQ+eEAK/cLoIUzIPzTEJJexrOUOeVl/42uttnAvaaq+059BumssXaQGljPwJuA9xmi7q4l7Xj2Rf+X0aufDTxkIkkv4zmS0slmyBcHWHmXTl4A0R8cSS8tMJ207eGX/3dChHipsepuY8Ko1AxSgzpvcATwVUPk4uD40s+SPWHnhRBOsZGkl9mHzODUVgfdOeMAqwi62i4G+g0h6UX8nbXWPXe5/s0MB1i5WA+FY+jpe4MhpAb0aPnzEHcyRN0tJFv4i5dfX4//PpE/mkrSi7ibtdfxUT455ACrGCc7kSQeA0RjSPrP/QOf4+itlyzXv5t23ALhVqPVXQnCt0lntZhCaiBp/+uIdBoiF3667C6GV1hfh+QYoGwuSf+1vj5uudfXqikHWEXR2dEHXGwISf/mcrraV/Ttgj80Wy7sSjL6WDNIDSLGQBLOwwe35+TkM1m+NXP3+JuI4VsGk/RvO5Br6Gr/hR3yyQFWkWSl44DHDCEJeI4kHLXie/2ll+LVnHmRks7ZygxSA+gdOBzinobIhQfZ5p5Zy/1vj1zSBTxqNknAIrLwCTPklwOsQp3qtD4OHGMISYTYRWfb/Sv833VOuhfiHAPmwiiSlm8TYzCFVOT12cBGwFmGyI1LmDJl+W8LPHmPp4iuryUBIXSTjr/bEPnlAKtoutt/CPzGEFJT+xPb3Pe1lT84J5eYMC/invTO+6QdpKL+CMdAEs8H1jFGXpR/sML/ydT2S4Ff2U5q5v05g2wz/8uGyDcHWEWUlT4JPGcIqSktJcuOWKHfLv/P2n7EpcAiU+ZmxXQ2vXO3s4NUQNPnfQJ4hyFyIvBnuieu3MtKkvIngWeMKDXp+jrwsVVaX6smHGAVUdp6H3CKIaQmFJlBOuHGVduH7Po0xJnGzI3RxOQS0ttHmkIqkN652xHjFwyRq2Pkyr/wqHPigwRONKLUlM6mu/1mM+SfA6yiytq+AfEGQ0hNJIQb2ah0WoX+sPMNmiu7EhZMN4NUEOntI4nJJcBoY+TGErLSRav0J3S2nQ/8zpRSU/kr2aJeMxSDA6zCLpxCRlY6BHjWGFKTLMzj8KEc2bq0In9ad/tcwN805UngOHr732wIqQgr6IWnAbsaIlf70JkvvPBoFf6MEEnKHwGeNKjUFIYh+wjp5OdNUZDDrwkKbNkbEo4yhNQUC/OpK/1cj5f+My80bM6OyZHvk85Z1xRSjvXO2xvisYbI23EyfKsif07nxAeJfMagUlOsrzvpntBviCItllVs3e0XEbjUEFIDi/yRbe6t/HNWRpQuwoe5582rSZIfM3NmyRRSDp02uDExu8g1dO7cTGfbnIr9aVPbL3V9Lbm+Vv548G0E5ZGfAu4zhNSQnqBU/mBV3opyUuszBH5i4rwJe/OXzabaQcqZ9PaRDJd/BmxsjNz5VsX/xJahT7u+lhrWk8T4Id86WDwOsBpiQbXr0yTxQ4A/gFJjicR4OJ0TH6za3xB8mHsuhdBJ78B7DCHladW84CsEOgyRO8+x2tJLKv6nnrzHUyTJgcCQiaVGW2GHT5F2PGCIAh6KTdAgOjtmEznDEFJD+TpTOy6v7r6jbQ6BW0ydO4EYLySds5UppByY1v8R4BOGyOWJ6EWcuPtz1TlGjh8g0GlkqaFcwNS2H5uhmBxgNZLt7p2Kr/6VGsWfyBadUJO/KYtfNncurU2p9FPSwdGmkOqoZ96uBL5piJyK4VtV/fM7274A/NrQUgMI4UbGlo82RHE5wGokU6aUyUoH4f36UtE9QZa9r2av9F1n3A+Bh82exxMzXk+p/D3S6PFaqofT+jaE7GfAKGPkch/5R9Lxt1X5hDfSwkeA+w0uFXx9XS6/l2MnLjZFcbkgbjRp6+Nk4V2AP5hSMWXE5MOkE+bX7G88euslEL5u+tyeoB1IGJhhCKnGzpkziuHwC2ALY+T2TObsmvw9p7Q/AYnra8n1teq+21fjSdv+TIxHGkIqoEA3U8dfWfvD+vA3gIVugNx+Lk6kZ+BThpBqtZaKCQtKl/jQ9jyLd1Ju+03N/rru8Te5vpYKq6su62tVnAOsRjW142Ii5xlCKpRf0NlWnytt0olPErnITZDrk7Wv0Duwnx2kWqyQ530ReLchcu1s0pDVYX39VdNLhXI5XW2nm6FBDs8maGDrrPtZYK4hpAII/Jls0YcJIdbta4h8GcjcGLnVQowz6enf2RRSFfX2HwXxGEPk2kOsPe6SuvzNG5WOg/AHN4FUBPFORpY+Utf1tSrKAVYjO3rrJbSMeBfwD2NIufYw5dK7SCcvqOtXkbb/DfiVmyPX1gCuIB3czBRSFfT2H0DkS4bIu3Dusuc31sGRrUtpie8D7nI7SLn2CCHsz0mtz5iicTjAanSn7PYYobQv8JgxpFx6niS+m7Q1H28PTcI5bpLcezVJ+XekszcxhVRBvfP2JnIpUDJGrj1HNuJb9V1ftz9Bluzn+lrKrcXAu+lqv8cUjcUBVjPoav0H8F5giTGkXIkQD6Ozoy83X1Fn2x+J9Llpcm8rkhG/JR1czxRSBfT070HMLgdWN0bufZt016fr/lWk4+92fS3lUkbgg3S3+yidBuQAq1l0t19P5LBlJ8yScuJ4ujt+lMNDQ4+bphB2IClfxRmDa5lCWgXT+1uBK4DRxsi9pSThy/laX4fDXV9LeRKPo6v9F3ZoTA6wmsnU9kuBTkNIeRC+QHd7Pm/Xmzr+SmIccBsVwhsYGv41Z988xhTSSkjn7UjGVcCaxiiEi+lsuz9fx8y2Swic6KaR8iCeS3fHl+3QuBxgNZvu9hm+/leq+8H1B3SN/3y+v8bgVViFESax+PnLSQe9ekRaEengtiTZNcA4YxTCUgLTc/mVdbWfDZzlJpLquRyKP2bb+441RGNzgNWMuts+C3zHEFI9xCvZsOWjuX+d79T2XxMZdHsVxl4k5atI+7yKRFoe6cAuJOXrgI2MUZiz0+/m+oHMXW0nEbjQ7STVxa/YoOXDTJlSNkVjc4DVlMf/ENn23iMg/MgYUk39nrHZezmydWlBdhZehVUse5CEa0nnrGsK6WVM7+sgib8HNjBGYSwhS07L/fp6m3uPBH7u5pJqKV5LtmhKcdbXWhUOsJrVlClltp1/MHCZMaSamEu26F0cO3FxYb7iqW2/Aua56QplPEnpetLZm5hCehE9A28iC78F1jFGkc5PwwWkrfcVYn2djT0Iwi/daFIt9g30kS1+N+nk543RHBxgNbNlB9kPQbzSGFIVBf7MiKG3kU5eULyFQTzNDVg425OMmMX0gU1NIf2b3r79X1jzrGGMQnmemJ1RmK823WGIbMyBLHuzpaTquZmRQ/sXcn2tleYAq9mlOwyRtbwPwh+MIVVBCDdSLu/FyXs8Vcivv7v9l4RwoxuycF5HFv9I79ztTCEB0wY+RAw/B0YZo2BiOI+044Hira8XHQj81g0oVcXNZKW9C7u+1kpzgCVIWxcxdnh/r8SSKr3opo/yiL1IJz5Z2O8hhAjZyW7MQtqCmNzAtL7JplBT6x3oIsSLgZHGKJxFtCRnFnN9Pfl5xpYPgHCNm1GqqH5GDE0mbX3cFM0nmED/d6C9fSTJwh9CfK8xpFV2PastfRsn7v5cQ3w3Pf1XA/u4WQtpCPg43e0XmUJN5bzBETwyfD6EQ41RUJGzmdr++UJ/D+fetRpPP/lj4F1uUGlVhT+w2tA7G2Z9rRXmFVj6P+kOQ2w7//0Qv2cMaZVcR7Zo/4Y6uGbxBCBz0xbSSOB7TOs/gxj9xZWaw5mz1+CR8i8dXhXak8TyGYX/Lo7eegnb3vteAt93k0qrIl7J2OH9HV41Nxey+l9pTAgD3yBwpDGkFfZzskUfbMi3ofT0fx84xE1caBeRjf046Q5DplDjrmPmbkGSXAHsYIxCn6UcTVf7VxtqfZ3M+ybEI9y40grvEH5KNuaDrl/kFVh6kQNsyOhu+yRwljGkFTq4ns+29x7YsK/yzUpdgK8pLrZDCAuuY/qcV5lCDal33t4kyTwcXhXd39ig9K2GW193jf8ExDPcvNKKiN8jW3iQwyuBV2DplfT0fwz4JtBiDOnljq2cydT2kxr++5zWfwaBE93ghfc4IfkAXeOvNYUaYx8cA9P7jyaGL7hmaYQzlOxddE34ZQMfSw8n8C0/q9IrrK4jPXS3TVv2UiHJAZaWR2//24lcCow1hvQ/yoRwFF1t32yK7za9aW2Sob8D49z0hTdMCCfROf4cF4Yq9n6pb02S8H3gAGM0hOvobt+zCdbXBxD5ITDKTS79D19AoxflAEvLuTicu9sLz5PY2BjSvzxLTA5i6vgrm+q77uk7BsKX3PwNYybZosNJJy8whYq3PxrYAeLPgNcZoyFkENvo7vhTU3y30wcmksXLgfXc9NK/PE2M72FqxyxT6L/5DCwtn3TCjWSlDgK3GUMC4B4IE5tueAWQrfEN4C9+BBrGFJJR8+iZt6spVCjT+g+H2I/Dq8YRuKRphlcAnW1zCLS5vpb+ZT5ZnOTwSi99mJBWxBmDazFUvgR4mzHUvOINtIx8N6fs9ljznjgO7EWIPj+psQwR6KTc9kXSkJlDuTWjfxzD8XwI7zFGQ1lIErajs+3+pvvOz5y9BktGXAK8w4+Bmnp9nSXvI2172BZ6KQ6wtOLSmBAGugl04VV8arq9Zvw2a407iqO3XtL0LXr7fkQM7/dD0XB+TxY/QtrxgCmUO8uG598HfJNm452VnERX+5lNvr6e4YtS1JQiX2Wj0nEc2brUGHr5Q4W00iev/W8ncjGwtjHUBJYAn6G7/QJT/P/Fdt+rScJf8AUPjehJQjySro7LTKF87G9uH0my8DSIx+IvzxrRHWxY2sWTV2DawPsJ8QKPrWoSiyAcSXfbD0yh5eEAS6u4oJyzFUnLzyDuZAw1sPshvJfutnmm+C+9/ScQOcsQjSr+gKzlc6Stj9tCdTO9v5WMC4CdjdGYOxoIk+luu84U///YOnc7YnIZsL0x1MDuBt5Dd/vNptDy8jdYWjXpxL8zarUJBC41hhpTuIaWEW9wePUSNih9GbjDEA37+T+YpPwXpvV92BaqubNvHsO0/nPI6MPhVSO72OHVf+ma8BeyRe2ur9XAfsOIoVaHV1rhlakJVDHT+g8n8GW85FmNYSmBLsptZ/tA61fQ2/9mIr8zRMP7LYFP0NV+jylU/f3KwH7E+E1gC2M0tKfIhrclnfSoKV7yZ+GTxPhFYJQx1ACWAKfQ1fYlQojm0IpygKVKn8huScYPCEw0hgrsXkg+RPf4G0yxnHoGLoV4kCEa3mIC09jm3i8wZUrZHKq4dM66JC2nQzzCGE1xJvIJutrPM8Qrra/nbgfJD4nsYgwVV7wTSh+ke/xNttDK8hZCVVZX+z1sVNoT4hmAV62oiKvpHzGytLPDqxVUSo4FnjJEwxtF5Azu3OImpg3sZQ5VzHmDI+jpO4ak9HeHV81yLhsHKLd92xDLs76e8BfKiyZAPBfwqhUV0bfIWt7g8EqrfKZmAlVN79w9iclFwKbGUAE8QQyfZmrbj02xkqb1f4TA9wzRVC4nKx9POvHvptDKrxf69ieGc4BtjNE0hiFp82R2ZY6189667C2FcRNjqAAeJ8aPMbXjclOoEhxgqbpOv34dhlf7IjEe6udNOXYFWfg4advDplhFPX2/gfBWQzSVISJfYbXSaZzU+ow5tNyWvWntS8C+xmgykdOY2t5piJWU3rQ2ydBXgEOMoRz7OaXSpzm19SFTqFIcKKhGi9R5exOz84DXGEM58jTE4+ju+I4pKmT6wKZk8TZgTWM0nUchTCMbcwHpDkPm0Es6bXBjhrNTCfFIoMUgTXf2cRtrrdvK0VsvMcaqrq/7307kfGBjYyhHHiKEz9DV9jNTqPKHEKlW0sHRJOVe4LNAySCq794v/phycoxXXVVBT98REHwob/O6lxhOY6PkexzZutQc+r91wA0bkLScCHwS36jWrIZJmEBn+6ApKuT069dheOTZRD7quZ3qLAIXko08gXTXp82hqpzCmUC1X8AO7EISLwDeYAzVwT3E5NNMHX+lKaq1fImB3nlXQ3yLMZravRBnkC3+DunkYXM0sRn941jKUQQ+h1dnNvvprbcOVkvPvEmE7FtEdjSG6uBuQnIkXeOvNYWqyQGW6uO8wRE8mh1NjF3AWgZRDQwR+RKx1EPausgcVZbOew1JdgswxhhN72/EOJ2NWn7kFVlNZsaN67N06WcJHA2sYZCmP+vw1sGarK/LxxLpBkYbRDWwiMBZjCmfxbETF5tD1T+USHU9yb1hA0ql6cRwOJAYRFVyBSEeS1fHXaaooZ6BoyF+xRB6wf0EvsqI0vk+7L3Rj+39ryNwLIFD8FZBLeOtgzX9GRzcjNLwWcQwxfM9VUmE8GMSPk9n2/3mUK24Q1NODrQDuxDiVwi80RiqoLuIfI6p7b82RT1+rmNC0n81hL2NoX+zAOJ3SMrn0DnpXnM0kOl9uxPD0UTeg8+61H+e6nrrYF1+Jue1kWVfBiYYQ5WbIIQbifEYutuvN4Zq/vEzgXKlZ2AKxLOAzY2hVfAohNPYMPmmtyzVWTp7E5IRtwDjjKH/MgzhMpLs63R2zDZHUX/GZ61OGPNeQvwsMN4gehE3s/a67d46WK+f0ZiQzDsE4nTgVQbRKniEyKnEtu+ShswcqgcHWMrhgfb2kSTPHQrJVIibGEQrYCGRr7Fa6XRvUcqR3v4DiPzcEHoZfyPwHcrD3yWd9Kg5ivBzPXc7suQjBA4H1jOIXsIiQtZK14S/mCIv6+vQC2xgEK2AJ4l8lRjPIe141hyqJwdYyvGBdnA0yfCnIHweWN8gehlLiJxPHJ7uyW9O9QycB/EIQ+gVDAG/JIQLKY//rb/hzdtxuW9NSuEDRA7Hq620fD5Od/sFZsiRMwbXYsnwcYTwOWCsQfQyniHwJcrxSw6ulBcOsJR/Z85eg6ERRxM5DljHIPo3i4lcQKl8Jp0THzRHnk98B0eTDP8JwrbG0HK6nxhnEuJP6OoYIIRokjo4Z84onivtRwhTIL4D3yyq5T/L+Ald7VMMkdfj8g0bkLQcB3wS3xKq/7QQ4lfJsrNJJz5pDuXr0CIV5kB709qUhj5N5ChgQ4M0tUVEzqOldDantj5kjqL8DM/djSSZC4w0hlbQfCI/IYSf0N02zxzV/lmdtTph1L7Lhla8w5NbrYR7yUbuQrrr06bI+8/7nHUJpaMJHI2/KG52TxHDt4hLv+wdDcorB1gq6MJ6zIcJ2bFezdF0HiXyTeLwNzywFlRv/wlEzjKEVsE9EH5K5CrWWWe2D4au1LF1cD1C+S0kvI3IO4A1jaKVNAzJnnSPv8EURdoH9K1JKXzyhV8U+7D35jKfEL9MefGFpJMXmEN55gBLBT7QxoRS39uJyfHAHgZpaH8hhi8RF15MOvl5cxT85zaZdxXEtxhDFbAQmEWIV0HLVXS1/sMky2nmzBJ3bt5GjG8F9iWEViAxjFb97CJ009XWa4iCOm9wBA9nUyAeQ6DVIA39s3ojMTubbPFlpJOHDaJCfGxNoIbQM7cdkk8BBwKjDNIQysCVxOQbdLde5fNvGsiMG9dneOmfgE2NoQr7O5FrCGEOId5AV/s9JnlBOquFZNTOkEwixN2J7I23C6nypxZ/YNv5ezNlStkWjbC+7t8DOBp4FzDCIA1hiMDlwLfoav+9OVS4o4wJ1FDOGFyLoeH3E8IniexikEJ6mMj3idm3SCfMN0eDmj6vjSz7I7CaMVTV/QkMEphNiDew5rh5TXPLYTprLC2jdiGGSUR2B3YH1vYjoar+vGVL30C6+z9N0Wj7k4GNKMWPEDkCeI1BCukuAhdSHv6uj+FQkTnAUgOfIPd1kIWPA+/Htybl3VLgKmL8Phu1/JIjW5eapAn0DHwK4tcNoRoaAm4ncBuR2wjhFsrZbaQdDxT3xHJWC4x6HUmyIzG+nsCOwE7Alq7zVNvjeDLZ5141uDQmhIG3EPgY8HZgdaPk2hLgp4Ts23R2XOfdDGoELmzUBAfbvjVJwgHAFGAfvAQ6P2IcIAk/oDTiR5yy22MGaUI9fRdDONgQqrOngNsI3E3GfOAeQphPsnQ+w0MP1v3ZIOfMGcWzyZaU2IKYbEGMW5CwBZGtgB3wzZ6q+xlF/AxdHf5CoqnW1zetTTL0PuBglj2L1mfo5UMZ+APwI7Lyz0gnPmkSNdThxgRqroPtnHUJpXcT4kEQJgMlo9TczYTwUwgz6Rr/V3M0+8/k4GiSrA/iTsZQTg0DDwAPAU8QeILIE//6f2fxcZLSM8RsCcRFAGThOUiGaRkqU8qeJY5MGErWAiCJoyBbdtVCCGuRMYLAOALjyBgHrEtgHDCOENYnxlcBG7oZlOOziYvpaj/EEE19LN+MpHwQMb6XEMZ7jllzGXADIf6YhMs4teMRk6hxDzlS0x5sb9iAZMT7IL4TeBNeBl0tkWXPoPkplC7zLWH6H719WxPDPGAtY0hSoc4k/syY8kSOnbjYGAJg+sCmZLwbeDfEPfCXxdUyBMwmcAXl+JNC3wovrdBhR9Kyq0BKw3uSJfsT4lvxAZWr6klCvIaYXEXGVaRtD5tEL6u3/wAiP/O4JElFOtbT6ts+9TLr6/VIyvsQ2I/IPng16aq6H8KVxHgVqy+9lhN3f84kajaeKEgvesDtfx1J3B/CXsBEYF2jvKzFEPqJ8TpK4be8bn6/r9DWCuvtn0okNYQk5V5GCG+jq+0qU2i5xBiY1rcrSbIfhD0hTsSXLL2SZ4E5wCwoX0n3xFtNombnAEtangNu77ztIZtECLsTmYRXaD0N9EOYDfE61l53oGleTa9q/6z9EOJBxpCkXDuR7vazzKCVls5qIVn9DRD2gPBGlv3CeFyTV3mAwPVE5gDXs+29t/kLYek/OcCSVuqgO3sTQssEArtA2Al4PbBFg/5MPUvkFmAeMI8kDtLZ/ndfxauqOGfOKBaUZgHtxpCkXJ49XEhX+8cMoYrr7d+SjFYCrUArsBuwdoN+t/cDt0C8lZj8mZjMJW29zw+B9EqHIEmVkfatSVLaCbKdgJ2BbYAtgVcDLQX4Dh4H7iFwB3A7WXIbpaE76Jx0rxtXtf1ZGtiIJPYDmxlDknLld2xYeitHti41hWq0vn41JbaHsAOR7YEdgNcCGxTgq89Y9hbbewjxbxBuJYZbGLHkFk7e4yk3rrTiHGBJVT/wzmqhNHpTYEsytgS2JMTNIWwArM+yy6XXA0ZX8at4EngYwqOE+CAZj5JwP3APkXvI4j2kHc+6sZQbPf07A7OBscaQpFz4C9nIiaS7Pm0K1d3ZN49h4dCWhLglgS0hbg5xAwgbAxuxbMC1fhW/gsXAE8v+Lz4G4VGI9/1rbR2ze2Ct+0h3GHJjSZXjAEvKi3PmjOLZZBxJGEcM65GEAHFNslgiMALishP5kKwBsYXIQojLDoqRpRAWkGRLyMJzBJ4lKz0F4VkY9awHTxVS79x3EpOfA4kxJKmuHiNLOkjH320KFcZ5gyN4iLUgrgnDa1NiTWBNsmQ1AmtBTF44Ix4BYSyQEeMzy9bWyQvr7JiRlF74ZzxBFp4AHidtXWRgqfYcYEmS8qu3/wQiPihYkupniJDtS9eEP5hCklRP/lZbkpRfXe1nE/mmISSpLiKRQx1eSZLywAGWJCnftrv3KOAyQ0hSjYV4KlPbLzWEJCkXhyUTSJJyL719JMmCXwH7GEOSauJrdLcfZQZJUl54BZYkKf/SHYZYben7gD8ZQ5KqLf6ArO2zdpAk5YkDLElSMZy4+3O0jHgr8FdjSFLVXEG2+DDSkJlCkpQn3kIoSSqW3v4tidwAbGwMSaqouYxa/S2csPNCU0iS8sYrsCRJxdLVfg9Zsg/wlDEkqVLCrYwYepvDK0lSXjnAkiQVTzr+NpLwduA5Y0jSKvs7Gftw8h7+YkCSlFsOsCRJxdTZNgd4G+DVApK08uaTDO9N2vawKSRJeeYzsCRJxTa9b3eycCUw1hiStELuI0smk46/2xSSpLzzCixJUrF1dswG9scrsSRpRTi8kiQVigMsSVLxdbdfT4zvBp43hiS9IodXkqTC8RZCSVLj6O3bhxguB1Y3hiS9KIdXkqRC8gosSVLj6Or4LYEDgSXGkKT/cS+BPR1eSZKKyAGWJKmxdLVfQYzvwGdiSdK/m09gMl3t95hCklRE3kIoSWpMPQPjIV4JjDOGpCb3F5KwL51t95tCklRUDrAkSY2rZ2AH4LcQNzGGpCb1J1pGvJVTdnvMFJKkIvMWQklS4+puu50Qdwd83oukJhT+QBbf7PBKktQQRzUTSJIa3mmDG5OVf0tkR2NIahK/Ymz5/Rw7cbEpJEmNwCuwJEmN79TWhygP7wXcZAxJjS/+gGzRexxeSZIaiVdgSZKaxxmDazFU/imwlzEkNahz6Go7nhCiKSRJjcQrsCRJzeOk1mfIFu1H5DxjSGowkcg0utuPc3glSWpEXoElSWpOvX2fJYYveSyU1AAWEuOHmNpxuSkkSY3KRbskqXlN6z+QwEXA6saQVFAPkfBOOtsHTSFJamQOsCRJzW36wESyeDmwnjEkFWwlfxth+O10TrrXGJKkRuczsCRJza2zbQ5ZeQJwlzEkFUe4hhGl3R1eSZKahQMsSZLSiX+nFPcgMtsYkgrgW2QL9+ek1mdMIUlqFt5CKEnS/5fOaiGMnk7gRGNIyqFhAp10tZ9pCklSs3GAJUnSf+sZOBji+cAoY0jKiceI8f1M7ZhlCklSM3KAJUnSi0nn7kaS/BzYzBiS6ioyh7j0QNLd/2kMSVKzcoAlSdJLmXHj+gwPz4S4pzEk1Wm5fj7ZmKNIdxiyhSSpqY+IJpAk6WX4XCxJ9bEE+Azd7ReYQpIkB1iSJC2faf0fIfB1YIwxJFXZfRDeR3fbPFNIkrSMAyxJkpZX77xtIPsRkV2MIalKfkFWPpx04pOmkCTp/zjAkiRpRaSzVicZdSaEo40hqYKeJ8ST6Gw/lxCiOSRJ+k8OsCRJWhm9/QcQuRBY1xiSVk28E8JBdLffbAtJkl6cAyxJklZWOrgZyfAPIUwyhqSVXI1fzOqrf5ITdl5oDEmSXu6QKUmSVt55gyN4pDwdOB5IDCJpOT1N5Aimtv/EFJIkvTIHWJIkVcL0vt3JwveA1xpD0iuYRTJ8GJ2T7jWFJEnLxwGWJEmVcs6cUTxXmkrgBLwaS9L/WkxgGuW2s0lDZg5JkpafAyxJkiqtd97exOxCYDNjSAIgMofIYaTtfzOGJEkrzt8OS5JUaV3jryWLO0E4H4gGkZraYgInsd29b3R4JUnSyvMKLEmSqqm3/+1Ezgc2NobUZLzqSpKkivEKLEmSqqmr/QqykdsTOQ/wmTdSc1hICMd71ZUkSZXjFViSJNVKOnc3QnIegVZjSA3rCpLhz/iGQUmSKssBliRJtZTOaqE06tPEMB0YaxCpYTxIiMfQ1XGZKSRJqjwHWJIk1cP0Oa8ia/kKxPcaQyq0YYjfIFt8KunkBeaQJKk6HGBJklRP0/reSwhfAV5lDKlgIrOJySdJx99mDEmSqssBliRJ9ZbOGksYfRKBY4FRBpFy7yEIp9A1/vuEEM0hSVL1OcCSJCkv0r5XUwoziBzsMVrKpcVEziXGGaQdz5pDkqTacXEsSVLe9AyMh+xLECYZQ8qFSOAyytnnSSfMN4ckSbXnAEuSpFyeLsdAz8D7CJwFbGEQqW76ScKxdLbNMYUkSfXjAEuSpDxLB0dTyo4jxuOBNQ0i1cw/iPFEpnb81BSSJNWfAyxJkoognbMuoXQ0gc/hIEuqpgcI8QusNe5bHL31EnNIkpQPDrAkSSqSdHA9Qvl4AkfjGwulSnqMwBcZUz6XYycuNockSfniAEuSpCJK+15NwgkQjgRWM4i00h4n8AXKpa+Sti4yhyRJ+eQAS5KkIkvnvYYkmwp8CCgZRFpuTxLiFygv/irp5AXmkCQp3xxgSZLUCNJ5ryFkxxM4FG8tlF7OwxC+QpZ9g7TjWXNIklQMDrAkSWokM25cn6VLP03gKGBdg0j/8g9C/CpjsvN9xpUkScXjAEuSpEaUzhpLadThxHAcsKlB1Lyr3XAjMX6Fbe+9hClTygaRJKmgh3QTSJLUwNLbR5I8dzCE44HtDKImEYHfkISz6Gz7ozkkSSo+B1iSJDXF6XwM9PTvTQifAt6BD3xXY3oW4g/I+Dppxx3mkCSpcTjAkiSp2aSzN6E04sNEjgJeZRA1gL8S+C4tQ+dz8h5PmUOSpMbjAEuSpGaV3j6SsOBdhHgEhL0NooIZInA5JOfT2fo7QogmkSSpcTnAkiRJ0DNvV4ifgPh+YC2DKMfuJfBtkngBp3Y8Yg5JkpqDAyxJkvR/zr1rNZ56ah+S+GEi7wZajKIcWEzgCrJwMdvN/41vE5Qkqfk4wJIkSS/utMGNyYanEMNHgF0NohrLIM4FLiJb/EPSyQtMIklS83KAJUmSXtn0/lbKHELgIGB9g6iKq9PbgIsoL72EdPd/GkSSJC1bIkiSJC2vmTNL/HXzNxHjeyE5AOImRlEFVqS3AD8jln9G98RbDSJJkv53uSBJkrQy0piQ9O9KDO8g8EFga6NoBdxB5CfE0o9IW+80hyRJejkOsCRJUmVM728li+8FDoCwrUH0X8rAH4GfkcVfkHY8YBJJkrS8HGBJkqTKSwc2Ion7EHg7kbcAaxulKT1M4BoyfsXIoWs5eY+nTCJJklaGAyxJklRdM2eWuHOzXQhhb2J8B4QJQGKYhrQY4g2EcC0xXktX+42EEM0iSZJWlQMsSZJUW6f1bUg5eQsheyMx7A5s65qksIaIDAI3QLyGuPh60snPm0WSJFWai0VJklRfad+alEptZNnuhDgJwh7AaobJpecg9hPDDSTJbMYsvYFjJy42iyRJqjYHWJIkKV/SwdGUlrZBaQ9ibAN2BV5lmJorA3+D+CdCModyuB5a7yANmWn+X3v3HV5ZUT9+/D3nJtuBBZQqRXqTItnc7ALCiti+AoqKWFARFUVERemb7E2yNFFUrIBfUdSvuCCCWFCBpS65dyNNqYsKiiIofXtyz/z+yOJPkJJ7bsot79fz8Pg8bubknM+ZM2fmkzkzkiRprJnAkiRJta9wy3RaVu5EZHcIuw/9L9vhWlojZQBYTOB3QwkrfsfEybdw7C5LDY0kSaoFJrAkSVJ9OuOGNVjZuiuwCzFsR2AbiFsDm2Ji64WsBP4I3AvcS4x/IKS3kq68i8LsQcMjSZJqlQksSZLUWAoLJpFM3JrQsjXxmaRW3BbCFsD6NH5yayXwILCYyGKSeA+wGMJiyu0P+AmgJEmqRyawJElS8ygsaIHJG5CETYhxI0KyMTG+ghA3JIZNCWwIrAesVYNnXwYeI/AwMf4VwkNE/kqIfyeEv1MOD9KaPsTJHQ97oyVJUqMxgSVJkvRcMQZOv2E6KyetDYPTySXTIUwnjWuThOnEdDoxtEKYRqB1qFA6hRCGdk+MTII4+TlHfYoQyquPvxSSVat/djnEFYS4DJIniOnjkDxBiE9A+QmSlidoXfUEx+/5tDdGkiRJkiRJkiRJkiRJkiRJkiRJkiRJkiRJkiRJkiRJkiRJkiRJkiRJkiRJkiRJkiRJkiRJkiRJkiRJkiRJkiRJkiRJkiRJkiRJkiRJkiRJkiRJkiRJkiRJkiRJkiRJkiRJkiRJkiRJkiRJkiRJkiRJkiRJkiRJkiRJkiRJkiRJkiRJkiRJkiRJkiRJkiRJkiRJkiRJkiRJkiRJkiRJkiRJkiRJkiRJkiRJkiRJkiRJkiRJkiRJkiRJkiRJkiRJkiRJkiRJkiRJkiRJkiRJkiRJkiRJkiRJkiRJkiRJkiRJkiRJkiRJkiRJkiRJkiRJkiRJkiRJkiRJkiRJkiRJkiRJkiRJkiRJkiRJkiRJkiRJkiRJkiRJkiRJkiRJkiRJkiRJkiRJkiRJkiRJkiRJkiRJkiRJkiRJkiRJkiRJkiRJkiRJkiRJkiRJkiRJkiRJkiRJkiRJkiRJkiRJkiRJkiRJkiRJkiRJkiRJkiRJkiRJkiRJkiRJkiRJkiRJkiRJkiRJkiRJkiRJkiRJkiRJkiRJkiRJkiRJkiRJkiRJkiRJkiRJkiRJkiRJkiRJkiRJkiRJkiRJkiRJkiRJkiRJkiRJkiRJkiRJkiRJkiRJkiRJkiRJkiRJkiRJkiRJkiRJkiRJkiRJkiRJkiRJkqRaEwyBmta8Gzcjbd2cEFr//xNRXgHpn5kz628G6CUU+l9GErclMPlZ/3+5/HfI300hpAZJkiRJkjQSTGCp+fQWX0nkh8DMF/iJCCwg5D5KZ9sfDdhznNK3PuXwLeDAF2lDHiAkH6ZzxpUGTJIkSZJULRNYai7z5+e4e7PbgB2H8dN/ISnPcjbWfygsaCE3ZRGRXYfx00tJcztQaPuLgZMkPetd0jJxfQZbJ/77/5uQe5qTXv1PgyNJq529eCJPPvZRUjZ+9gg+LoNwP4S7SGf8zq8e1ExaDIGayr2b7wFxx2H+9KbE3M8p3JGnsOMqgweEyQcOM3kFMJVc+VDgFAMnSQIgxkBv6S5StiL5jzHXYAo9xWUE7iNyJZS/S9es3xswSU3riUffC+Hs/55y8sz/ESEpPUxP33mkE79IYbcnDJoaXWII1FTKcevKOtrsSm7JiQbumfdlsmeF8dvGoEmSnmO9F/j/pxDZGTgGcrfTU7yIU/rWN1ySmnSoPpyZVetDmEOy6i7mlWYZMzX8U2EI1FRC3LjiMpETKfTtYPAA4joV/vxGxkyS9P/fwyECdwzzp99BOdxI4cb1DJykJhy3/KuCn96ANF7BvNImBk6NzASWmksMWer8RJLwbQrR5yVUum5eyFnpJEnPeZfcX8FPb0loKRg0Sc3XVlaUwAJYg3I83MCpkTkgl4ZnJsmiowyDJElVSuPfK+yt7mHQJDVfW5k8nWF0v7mBUyMzgSUNWzyVwqItjIMkSVUIDFT2+mWSQZMkSSawpOGbSpJ+3TBIkiRJkjS2TGBJlXkjPaX3GQZJkiRJksaOCSypYvHL7ogkSZIkSdLYMYElVW5dci1fNgySJEmSJI0NE1hSFpF30913oIGQJEmSJGn0tRgCKaMQvkqhbwGFjqcMhqS6N680izSdA+E1wNTn/OsgkVuBU5mb/6nBkiRJ0lhzBpaU3SYknGYYJNW97uIbSOO1EN7EfyevAFoItBH4Cb2lgwyYJEmSxpoJLKkq4WPM69vTOEiq76aMsxnerOwAnGzAJEmSNNZMYEnVPkMp51FYMMlQSKpLvf1bAtsM++dj3In583MGTpIkSWM7+JZUpbAdYcoc4yCpPpuwwQ0rLDGBe1+xgYGTJEnSWDKBJY3IAJDj6Vm0m4GQVHdirHxDl8HWiQZOkiRJY8kEljQyWgjpdygscGdPSZIkSZJGmAksaaREdiU39VMGQpIkSZKkkWUCSxpJMfZQWLiVgZAkSZIkaeSYwJJG1hSSlvOIMRgKSZIkSZJGhgksacTFfegtHmYcJEmSJEkaGSawpFERzmLewo2NgyRJkiRJ1TOBJb24J4ElGcqtRdryFcMnSZIkSVL1TGBJL+4JQpyTrWh8O72lgwyhJEmSJEnVMYElvZRy/qsQb8xUNsavc9r1axtESZIkSZKyM4ElvZRCSElbPgyszFB6AwYmfN4gSpIkSZKUnQksaTgKbXcTOT1j6cPpXfQ6gyhJkiRJUjYmsKThitNOBe7IUDIQ03M587apBlGSJEmSpMqZwJKGq7DjKkgPB8oZSr+S5Su6DKIkSZIkSZUzgSVVomtmEeLXM5Y+hp6+3Q2iJEmSJEmVMYElVSptORH4U4aSLYTwHc7pbzWIkiRJkiQNnwksqVKFtkiI1zEAAExtSURBVGUEPgLEistGdubh9LMGUZIkSZKk4TOBJWXRmb+awA+yFY4Fem/a3iBKkiRJkjQ8LYZAyijHZxjkDcB6FZacSJp8ixj3IYRoIJtEoX8KE8qTSQenkUufYuU6S4c2BpAkoLCghYkta1BO1mQwDjAxLmdla5lCx1MGR8Nyev9alJmyuo+yjBPanjQoUlXt8jRaJ0+FloSBwaW2x9L4M4ElZXVS/lF6+j4F4UcVlw28ht7SEcC3DGSjdHL6tyOkuxDilsB//rcGsBaUYXB1s5sCyRLoKabAkxAfhrAYWEwI9xG4g8GlJQqzVxhYqQHEGJjXtx1psh0JWxHDVhC3AjYH1gamAa0MrP75BBhY/b89xVXAowQeJnIvkbsI8W7S5G7WHLyHY2YtN8DN8I7pW5OWZFfKcWtC3AqSrQlxayIbAFOAaaz6j02Sy0BPEWAJsAx4CMJ9kA69a5LkPgbTWx2Qq7mfq1umk1vZTky2I8btCGwLbLO6TZ7+72eJMiThmWfqSeCfwF3AXcR4N0luIZ0z7jGg0ugzgSVVo6vjQnqK7wH2z1D6dOYtvJw5s/5mIOtQz6LdCOk+RPYC9oDyehmOkgwNXsPawHarB7pDq6slU1bQUyxCuBbCb+hsW9gQM/YKMSFXejMpHYSwhJD+hM6Oxc1bj0ozCOlHiGE9AtcyadK5HLvLUh+weq/nC1pIpu4GcS/gNfSW9oRkXQKrV0+s6FGeAGxIZENgVwJAgCTCklyZ7r7fQXIVcBVrDC40odUgTi2uy0Dck5Dss7oe7Uoac/++/8ThVqNpq/9bD+IuQ2WBNEISyvQUbyVyHcRraQ03cFL+UYOvhnVOfyuPlPcisi+wL6xqI4YcxH8/GsOw1ur/tgL2JwSIKfQU/wr8lsjP2SD3c45oGzDg0sgzgSVVK41HkoS9gTUrLLkWacs3gAMNYr0MShftRFJ+F4RDIN2K0U0nTQL2hrg3xC56S3+iu/h9ktz36Wz7Y33Gr7gNuUU/IvLqoY5ihBh66SmeTFf+801Xn3r6PgTx3KHOMxA5kOUrjqTQ93YKHbfX9LkncRMKi0boYGEQnn6k7mccFmJCy6I9KcdDCLwD4svH4LfmCKEdYjtwIktyK+gpXgvhB6TJJRTaltlw15HTrl+bgQlvB97DIHsTQsLovmhywO4EdofwGQZJ6SleQ+T/mLDqEk7c6/HGe48vmEQy+WQIBwObAJP/41+XAvcTwo+ZOviFpkgGxxiYV/ookcOA7Z/Tl10FPALxStJcL4UZf6rf+963A4EP8XD5UCpf+mO4NgE+tPr3PEJ33/eJ4VwK+Xtt3KSREwyBmkp3sUBgbgUlHqArv/lL/lRv6ePE+I1snYdwCHPbf1wX8estXkDk0ApKLKAr/9q67+yGqYeSxKOJ7FQL3U2IV0DspmtmsW7i2LvodcR0PkOfSz3f2+g4OvNnNk1b1FP8MHDuC7yHlxDj+5jbcdnY3Jub9iEmC8Y5IoMQFpByHIX2W+vqXvYWX0kMR0I8BHhFDZ3Z0xB/QpKcz5z262qr/vedBuGECkrcS1d+24ZsC4ZmpR5A5IPAmxiacVcLVgJXEOP5xPzlFELaGG1v6TKIBwzjVXsj09fdl6O3XtnQ76Le0neI8bBh/OSjJIO7M2ePB+rm2mIMzFv0NmL8HDBznM4iBS4kJD2ZPjHsKe0I8Q8Vju6/R2f+gw761KjchVAaCeUZ5wDXZyob4lc4tbiuQay1QcXCdegtnkwy5X5CPLdGkldDXRPCmyDpo6fvl8xb1F4HA/wjiOmveKHkFUDkdHqLb22KutVd2hf4Bi/8R6RphHAJPcXjmuiJa4G4H0m8gcKinerijHv6dqe370Ii90L8HLWVvAJYA8IHSeO1dPcV6S2+lUK031cz75gFk+gufYSkdBeRnzI0G3tCDZ3hROBAQriUpHQnPcUPc/biiXUd857SjOElrwDCHjzx2GENXQd7Fu0xzOQVwLqkuWPq5z1b/B/mLeonxp8wfsmrZ8ba7yGmd9BTOofTrl/bxk+q/qGSVHVHNKSE5CNAlk9g1qfMFw1irdzLOybQWzyeJPcAkXnA+rV7suFNpOlNdJe+RmHBtJo8xd6+E4l8i5f+ZD0h8gMKpV0bu34VtyHEi4DWYbyfz2iyJBbAVJJyd02f4bzSLHqKV0LoJ4Z3UQ/LMYTQTuSnJKXf0118pw39ODpr4eShd8yUPxPiuQwtGF3rtgXO44nH7qe3eCyFBZPqMvaRSt8vb2nsyliu7PpiqP33c6FvB3r6biDwc2J8dQ2dWQ7iRxmYcCc9pYNtCKXsTGBJI2VoanBvxk7VB+jte71BHGfdxf8hWfIHIqcztOhtfbTjIX6CZMofaq4OzVvUTgzzKktexJ9RKG3QkPWrsHAdEi7nxWai/bdT6O3fsrkexPC6mjytU/o3pLd4AWm8Adi3ToO7A4H59BSvoae4i43+GOstHcSS3J2r3zH12M5tQOTzJFPuqMsZsyHdtMISr2jo+hjCxpX9POXafb8uaKGndAJJuBnCHjX9DBF/TE/xfzlr4WQbRSnLwEfSyFk/dyZwW6ayMZzDmbdNNYjj0fHpfxk9xZ8S+DmwdZ1exWbEcAXdxQIx1sb6huX0kAzvmU1I4qUN17E7p7+VJHcRlc+2aIH0rU32RK5ZU/f/nP5WeorHUS7fs3oNwEZYP3Rv4Hf09H2FQv8UXwKjrKe0Iz3FK1d/zrR5A1zRFkR+Sk/pNxT6dqijYU+lM8daG7xmVjh7NAzW5FX09m1NMmUhxNMY+vS1HnyIpbk+CjdtjqTKWnJDII2gI9oGIB4OZHnJb87ylfMM4lh3fG7ah6R8K9AISYJAYC69pQtrIgEQYi5jyTxLWr5TM4m4kfBw+jUg64YGzZdgeGplribOo7BwK/5RXgicAazRYFHOQTiapHwLPcWZaOTFGOgtHgvxZup31t6LXeB+JOEWeorHNFR7rTrqwxVfSwx9wIz6e3zYmSR3o7NhpcqYwJJGWlfH74h8KePb7JP03JQ3iGNg/vwcPaVuYnIlsHGDXd3BPJ1cQ+GW6eN6FoFfVNGzO4TeYmdD3I2evk9D/GgVgbypyZ7OMuyzbPzvW+l9JLmbCbQ1eLy3Aa6nt3i8SYgRdEr/hvQu+jWRz1Nbi7OPtAnAF+kt/aphP/9WbeotHkHkCmCd+r2IuBFwrX1/afhMYEmj8j7KFYA/ZiiZIyTfpnDHBIM4igoLJnH3ZhdD7AJGa6bHKuA+4CoCFxHiecTwdeBbEL8LXErgVmDJqPz2ENoJq341rou7d3b8BvhpFRdRqPvFTnv73gzhC9nbEhYyp+2q5mo/uYVCSMft9w8tsn0BxO/TeLOuXvjdEzmd3tJP/ZR9BHQvehPl8m0Q92uiq34DSbyN7uIbrAAa/WesdOrqDWIa4TPPtSC5gp5Fu3ljpZfWYgikUVBoW0Zv8aNErqTS9VIiO5FbciLQbSBH497cMp2w6jLgNSN85D+v/ktgkSQtUe64Z9iD8N6+rUnZkyTsS2R/YM0ROaNAB2HKzzhr4f9wzKzl4xLvNBxJEmeQbTHcAPG79JT+TFf7ovqra4t2IqY/InuS9FFicighxCZ6QiPE8fuUurBwHZYkPwPGYhHgVcCfgcXE8ADEJQSegriMQCSyFoS1CKxFZBPgVcCGo3xOB7J8xeUUFryewuxBVLne0seJ6VcZvT+OPKMM3A/xXmK4H3iKwFOEuHT1v08hDWsR4hoQNmdopt3mo9z3X4/Az+ktHkVn/hwrg0bpGeskxhNH8Tc8QeRuAncS+edQuxyWrF4WYU0ia0Jch8gOhLAjMBJJ/+mQXkHhpjyFmff//15QOSU630T6TyawpNHSmb+a3uJ3iByeYQh3IoW+iyh03GkgR9Ap/RuSrrqCyM4jdMQHIXyHNP0JhY7bs9eVjsXAYuB8CgsmkZv8FmI4GthrBM5xNktyFwDvHJ+EQPs/6Fl0AKTXZ+zkTQYupdCXp9DxYN3UtcKN65Gkl5M9GbmKJBxE14w/NcnTuYLIrSTpaXTN/Nn43LP+TUnKvwJGa1HqPxO4jhivIw03sMMDf+Tgg8sVnuPLyJV3Jo37EMKbgVcz8ovKzyZMeS/wPV8alby3Y6C3eCoxnjBqg2rCdZAugNy1TJ9+J0dvvbKy+nPHBHh6O3Jhb2LcB8JrgJeN+Ngi8i16ipvS2T6nyRLwGm29pc8SY88IH/VpCL8hxN9STn5LoYL3biEmcNMWhJbZhPhWhta6y7qQ/HrkksspLJhJYfbQ7Pwyy/1eSnruS0bSKD5hq45lYMKbqfyv5hNJwrcpxD3H9VOaRnLa9WszUP4tsOMIjFRuJMTPs+1ff1HxAPQlO0OzVwAXAxevXlj5NIZ2DKvGO+jt+xSdHV8Zl9h3zbiF7uKhBC4m06frcSNyyWWcedtrOHaXpTVf185ePJEnHr2EanYbi/FjzMlfV7sXGfYhDX8dkUO1huWc3PbQuF5OYdFOJOUrGPn18B6A+CNI/4+uWb+v/jzb/gVcvfq/LgqlDcjxNmI8HNh95G5v3AcTWMN3Tn8r80rnQ3jvCB95GYGfkvJ9tn/gyqrfN4UdVwG3r/7vqxRiQijuTZIcSoxvZ6Rm/w45id7ippzT/6GhDW6kKvUU30+MZ47Y8WIsEcJ5pMsu/HfCqOJnKqQMLRdxH3AeZ9ywBitb3wXxsxC2q/yc2Ilk8leBw4b+j3SZK/5IzxleGwJpFJ241+N0932SEC7OUHomyaKjgLMNZLWDvgWTGJhwGdUnr24hJiczd8avxuS8u/I3EeNsekqHEPgSsH72jlr4PD039dE1szgu92Bu/qf0lE5evc11lo7mq1m+/AIK8Z01ndSNMTCvdB6E7J+gRc5kbsf5Nf1MpeGvFf2Vupb19m9JLP8WGMkFqH9NDGfSNePqUZ2BUmj/B/BN4JsUbno1ueRIIodS7aLhkUd9cQz3HsSEhxddABwygkf9MyGcyYRVP+D4PZ8evXMPKbAAWMBZCz/B08khhHA8sO3I/ILwPh4p5yjE9/nHOFVXV0u7QvwWIzHjNMYSSe5kumZcOeLnOfS8fptC/A650gHE0APxVRU+Nx+kp/Qrutrnw6plDtelZzOlK436wL3jJxAvyfiWPYV5N25mEKswf36OZPIPqe5zvKXAZ9nugRljlrz6dz8mRObmf0QutxtDsy6ymgDJhRT6p4zbvehqPx24oIpgHERS6q3tZEjpxNUJhKwuI7af4IM7ZoOiDYjlXzMyyatI4CLSsBtd+Tcyt/2qMf18qjDzZjrzHybNbb16w4gVVVzHj6wcwxoIB5JF34Q4QsmreDcxvp902TZ0tn9zVJNXz3XMrOXM7TiftH0HQnwnhN+PzCXxbpLS160syuy069cmiRcztKRANR4mcjBd+Q46RyF59az2OKR05i9l/WR3AicAFe6sG79Foe8V7PDP5VYA6dlMYEljIddyFPBEhpLTSFu+ZQCrcPdmp0I4qIojLCLwKrryZ43454KVOLntIdL2/Yihms8ANycpnzyu92P6Oh8lckMVRziR7r5Da7Kudfe9HcieYAvcSrrMmQpjpXDLdJJ4BbBl9QcLv4cwm878wRTabx3f62r7C3PbjyKwA4SfZDjCOXR1/M4KMgy9pdMhfnQEjrSEwHGs37Izczu+P64L6BdCSmfHxaRLX02InwaeGoGjfozu0qlWGGUyMOF7VbfTgYtIczsxN3/RmP5h4Yi2ATrzZ5Amr1q98/RwrU2OL6zud5rEkv6DCSxprJIPcGzG0m+s2QF7zQ8u+l4PfC57hyeex/R19qIz/+faGHCHlLntn4bQWcVRPkuhuM24XcPRW6+ktfUghnZfy9YNDeE85pVm1VRd6+nbnRAuqOK9+hAhHJB5HQ5V+CzFhGRgPrBLlUdaSQifI136arrar62pa+zM/5mu9ncQ2Bf44zBLPUi67FgryHCe+eJRwHEjcKTLSOP2dObPrKm1ogqzB+ns+Aq53HbAT6s+Xogn0lv6uBVHFekuvRfYv4ojlCF8auiPC23/Gr/nacafKOf2IMQfD7tMDAfTU9wLeNiKIP1/JrCkMRtMtP8vWT8BC+EsCjeuZxAr6SzcuB4xfC9jOxchHktnx0cr3uVpLHS1zyNySsbSE0nGeV21k179Twj7k/0v+xNJ408p3LR5bdS1GzaCcBmQ9fPM5STJW5nT/lcf3DGSW3QyxP2qPMp9pOksOtu/OK4zZl7y3ZO/mjS3M8SzgZeY3Rc+axJ1GHpuygNfrPIoK4FP0pV/a03vsHpy20N05Q8icPTqc84uxi8xb1G7FUjDctr1axNiNc/ZU8Rkf7raa2Mt2ULbMubk3w3x9OH2/ol8Hhi0Mkj/nwksaayEEEnLR1Dxd/AAvIxcy5cN4rA7yYGk5XyyrWuTQvwYXR1fqOlr7GrvJPD9jKXfMO4zmLra7yAmhwBZP8tcvd1035rjeh2F/ikkrT8j++51kRgOY86Mkg/uWCUfSnsT49wqG5lLSOPuFGbeXBfXXGhbRlfHp4B9GNot6/leUhcOLRqsl3jmXwbJfKpbKP9PEPegK/+1urnuzvxXIe4B/KWKo0wkTedzanFdK5Je0sDE08m+ec0S4I1jvm7pcMYCXR0nEhneboqBDmArK4P0/5nAksa04zvrPgKFjMPcd9Nd/B+DOJwB6qL3AG/O2Lk4iq6Oc2v+GkOIlJd9FLgjU/k0njju1zB3xq8gHJM9h8BOJOFHzJ+fG5fzjzGQlL8H7J79PtLN3PYf+9COVRt843rA/wG5KurdN0nz76TQ8VTdXX9X/nqmr7MT8EngmRl/q4jh66RTP2AFean6ExOS8veBTas4yi3k4qy6XGesq+N3pHEP4M4qjrIZg1xAIToG0Yv04/p2h/jhjKVXEDiQrvxNNXt9c/PHQfyGN1qqnC8PaayVl30JyNZxDXyTM25YwyC+iDNvm0oY9vTs5/o8ne3frJ/B1OwVpPE9ZPus43/oWfiqcb+Goan91WxU8Gbu3nx8Zsv1FnuAd2Q/QLiQOe09PrRjKNfyZYgbZS4f6WZu/si6Xmj/6K1X0pX/Gl35TUnjJkyetA5z24+isOMqK8hL1Z9FRwBvrOIIC0jjPpzcUb9r2hQ6HiQt7wVUkxx4M7nSR6xQepEhahdZl4CIvJ/O/NU1f4nrt3wauNZ7LVXYOhgCacyTDoPA4UCWxVo3YcWE0wzii1i+/ATgFRlK/py0/cT6q08dtxPJkrALhNxna6MTlzsaYhVbWsdP09P30TE95+7SeyFUs6NjkXTpYWO6G1Kz6y2+lsi7qzjCqczNFxrrfdTxIMfustTKMZxYlTYgxmp20ruadNmb63Lm3n/FYtZjTBx4AyFk/4Q2chqn9K1vxdLzPGu7Qsy2cHuMZzE3f1FdXOcRbQPk4ruAv3nTpeEzgSWNh678bTDM79//K+0QP868vj0N4vN1em7aHEKWXQcfoqX1Q3U7qyLmPg9Uvghw5O2cedvUmujEtQ4cDNyT/SDha/QWXzsm59tTnEmI3wZCxiP8hTS8lcLsFT60Y+Sc/lYiX63iIfsune1zDGQTy8WzgOnZmqdwM2l8W0M988fv+TRJ+maGv8Plc61NmS9YsfQ8o9M5Gd+v1xOXn1BX13pyx8PEeJg3XaqkiZA0PtJlvRkH7Akp53H24okG8bkDjHASMKnSkSkxfmBoZ7w6VWhbRiTL4Hoay5YfVBPXcOJejxPi/sBjGY/QSuQiCsVtRvU85924GUNbyk/KeIQlpOFACu3/8IEdQw+XPwPskLH0b0iXf8TZck2su2+/Kmbv/ZEkbYyZV883+E7Lb8zebof30V3a1wqmf+tdtC3Et2UouYIQD6/pHWFfyNyO3wIXePOl4Q6EJY1T0mH2CuAjvOS25s/b6duOJx51NsCz4nnjesRwaIaSP1rdeahvG+T+jyyzsEJyaM1cQ2fHYmJ8B9k+rwVYh4TLOe36tUfl/M64YQ3S1svJvitSSozvo9B+qw/sWLYNt0wHsn7u+RDp4KF1OSjSyIgxEMKZGUuvIA3vqOs1r17y+Zp1HzF+CMiW4A3xTGIMVjQNvSXjB7KNT+NpdHYsrtvrbuEY4F9WAOmlmcCSxlNX/noi52QrHI6n0LezQXymNWv9BJXPillCUj6uIa7/iLYByPKJVHwtp9788pq5jrkdC4AjqzjCNgxMuJhz+ltH9Lzmz8+xsvX/IGZf+D5wEnM7LvNhHeu2YdWRwJpZhlLE+AEKezxiEJvYvL79gV2yPfPhmKZIWA+1a1/PWHo35pXcYVlD79kQs/xRbTHT1z2jrq/9pPyjgGvcSsPp1hkCaZzFeAJZZs5AK0n4NvPn55o+hoX+KRArT3oEvsCcWY2zeGYL/0vls5dyDK6qrU84uvLfBs6q4giv5eH0ayN6Tndtegbwlioe9O/SmT8Dja2zFk4GPpXtlvGVhpidqSrf0UnG2c7hJ3W1q2210mXHAndmfNacUS64Z9N9ybIJT4y9HL31yrq//mnlb0L4uxVBenEmsKTxVuh4ihiyzjiZwT2bf7rpYxjK7wZeVmGpp2lZdXZDxWHoL3iVD7hDeF3NXct2DxwH/LyKUedH6ekbmWeju3g4IVSzY+P1pGscYWM3DpbkDgfWy1DyIWIsGMAm1118AzAjQ8mnyCWfbK6+zOwVBLJec57evtdb4Zq+M/f+DIXuIy7/UUNc/jGzlkN0Fpb0EkxgSbVgbvvlEC7MNk6PPRQWbdHcfZ54SOVx41ucuNfjDReLGC/MEIvaS2AdfHCZiQPvgfD7KirGF+jte3NV59FT2pvAN6o4wp9IcwdR2HGVDd1YD6hjAhyT7TnixIZcdFuVvls+l61gnMvJbQ81Xbw681cTuChbyKr6I4Hq3fz5OSJvytDnObWh1ihMl30XeNIKIb0wE1hSzby0Bj4FPJqh5BSS9NymXQS1cON6EPapsFSZGM9uyHi0hl9S+WK6m9Hbv2XNXcvxez5NMrA/kHUB5Bwx/IjCop0yle7t3xLiT4AJGX//k6RxfwptLsw6Lj2cRXsBr8xQchFd7e4I1ezmlTaB8NrKC4bfky7/WtPGrZz7HJDlc659mbdwYytek7r3lbsD61T8jl0jvbCh4lCYvQT4vhVCepHunSGQauWltccjZJ0tAPvSWzysKeOWa3070FJhqasodDzYkPE4Kf8ohD9UXnBwt5q8njl7PAC8DViR8QhrkqSXDyU6K3keb5lOLF8OrJt1GEcIh1DouBONj5C+N1u5cDohRAPY5GL6vkz95Bh7m3rXykLbXwgxSwI4R8y9z4rXpNJY+SekkQuHPrtruJfXt6wQ0gszgSXVkq78BcCvM77wzmrKv16mGT4fhO81+Mjr2srjyM41/FzcBOEDZN2mHTYntPyUsxdPHNZPz5+fI1n1A2D77P1PPkNn+xU2auM1iF4wiRjemaHkYsozLjWAIpJtPZ7tH7jE4LWcAZTHKOZqiOct7ldxmVzyncYcC7TfUd3yCVJjM4El1Zo0/RiwJEPJtUhzX26uQWrfmgT2qLDUCtJcYw9QYyxVXCYku9T0NXW1zydyaubygVk8+dh5w/rU9u7NvgxUs637t+jMf9XGbByFyf8DTM9Q8iwKITWATW7eonYI22Voe0/l4IPLTR+/zrY/Aj/NUHIHCje92grYZM5ePJFAR4WlHmDOjFLDxiRGE+HSCzCBJdWawsz7CTHrltLvoLv4tqaJVS6ZBeQqLHUdhbZljR2XcFeG3tLONX9dXe2dEH6SvUPIofSWTnzRn+kpHQkcVUWv80rWzx1tQzbevZtwYIZSy5k48EODJ8ppls0fnmiY3dBGQojnZ3t2c282eE3msce3p/K1Jn/V0DExgSW98GvCEEi12HnOf5VIX7ZOY/gahVumN0Wc0rhn5fGh8T/rGlx2N1kWch/uJ3bjNiAKkTR5P/C7Ko7SS3ff25/3X7r79oP4lSqOfQ+tAwdzRNuAjdh4d/7ZJ0MF+yXH7/m0wROByhdvD/EiCrNXGLzV1mv5LfDPDA/vaw1esz1v6asqryaxsftyhY7bgYesHNJ/M4El1eSLK6SE8GFgVYbO30bkVn6+SQYZlSewYvhN49ef2UuAv1cczcf+tWHtX1vbMpLygRD+nvEICSFc8F+fqRT6tyOE+VS+IcAzHiPE/Tlxr8dtwMa7jizcCtgkw4DoxwZPFPqnAPkM7xZ3DvtPR7QNQLwoQ8mZnLVwsgFsJqHSBNYAcflVTRCY660b0vN15CXVpq72O4iclqlsDB+mu292Q8dnaLZQe4WllrLd/Xc3R38wPFz5G6GlPjYBmDPrb5AeAGT9FHQKSfIzCjdsNDRgXbgOSflysq2ZtLozHd9BZ8diG65aqPstWdq+5cTcLwyeyA3uSeWfM/2NzvYbDN5zn8VclnWwJvF0yyyD10z1pMJNZAJ3rf5DXaMzgSU933DFEEg1LE47FbgjU3cghHMb+q+YTzy2HVDZ9UVua5oFdmPM8ulG/exi2dXxO0KsZmfCjQmtl3F6/1okuYuBrbLHOnyCuR0LbLBqZTAU98lQqtTwa+NpeNLwmgyNwAJCiAbvOcphIZlmkqd7G7ymsnWF/Zubm6MtShdaNaT/ZgJLqmWFHVeRxA8DWXbF2ooluUIDD1K3zlDoluapPFkSWOlGdXWJnR0XQ+jKXodoY1X5biD7bMXIl5jbfp6NVU3V/VdnuI/OntEz7cIOGUqZwH7ePkzbMoiLKr8HyQ4Gr6msX+HwtTn6cmvGuwB3NZWeo8UQSDVuTkcf3aWvEuKnMpQ+hp6++XR1/K7h4hKTrSqefBPiJ+gpfsJK9cLdpbo7484Zp9Bb2h54T8YjbFDFb/8F2z9wrNWmhpzT38rD5S0rLpcEE1h6xjYVlwjBBNYLv6uvI8Q9Rv0eqD6dccMarGRqhaVua4rYHDNrOT3FP1PNDHGpATkDS6qLDuDSOcD9GUq2EMK3KSxowGR1lhlYegn198lpCJF02eHATWP7e/kDaXxP03ySWi8eiVsArRWXKw+WDJ6YPz+XYbD4OJ35Pxu8F2or09szvd8L0TFKM1ierF9xmbT8QBM9QHdaSaRn8+Ug1YPC7CUEDifLej+RXUmmfq4Bo2ICa+RfCZPq9PlYQZo7APjTGP3GRyH3VgodT1lnak26fYZCj1GY9ZixE/dssTkwscJ37D0G7kVl2dxiEvRtauiaoduRq3T345QNW//WRO+0+60k0nOaDUMg1YnO/NVAxm2641wKxUabkr+ZlWKExVi/i/4X2v5FGt8GjPbORCshOZDOtj9aYWqxDmf69Mh7qdVjxcEtKi4TuNfAvVhMybY7a8htafCaoc0O0yss8TBHtA000VD9ISuJ9JynwhBIdaSFY4BHMpScROA8YgwNFI3pVogRFuLEuj7/QsftxPAesm16MMzOdvwIXTNutLLUrE0yVHwTWHqmV7xWhvqz2MC9aLv8FJBlUxHf8U3xzMVchSUebKr4xGgCS/qvV7Wk+nFS/lHItJg7BF5Db+mIxugQxwSYZoUYaeGRur+Eue2XQzx+dDqS4TTmdnzfelLLVThDAiLGvxo4AZCyRoZSfn760h6v/FlO1jBsTdFoVzoWfbrJhuqPWEek5zwVhkCqM10dFwKXZyx9OvMWblz/QShOs/0aFT9vkGfkC8B3Rvag8RLijDlWkRoXQ+UJrBCXGDitHktXnjSJ6dMG7qXiGpZkeC5NYDWFtNK+3PLmGqkPLreOSM95LAyBVI/v+3gkkGUB6bVIW77RABFY00ow4iOMC+nKX984z8i0jxO5boQGXzczefL7KYTUelLrYoYEVrLUuGl1/ckwszeYAH3JsMbKk3wRE1hNUTeSCseiYUVzxQcTWNJzmMCS6lGh40FCOCHj2/AAekoH13kETGCNnDLEbzB97Q821jOy4ypi7u1UvUB3+Dvl9ECO3cUkRz3I9gmh91bPDBanZCi1zMC9ZGCXjdG9UP09cxWuzZo2WUInWWElkZ6txRBIdao84xyS0ruBvTL0GM6msPDKut06PkkCxAyD2/hp/5r1LE+RcgOFjgZdFHXFBGitcmH6OBHSSVaVuhkMTc3QMDhA0OqqEFZU/m6Jrsf40oGtvA1NfFc3SaO9qsK65OQLqcmZwJLqVSGkFIofJuE2oNLO4fokyReBw+ry2tPyUpIMfZiQXkznrL9ZeZrAWQsnsyR3CfCKKo+0Lknu55x2/UxO3OtxA1vr42SWZ8htO9NDz7xcllDphJAQ1jZuLyGyRqVhJQbXFmsGSVhOrKTRDs2WMPb9JD232TAEUh0r5O8FejOO9D5Ib9/r6/PCW7OtOZK2TLfSNMNgKQaW5v4XyI/QEbdlYOKPKSzwjz61LiXLYtFTDZyG2o4sSZPoe+Wln7HKkw4ujt8kyhXOgG2yGY+BydYR6dlMYEn1bv3cmcBtGTvr3+LM2+pw8PZ0tgRWkmF9HNWfnmI3kXeP8Mh2P5LJXzG4Nd/Zr7xtiMFPwLS6/mRIYMVkHQP3koHNsCC7i+M3hcqXdWiuxf1TE1jSfw/nJNW3I9oGIB4ODGYo/UqWreitu2suzF6R6XpjOt0K0+B6iu8hhDmjNAg7kp7iUQa5plW+IHs0sa1n6kKGBFaIWxu4F3tf3zEB2CBDyacMXhNIQ6UJrOZKGCfRBJb03MfCEEgNoKvjd0S+lG1MztH03JSvw6uufD2imGxuZWlgPcWZwP9S8SI2FfkS3cU3GOyalSEBwSsNm4beEeUHMpTa3sC9iNyyVwK5yu9F7gGD1wwG/1VhgVdQiE00fk1ebh2RnvNUGAKpQaxRngvcl6V7CbnzVv+VtJ78qfIi6bZWlAY178bNgJ9S+YYGlWohMJ/Cop0Meg2K/DVDoS0NnABYZ90/AuUKS23t+ngv9tpNt8pQahAm/8ngNYM9/kFlM+on0vq79ZvnnRZfYR2Rns0EltQojpm1nMARkGEPLuKrSJ4+oc7e6osrLxNMYDWiM25Yg9jyM2CsOrVrkqSXUeh/mcGvORnaBbZorr/o6wUdvfVKoNKZPxPITfIzwhd87Wb6xPJ+CjuuMnhNoBBS4B+Vdf8GN2ue54eNrSTSs9lhkxpJZ/5qhj6hyvKWPIlC3w7181IPWWabmcBqNPPn51jZ+kMiO4/xb96CUP5JHc5cbPDOfpKlXZgM/ZsbPK12b8UlYrK3YXvBh3LmmNwD1a/IgxX9fDnZsoli4wws6TlMYEmNJp1wLPBQhpITCeG8upmJkGZKYG3GKX3rW0kayF2bngHsX8URFmcuGXgNuaXf8ibUkFz5vmz3sryHwdPQgDHcU3n9ifsYuBcMzp4ZBu331EhlaPBxUo1cXwh/q/Ddu2sTPUCb24ZIz2YCS2o0hd2eIMZPZhyQzyJX+kR99LvKd2W6wrJ/KW8Y3cXDCeGzVRxhAdPXeRVwafZ6GA+jp3icN6NGnNzxMFl2L0vYy+BptZsqbwfCPsQYDN1z9PZvCXGjMbkHoyJMaej7E2vl+tIK/5CU7toc/fm+NYEtbEik53bZJDWeuR0/gXhJtg4Np1Do37T2L3LF7WTZcSz6l/LGGBjdtA+Bb1ZxhMWk5Xdw9NYrmTzpfQRureJYp9Hdd2Bz3YC0lhet7s/Q7pnA0pCW9BoqX0tyfU4p7W7wnvtcDe6bqRfS2npNjVzBlAa/Q1Nr5Dxuq+zHw27N0RYluzK6uypLdckEltSoci1HAU9kKLkGyWDtfxZVmD0ILKy4XGAfK0edKyzciphcDLRmPMLjhGR/CrMeA+DYXZYSwgFk+/R26F0awg/oKe7SPDehhmcmBK7LUGhbeouv9OHS6ll8lc/wLfMeg/df3pnhWfwDJ736nzVy/tMbeofJQG1sRBJihQks1qV3UeOvaRrT3ZD0PJ1uSQ3aCW97CDg2Y2/iTfSU3lcHna/rM5Tanp7SjlaQOlW4ZTpJcjmwbsYjDBDDO+mc8ew1Vua0/5UkeSuwPONxpwGXUyhtUH+d5GRlxWVaanpmQpZ2IUA8xAdMqx+KazLUoEOYPz9n7J5pq29cD8I+lRdMF4zeSaUrKm7pclM2adxqToW7+cUVo3Ie2/713orfvTHdr/EfouCsTul5mMCSGlln+/8CV2fs2XyJU29+eY13vq7LWO69Vo56HBAtaCEZmA9hu+z9QT7J3Parnvff5swoEcNhVP750DM2IYmXctbCyXXWFah8UFKmdq+xnOsDVlXeLiTv9iHTUDuRXJWh1IbctdnrDN5quda3A5XPXgrxqtG7r2FJxWXS0JhrEBUWrgOsVWGpp0flXA4+uEzkjgpvZmMnsGIMRPZD0n/3Wg2B1Mid8BBJy0cAyzKUfhmDA1+u6eubvk6JLAs2h/geF9ytx/o85WyI2Tt0MXyFzvw5L/ozc9t/TKSnirPMs6TlO3VVv9KwPMMzVLu7eRbalkFclKGCvIqeha/yQRNTB38FPFn5c8HRBu/fA/AjMpR6nLVe9uvROyeWVn5PG/Qzrlxu1wwv4SWjeEYVzpyN+1C4Y0LDPj+9/bsCGyDpv5jAkhpdYdZ9BAoZS7+H7uL/1Oy1Hb31yoyL1W9Gz6LXWjnqqTNX/CSBj1cxcvkV298/vB0Lu9q7CfHHVfyuQ5hX6qqb2LaszJLA2qy2Lypk28SC3Kd92MQxs5YTuDhDyTdR6Nu56ePX3bcfkGFNwHDR0Ht91NqFDAmYpKMh71EM7RkKjV4CK4lXVlhiTXJPvbFhn6FQfiOSnr+5MARSEygv+xLwu2wvUb7JGTesUbsveX6UsdzxVow60Vt6I5GzqjjCHaQcwsEHl4dXN0JkanoYMZayDw6YS3fpXXUR3ynhESr9bDImm9f0NaUDFwJphpLvo3DDRj50IobvZ3qzJFnXnmykwXf4XMag/2B0zyv+K8M57UEhNuB4Ke45NvEbpkmTr6XiT7+T9zXsMxRDk+1sLFXw5BsCqQkM7dh3ODCQofQmrJhwWs1e27Z/uQp4OEPvYD/mFdusHLVed/t2IMYLybKWypB/EtifQkdln5oeM2s5LS1vBf6adahEiOczb1F7zcf4mFnLgUcrfH62ru16s+ffgWsylJxAaP20D57onHEd8ECGR/+Qpt4oZKjNy/Kp9/10tt8wysOexRkKbUBSyjfWe7V/CpBlFvriUTunY3dZCqGynaUjb6HQt2bDPUND7UceSc/fkhsCqUl05W8Dzsw2FI8fZ17fnjV5XQcfXIaMn3ulnGTFqOlO9stIwuVUvtDsM1ZC8jY683/OVPrktodIwwGQYd2UIZNJ00sp9L2iDqJdaaKurQ52XMs6O/NI5pU28QFsciFE4NwMJVsgfqUpYxZjoJx+Cah8DcAQz10d89FTnvJnYLDy6+JtjVW3B/eDDBtxxLB4dM8rXlHxOzZJPtiAz9HhNsDSCzOBJTWTdFkvcE+mtiLlPGBSbV5XyzfJ9rnQ2+jum23FqEGFOyaQlC8BqtkB6qN0zbixuvNov5XA+zLWL4ANScLPOPO2qTUe8b9U+PNrcOfmtb3geTrhYrLtmjWVGL/oQyjSCd8gy2LusC+9pYOaLl49pUMIzMpQ8glaW74x+u+VHVcB91dcLvA+zulvbZj7FMIHMpSKpLlRTmANXkjFuwDHz1BY0NIw96awYBKBQ218pRcblEpqoqTA7BXAR7INxsN2RGrzm/xC290QL83Ykft6Q+9kU7dvp6fPAfbKXD6G0+jKXzAi59KZv5RQ1Wy93Vi+4vs1vY5KjLdXXCaX7l3b7d1uTxDjudniwTvpLbrRQ9O/M3d7Avh6xmfqLE7vX6t5YtW3JoEzMjZAX+OEtifH6EzvyFBmQ/6RHtQg9+kVwP4ZSv5paIfXUTRnjweA6yostTnJ5Hc0zHOUm/IR4GU2vtKLDBEMgdRkuvLXEzknY+naTfQkuYwdZ7Ynt+QzVowa0ls8HsIHsx8gXkKcMWdEz6kzfwaB71VxhLeRFE+p3ecn3Fx5mHln7Q8G0i9R8cLA/76+cxtyfZX6FMbtN7e0fhnIMnDfjIHyN5toRPF1IMunt0tJW8bwk8t4TbZy6THEGOr/PoVPkmVNycA1Y3SGGRbyD3MaYhbWWQsnE8MJNvfSS71uJDWfGE8AHmyoa5ozowRcnXGg2u2C7jWit/hWIqdmH+aGm5k8+f0UQjri57bWOkcQqWKR4XACPcX312Tcy7mbM1zPLAr9m9Z2uzDrbwS+n7H0luTCt3woa8L47YR70qv/SYzZElGRd9Nd/EDD353u4rshZN0R7usU2v41ZueaZuwnhNBOT7G+Z2Gd0r8hcFTGunz12NyfCRcDKyostSO5yUfU/XO0JDkCorvgSi/BBJbUjAodTxHDkY14ZVS8fgIAE0n5MYVbpls5xvPulXYl8oPs76bwd8rpgUO7GY2Co7deSWvrQcCfqzjKuTW5IUKh7S9UntQOJIMfqYOuzplkWbj5mQRET9+HfDjH3fh+ihfpAR7K1izxVXqKuzRuu13chkDW9av+xsSBeWN6vnPzvwf+me1ehlM4e/HEur1Xg+W5wJRMT0Aut2Bs6tNuTwDfrfwMQzenXb92/T5HN2wEYa5NvTSMXp0hkJrU3PbLIVzYUNfUlb8e4g8zlt6CZNV3a3qdokZ2Sv+GJPFnQNbFzpeTxAMpdIzuzMKTXv1PCPsDT2U8wkTScAm9xVfW3k0Iv8xQ5qia/8yuc8Y9EKtYIDp8nd6b9vEhHUExlCssMXlcEweFjqeIfDZj6TWAXzTkzpan3vxyEn4JTM9YDz7L8Xs+PabnHEKE+IuMpbfl8cfrM8kwr/QaAln/4NDPyW0Pjd09yn0BqLSNWJfBCfW7+2fS+vXMz5HUZByoSc0sHfgU8GhDXVOu5bgqkgsHEkrfaIh1LurJWQsnMzh4KdnWTwGIRD7AnHz/mJxvV/sdxOSQDB3sZ7ycyOU1l/gJ5SyDuukkyWdrvo5NaOkCHs5YehIxubShZ9GMee8zVj5L8ukn1xnXc56b/xFwVcbSG5Pyi4Za1P2shZMZHLgM2DJjg/Nb5rb/eJwq4Hezt5PxWOb1ddTVvTrztqmk8duZx30hfm9Mz7ez7Y+EeHGGnsCh9PQdUnfPUnfx3cBbfTFIw2zBDYHUxAp7PAIc01DXdHLbQwQK2TunHEFv8VQrxxiJMbA0OZ8Q2rPfszCXufmLxnYwO+NXhFhN4mZHkvAj5s/P1cy9mDTlKiDD55fxeAp9O9R0PRva4ey4Ko6wFvArehdt21jvgJjQU3w/PcUr6Sn+ge7i5znztqlj8JsrXxQ9Hdxt3OOV5o4Clmds7F7FysHfUFi4Tv3Xm/4pLMn9FJiZ+f6n8ahxO//OGdcBf8xYuoU0XLx6Pan6eMcuX/FdYOuMR1hBOf3R2J937gwyLQkRvlmbM5xfQM/CVxE4F0nDZgJLanZd+QuAXzfUNZWXfZUYS9kPEE6gu3h6Q8zEijHQW3wt3aVT6enrord/y5o6v57SXGJ4VxVH+D/mzJg3Lufe2fGVKnb0BHgzd2/+hZq5F0Nrh2WZETGRwPkUFkyq6Wehs/37wPVVHGFDYnoD8xa10wgK/S8jKV0NfA/YF9iRwLEsX3HJqO/olYYllZdh/Ge9FNruJoZPZX+1hHaSlmsolDao23pzev9ahPKvgTdU8WL6JIX8veN2DSFEAudXcYSNGRy8lEL/lJq/X73FTuAdVQTrUgqzHhv7vumMWwj8X4aS04n8oi4SxacW14XcZcA0ByPS8JnAkgRp+jFgScNcT2H2IDG+C3gie5+N45lX+mFdL9ja278lPaXriFxFiCdC6CaWb6e7b3ZNnF9P3yEEurKPgegjXXb40Jom42SD3CfJ/lkRED9NT99Ha6gxyPaX4BDayU35Tk0nfUOIJIOHAo9XcZSXkaZX073oTXXdRvYsfBVJuQjs/Tz/+nrC1C+Pbu8z/C3D/ZtVE7Gb234egR9W8cy/iiReX/OzFp/33dr3ClaVFxDIvhFF4Pt0dXxn3K+lZdU3qusjhHaS8i/HaMZixj5A8VgI3dW8EEjT08bt/MsDxwFZ1kjbniR3aU3/UaVwy3QG+QUwnNliiyE4S0t6pgthCCRRmHk/Ic5puGuKfIhsuxKuHmfwbp547LfMW7hx3V1/d+ldxPLNzzPQmEII3+eMG9YY1/PruSkP4TtA1oTHX4jhbRRmrxjX6ziibYDWVe8EqphNEL5Gb/G1NVFvumYWgVsyPy89pW/W1GeRzzVnjweI8bCq2gWYSkgvp7tYqOlrfcFnr3Qk5ErAFi9cJeMn6CkdPHonkWb5fGsfCou2qIkYlpd9DOLdVRxhK5JQpLv0rrqpN92lfUnC74BqPuW8k0mTPl4T13PiXo9D+GKVR9mbZSuuGJpJU0NiDPSWOol8vroDhfkUOm4fv37cnn8n0Jux9F4kU39GYUHtzW46tbguuYGrgPww360nQ9wTSYAJLEn/7pDnv0qkr6GuaW7+pxC/WuVR9iLN3U5339vr4poLpQ3oKV5EiBcCL7RI+MasbC2M3zn2bwrJpcDkjEdYAhxAof0fNTMQStkfyPqZRSuRiygUt6mNwU8VW3kHjuDuTefX9GLVczsug1DtblU5AnO5e7Or6ibBPe/GzegpXg7x68AwZibEr3FOf+uonMt6LfdT+SYIOZLyp2oiloXZSyB5B9XM4IFphHgh3cWza/pTtMKCFnpKcwjx18B6VRzpcdL4ztWfKteGiau+AvyzqmME9mSQfgqlXWvkfk1jXunHxNhT5ZEGCaEw7tdTnvYV4I6ML7P9CJOvotD/stp5norbMMh1xPjqYV7DjcRllwONtf6iVAUTWJJWv1RDSggfBlY11HWt3/I54Ioqj7IOIVxMT/F7Nbt2SeGOCfT2fYok3sHw1rs4mp6FrxqXznVS/hmQNY4pIX0vXfnbaiv++XsJvBMYyFzHEi7ntOvXHvdrmdt+OZGFVYzoDmJV+daa+VT1eWvR1OOpbj2sZ+xNmruD3uJnRi3ZMxJtQ0/pBNKWO4G3VFDy5fwjfeOonNMRbQOELIPS8BF6Fu1WE3Htar8DOIDMi7r/OwHySZLyH+gtvbHm6s68Re3kpiyC2AtUM9twGST7U+i4s6au7/g9nwY+NwJH2pwkLqS39NlRXz/uRe9X354kU0pE3ln1sSJfonPGPePffu24CsrvzvycDX3qWRya9T3OeotvJWERMNzPh1eSciS5Sa+s8vmTGooJLEnP7pBHTmuoazqibYA09/bqBuT/9n6SeC+9fSfWzNoK8+fn6C69i2TJHcTwZWC4C5e2QK53TM+1EBOSqT8EdqlisHcCnTN/VpN1rTN/NXBkFUfYhoEJF9VEIiQkxwFpVQO6EK6mp3QZ84ptNXevCjuuIp1wAIGR+DxmLSJn8XD5VrqLb6iZazynv5Xu4uEkS+6GeBqQYZZPOmPUzi/l2gylJkP6E069+eW18c7MX796E4rBKo/0SmL8Fb19F9Lbt/W4X9cp/RvSXfwGaXoTkV2rPNoAgXfRNePG2uz35C+AMBLvlMnE+AWSKSXm9Y3t516F0gb0lM4hDdcB24/AEe8kLuuqnXs06/cEPlPFEbaA5Hp6i8ePy2ffp978cnpL3yFyCS88M/553sPhZAodtxPCukj6NxNYkp4tTjuVzNO1a1ShbRkTVr0Fwu9H4GhrEMOpJFMW01s8ftxmzJy1cDK9pY9z92b3rP5ccKsMR3kThTsmjF1SpHQ6xAOylw/n05k/s6brWlf+20S+VMUR9uUf5a+O/3XMuJEYRuA84gGkLKK7eBM9paMp3LR57bQLuz1BObwB+OMIHXEHAlfQXVxEb987KMTx6WOd3r8WvaWP83D5HgLfZniLBL/AM8co7j4Wr81Y8JUMDvxuzJMEL2RoxuKHqW5dtdUhCe8ihjvpKX5vXBJZ8xZuTE/fVyiX/0jg4yMwTkiBD9OZ/3lNt9spRwCPjtDRdiMN19NTvIruvtmjurHFvNIm9PR9hST+CeJHyb6m5H8ahPDBcV9f8rk68+cQuKiKI7QSOZ27N7+F7r79xuScz148kZ7SkQwO3L167cVK7s8CyjOG+hKxgqSX1ASCIVBT6S4WCFSyvssDdOU3b7o4zevrIA03jkDndQFd+dfWzHUVbtiIpPW3DH/69nAsgXgBSfJDTp5x06juiFeICcmivSC+j6HPBKdXfcwJuemc0PbkqMe+p+9DEP43+8CO64jT9hv6nKDGzZ+f4+7Nfga8OfvbOX6azo6vjO/z0j+FpHwzI7/2xj+ARRD7IdxPSP4Og39jvdb7OKJtYMyvs7d/S2L5emDDET7yfYRwAaQX0tmxeHTvVUxoWbQnaTx8ddswEmsqrSTNbUOh7S+jc84LppFMeYjsW8hH4NdEziWWr6Uw67FxfV66i+8m8F1gpP4oUAZ+DeF7TF/7Mo7eeuUo3YcWwpQ3EHg/cCAwUjvvroL4Abo6LqyLfk/votcR018CrSPfDvADyrkfU2i7u+qjnVpcl8Gw/+p+wGxGejJCiEfR2fH1mrxHQ23G1cBIzAz9DTH5MrHt1xRCOqLneXr/Wqwa/Agkn4G4UYYjPEQa2yl0PLi6bXkbgUsqGN1/j878Bx30qVGZwFJzMYFVQaxKXybEahfMra0EFsBp16/NwITLgL1G4egPQriYGK9kwqqFQ7scVemUvvUZDK8lYV8irwc2GbnTjXfT1bH9qMe8p7Q3xN9UMbD7I2mug0Lbv+rm+Sn0rUku3Ehkp8yD15jsz9wZvxrn69iZJNwAjMWulQME7iLlKmL4/Jgu0l9YtAVJ+itgtBbSX0QIlxPjNUxfpzQiyYhT+tZfPYPsDcB+wEh/VvdJuvJfG922oe98CCMx0EqBv0C8j5jcQxKvGJdZP92lfQmxss+Ehucx4FIiV9ISr+bkjoerq+8L1yEksyHsS+AgYP0RPt8nCRy0+rPq+tFT/DBw3igOu/4O8RoCfaTcS5K7j/LTD1CY/fyfoBZu2IiWCVuRplsRw66EsA/EHRm1L2jCl+lq/0xN36NC/8tIyjcwcn9YuY/Ad4nJL+lsuzXzHyELC9chtOxHiIcAbyJ7Ing5hL3pal/0H2MXE1jSs6q41FRJGRNYw38ZL5hGMuX3QDXXX3sJrKFrm0Qy5fsMb7Hz7AOqwJ3E2E8I9xHjH0m4n8HcIxCXMSlZzoqnlzKxZQ1WTlqbJF2DJK5BmmwF6bYQtgV2BLYepbY6JcaDhnZkG0W9xVcSWQRkXcPhSUI6k86Zd9XdMzR07cUqEgtPkebyI/JX+6razUVvIqQ/A8ZyceK/kQ6+msIej4zpwCiULyfQMcq/aQWREnAXId5HCPdRTv8CLU/AqiVMnbaU3NKUp+IaENYkSdYiJtMhbg5xe0LYiaFZpJuM2hnG+EXmdnxu1GPeU5wJI7I+4fM5la78yWP/fintShJ/ycjP6Pv33YHwB4i/J3AnxHuIyQOE5DHKK5+GiUuGfmzlNJgwjZZ0HcpxMxK2gbAtkZ0ZWodwtJIgf4f45prbaGP4dfIU4KQx/q3LVv/3FDCVoR16x/izsXgJaf6dIz4baXTa6k1JyjcCrxjhIz8E4VpC/AOEu4iDi0nD00wcfJKVez7JxBvWopybQgxrkiZbEMKWELeHsMcIJRYHVid+f/6csYsJLOlZVVxqJiawKo3XGwhV7eBXmwksGPrkJpROJXBcE7aFKSEcRWf7N8egDt1IYFbG0oNE3sLc/K/rNtLz+vYkDVeS/a+xN5G27znug4qhT0DPZSx3QgrMoTN/yhgPjKaQpD+qaq22+rYM+PjQwtZjljD4BdV8bvvCyqTJNhRm/Gns3y99ryAJPwD2brJhxTWkq95LYc+/1/Vl9JY6ibGniUaDP2S93GHj8gl35mds4VYkuV8y9Ee+RjBI5D3MzV/0PP0oE1jSf3ARd0kvbChxcEFDXlshpMzNn0CIb2RoTZ5m8VcC+41J8qqnuFcVySuAz9R18gpgTscNRI6o4ggzCcX3jvt1dHV8h8i7gbFbgyyy+9i3C23LSGe8jcAJwADNJHArhPYxTV4NOYnqd/F7PjlC3Hd83i8dD7LdA/sS6WZoLatGV4Y4l+3uf13dJ68AOtt7CfEoqtuJtT7E8HXK7e+vq+QVQGHWfaS5WcBNDXAXlhJ42/MmryT9FxNYkl5cC8cAjzTs9XV2/IZ0cBfgF43eTSWE80kn7Dxm65IE2qo422+O+vo7Y2Vu/ntEzqgijq+vkeu4iBjeDIzVWmRrjc/AKKR05s8Y+iyExTS+MsTTKU/L09U+9jvQduVvIzBvlHq5G4xbVA8+uMzcfIGQvg54sIHrz19Jwmvp6ujh4IMbJ1nX2fF1IgeMYXs31lYQ4lHMbT+qLj4bfN62uu1fTCvvC+EndXwfHoZ035rfqVOqISawJL24k/KPQtWLudd4J2iPR+hs358YP0QjzsYK/AHYm872D1HY7Ykx+70pGXcFC78lLju6oe5BbD8JuCzj/VteM9cxt/0qkvKuEK4Zg4o7vn2UrvZFTBzYHfg2jToTI8YSCR10dZw4rjt8lpedAiwY+TYo5sY9xp0zr2HiwA5EzqSxZvWtInIG6bIdmNN+XUM+H3PzvyCNuxG5ocGu7F5IZtXsboOVOGbWcjpnvJPAx4CldXb215LL7UbXzKKDDWn4TGCpuYSwosISAwYNVm+DfXmGksvrqG5E5nacTxq3BT7PWH4qNXr+RuBjrJd7NV3568f8t09Y9TOGFqWtZER9N2nrwS+4K1O9KoSUdNn7gEoXNo7E3Pdq6lrmzPob293/OgLHAE80dNt3/J5P05X/CEkyk8b4VOUZ/wI+QszPZE6+f/yfj9mDpPGthHBzw9ajufnjSHM7Q/htA1zRrwnJzszNn0Bh9pKGbgMKHQ8Sl80mhM8BT9f51QwQ4xdJl+1O14xbGqhvH+nMn0OIuxHpq4MzXkWkm3TZ6zi57aFhjNYrG4vE8E8HLmpkJrDUZOJfKizwV2O2WhqPrDgZEXmgDjurT9GVP560vCMh/pj6XL/kEQLHMa28NZ35c8ZtbYsT93qcyIcriOGjpOn+YzpLbGwH6UtIcwdQ0Sy/cBJdM26suWs5+OAynfkvkea2JvJNRiXhG2sniTxnRonO9j0gHAr8rY5r4RMECkzIbUVX/ts19elQoeMpyoP7ASP3iXMItZUIL7TdTVf764nhgDoZaD/XTUTeQlf+jXTOuKdp+j+F2YN0tn+RXG5biD8AYh1exVWkcVfmdnyuYZOOnR2Licv2Wj0b66EaPctrCemuzM0Xhv2HuliutC/9ZwctamTuQqjm0rtoW2J6dwVPyDF05r9k4FbrKb4fGP5skMiHmZv/3/quM8VXEuOnIXwImFbjLfrtpJxNXPZDCrNX1E4M+95BDN8DprzITw0Q0tfTOfOahn+O5vV1kIYFwKQXjUcMn2Bu+3l1cU2n9G/I4ODHCeEIYL0ROuq36cp/pPYGswsmkUx+P4RjgG3rpNY9QeDLtOa+zAltT9b0mZ7T38rD5XnAZ6l618twGF3t363d98tN+xCTE4A31Hj9uQLC6XS1X2tHCCiUdiXheIjvZCx3Zs0kXknInUHnjCub6h6dedtUlq/4FHAc47We4rPbot8T02668pcQQmUJ0BgD80q3E9lpGD+9kjS3DYW2v/igqlGZwFLz6ek7H8IHh/GTRdJl+9RUIqAWdBfnETh5GK3L7ZSX5RsmfqddvzYDEz5C4L1Edq6hM3uawKXAd8dscfZsz93uEC4DNn6ef02J8cPM7Ti/idqhQyD8kOefCf0ohLfX5WDx7MUTefzx1xPiW4EDgJdl76Ek+9X0oKsQE3J9byFNPkvgNTV6ljdB/DaTJ/+YY3epr/Vh5hXbSPkCsHfmYyRJnjkzSrXfHizajZgeRuBdjFwCuFqPEPkxMXyHQvutdn6erw1YtAUh/TSB9wDr1tCZLYX4U+DLdHX8rrnv0S3Tya06FPjoMBNAIyuyEPgysf0nVc147b1pe2JyObDli/zUKmL8WFP1pdSUTGCp+cyfn+PuzT4FHAJsDrT8x78OAvcDlzKt/CWOmbXcgD2P7r79COHjELeHsP6zEhGBh4jhClpXnsqJez3emB2i/u3Ild9F5F3A9uNwBksg/JqY/og10l/WTT0t3LARofXHBPZ8doeLDzI3/6Ome456iu8BzuHZM/uuJ/ABOvP1/wnA/Pk57txkF3K5PDFth7Db6jb3pf4a/iQhnlxXCwwXFm5FLvcu4ODxT3CHvxO5iMB547Kr4EibV3oNMX6UyEHA5ApGjjfSmd+r4tkO41qPFrSQm/x6CO8hciBjP+t3CYHLSJMfEpf8tuHWIhy1+3bHBHJPvZGYHAq8CZg6DmcxMLS5RvwB6bJLGn5tsmzv3JmEeBgxvAl4xSj+pr8S+T9i7rsU2u4esaOe09/KI3FvYtwG4sbE1bP/QhyA8DeS8AvmtLv0iRqeCSxJqqrjumgLknRPYC+Ie0LYbhR+yzKICwnhGkJYwMuTReO2rlXV8YoJofg2QtgHeIqU71HI39u09efU4roMxANIknWIoa8m17sa8Tpwy3SS5ZsQWteH8gTSMJUQJhLj4wQeJF12T13P3Oy9aXtIDiKGvSHOHIMkxCCRhYTwK4i/orP99rpK2gzXmbdNZcWK2avjuhNDfzzY7HnjQbiYlnjU0C66deqc/lb+mc4gjfswNAttj1FIjCwFbiTEawjJtXX9bqmZ9u2OCSRLZ0L6Ogj7ArtSUeJ12AaAOyEsIMYricuuNWlVaTsdXk8MrwNeBWxaxbj4IQiLCPFKSK+kc+ZdBlgaPSawJGlEExI3v5zyyh1Jky0JcStC2BLClsQ4HVh7dUf2uWsfPQksgfg0Q5+P3QPcQ4z3kOTuZr3wJwcVUj0OZhe00DJlV9K4JyG0EdmKoU9Asn5aOcDQAr13EsLNpKGfiWFhza9rNWrx7Z9Cy8qXM5ibSsJkUgaYOvmPdfe55HCc09/Kw6u2IybbEJKtIW5NZBsCGzGUJJ3Kfye4lq7+bwmRvxO4F8JiYrqYkN5LuvIuZ1mNsvnzc9y5xdYk6c7EdCeSsCkxbgxhI2B9hmaktjxPycjQLq//IvIQIf5l9ezKOwnJ7aRT7qCw4yoDPIJtSRK3hfK2hLAJMUyDOA3CNEJcmxiXQlgCcQkhPEHKP8gld9ES7mna9lcaJyawJGnMO0oxYeINa7GytUyh4ykDIjWZ0/vXYsXAluSSjYhhCqTTgSkQphDDNJI4NCCK8XFC8i9C+giD6T9g5f0mHPSiTrt+bYCG/YS/YfsFfWsycSDnvZMkSZIkSZIkSZIkSZIkSZIkSZIkSZIkSZIkSZIkSZIkSZIkSZIkSZIkSZIkSZIkSZIkSZIkSZIkSZIkSZIkSZIkSZIkSZIkSZIkSZIkSZIkSZIkSZIkSZIkSZIkSZIkSZIkSZIkSZIkSZIkSZIkSZIkSZIkSZIkSZIkSZIkSZIkSZIkSZIkSZIkSZIkSZIkSZIkSZIkSZIkSZIkSZIkSZIkSZIkSZIkSZIkSZIkSZIkSZIkSZIkSZIkSZIkSZIkSZIkSZIkSZIkSZIkSZIkSZIkSZIkSZIkSZIkSZIkSZIkSZIkSZIkSZIkSZIkSZIkSZIkSZIkSZIkSZIkSZIkSZIkSZIkSZIkSZIkSZIkSZIkSZIkSZIkSZIkSZIkSZIkSZIkSZIkSZIkSZIkSZIkSZIkSZIkSZIkSZIkSZIkSZIkSZIkSZIkSZIkSZIkSZIkSZIkSZIkSZIkSZIkSZIkSZIkSZIkSZIkSZIkSZIkSZIkSZIkSZIkSZIkSZIkSZIkSZIkSZIkSZIkSZIkSZIkSZIkSZIkSZIkSZIkSZIkSZIkSZIkSZIkSZIkSZIkSZIkSZIkSZIkSZIkSZIkSZIkSZIkSZIkSZIkSZIkSZIkSZIkSZIkSZIkSZIkSZIkSZIkSZIkSZIkSZIkSZIkSZIkSZIkSZIkSZIkSZIkSZIkSZIkSZIkSZIkSZIkSZIkSZIkSZIkSZIkSZIkSZIkSZIkSZIkSZIkSZIkSZIkSZIkSZIkSZIkSZIkSZIkSZIkSZIkSZIkSZIkSZIkSZIkSZIkSZIkSZIkSZIkSZIkSZIkSZIkSZIkSZIkSVI9+X86HkOw0QEZbQAAACV0RVh0ZGF0ZTpjcmVhdGUAMjAyMS0wMy0wMVQxMToxMjoxNCswMDowMKuNBokAAAAldEVYdGRhdGU6bW9kaWZ5ADIwMjEtMDMtMDFUMTE6MTI6MTQrMDA6MDDa0L41AAAAAElFTkSuQmCC;" parent="16" vertex="1">
                    <mxGeometry x="35.340277777777686" y="37.49999999999999" width="77.25024154589372" height="54.78260869565217" as="geometry"/>
                </mxCell>
                <mxCell id="17" value="" style="group;fontSize=12;" vertex="1" connectable="0" parent="1">
                    <mxGeometry x="690" y="520" width="150" height="105" as="geometry"/>
                </mxCell>
                <mxCell id="13" value="&lt;font style=&quot;font-size: 12px;&quot;&gt;OpenVPN Server&lt;/font&gt;" style="shape=process;whiteSpace=wrap;html=1;backgroundOutline=1;fontFamily=Lucida Console;fontSize=16;verticalAlign=top;" vertex="1" parent="17">
                    <mxGeometry width="150" height="105" as="geometry"/>
                </mxCell>
                <mxCell id="5" value="" style="shape=image;verticalLabelPosition=bottom;labelBackgroundColor=#ffffff;verticalAlign=top;aspect=fixed;imageAspect=0;image=data:image/png,iVBORw0KGgoAAAANSUhEUgAAAQsAAAELCAYAAADOVaNSAAArXUlEQVR4nOy9C3hcVb3+/37XnqTJzKR3KKSlSUq5WShohVLAY/EcqQjnzzkq4AXwQikgF4/+ERGadLcBpXIOKAhI26Mg6AFEvIGtgIiItAUrCJSbbTJp00At6S3JTJpkr+/vmUmqtWSSmcnea+3L+jxPHx6azH7f7tnzzrp+l4DBYDAUgAkLg8FQECYsDAZDQZiwMBgMBWHCwmAwFIQJC4PBUBAmLAwGQ0GYsDAYDAUR023A4A0d9qEHWsKpY8ZBIJ7AoImCeSITTQAwgRnjiCiR/V0CJxkoG3jpuIH/7gTABPQyqDP7F8zcRYSdILQTc7sEbSPwO2BqJ8Lb0qJU8rrmrdr+0QZPId0GDKXTeUPdJEg6RkAew8zTAFEHcC2AOgBxTbbSAJoBSgGymYiaJMTLEPyyCZJgY8IiIOxurDtCMGYLxkwmngkg+2eSbl9Fkg2Ll4jpJUnI/lk7ur75Dd2mDIVhwsKHsI1YWkw9lkicwsDJYHwQwIG6fXnEboCfA9MfWYhnEo58huxUt25ThndjwsIndDTWHEXAR4nxEYBOAVCh25MmugF+hoCVDmFlVX3La7oNGfoxYaEJvnlKZbqr7MNgPh3IBgRqdXvyKSkwVgK0Ml7V+wR9pTWj21BUMWGhEL51+qj0Duc0EvJsMP0HA1W6PQWMDMC/ZYifJCrTP6Wvbu3SbShKmLDwGL5rVln6bzvmEZxzmOksAKN1ewoJuwD8AswPxg+a+BhdvK5Xt6GwY8LCI9LXH3qIZOfTxLgMwCG6/YSct4lxjxDO8or6zRt1mwkrJixchO0Z5RlKn8UkFwD0r+b+KocBehbAD+PJ3nvN+Ia7mIfZBTrsQw8Uwsm2IC4FcIBuP4Yc2wDcKaV1e5W98W+6zYQBExYjoNs+dHqfcK4gYL7GFZOGodlDxA86Dt9YZW96VbeZIGPCogQy1087RUp5NYAzzGa8wCABPEKQ34o3bPqjbjNBxIRFEaSX1M5m8EKAztTtxTAS+AkS4rr4wubndDsJEiYsCqDDPvRoYTkNYHzC3LMwwU8AfE2iYdM63U6CgHnwh6C7cdphDjvfAOjj5l6FFgbhIcuxrq2wN27QbcbPmA/AILA9I5mmrqtAuAbAKN1+DEroZeDOnnLRMP6apl26zfgRExb7wDZEl6g7j8DfCuD2b4M7tBOhsfKI1HfpHDi6zfgJExYDpJdMPZkhbgPwXt1eDD6A8GciviK+sOVZ3Vb8QuTDgu3qeIbKG5jwVTMNatgPBrA8PWrUVQd87Y0O3WZ0E+mw6Gqs+SiY7gQwVbcXg69pI+bL44tafqbbiE4iGRa77CnjYyL2TQALdHsxBAjCT6QVu6zq2g3bdFvRQeTConNx7Twi/ADAwbq9GALJNjBdmFjU/CvdRlQTmbBgu7aiS2ApAVdE6d9t8AYivrfS6b2E7La0bi+qiMSHpmPJ1BmCxI/BuYrYBoNbvMYSn07aqRd1G1FB6Ef/00tq/0tArDNBYfCAo0hgdbqx7grdRlQQ2pYF2zOSXVbXCmKcq9uLIfwwcH+iMjM/zHVBQxkW3fah0x3hPAzgGN1eDNGBgNcd4o+F9fiC0HVDuhbXnOEI5zkTFAbVMHCkYFqTXlzzn7q9eEFowoIZ1NVYVw+iX+1zuK/BoJrRTPRQV2PNdbqNuE0ouiH9x/3V3m4WWRl8xt3xSRMWhOWYgsCHxbalR1TF9+x5cOBUL4PBVxDot93l9PEwbHsPdFikr58ymTn2CBjH6fZiMAzBeiHojMqFzS26jYyEwIZFp103kwSvMsu2DQGhTUprXpW98RXdRkolkGHRtWTqLIBWATRRtxeDoQh2EHB6vCG1VreRUgjcbEjm+mmnAOJJExSGADKOwU90LK45VbeRUghUWHQ01s6V0llpDhc2BBdKCqJHOhvrTtPtpFgCExZdi2vOEIyV2Zut24vBMELixPyL7DOt20gxBGLMonPx1H8lEo8AqNDtxWBwkR4mnJWsT63SbaQQfB8W6SU1cxh4zLQoDCElLQSdXrmw+WndRobD12HRadceRwJPmuXbhpCzG0L8a2Jh0590GxkK34ZF7shA4TwFYIJuLwaD9/A7Ejy3qmHTet1O8uHLsMjY06ZKIVcDqNbtxWBQyBaSsRPj9oZW3UYGw3ezIduWHlElhfylCQpDBJnMom/V9hunjdFtZDB8FRZ816yy+J49DwE4VrcXg0ETM0b1yAfYRky3kf3xVVikt7bfCiBwi1UMBpeZl7bqvqfbxP74Jiw6G2u/DuAS3T4MBl/AfGHnktqrddvYF18McHYurvswEa8EYOn2YjD4CAnmMxOLWlbqNgI/hEXGrq2VAn8yU6QGw6DssKR8f4W9qUm3Ea3dEL55SqW08FMTFAZDXsY5QjzMdnVctxGtYZHuit0Jxvt0ejAYAsCxGVF2l24T2sIivaTucjA+q0vfYAgSDDqvq7H2Yp0etIxZ5M4ehXgeQKUOfYMhoHQzxAnJhqaXdYgrb1nwrdNHCYgfmaAwGIqmgsj5Mdu1Wko1KA+Lrh19S80KTYOhRJiOzghu1CGttBsysJ7iN36YsjUYAoxkEvOS9U1PqBRV9qHd/Y3JE6y+spdN6X6DwRW29Mm+mWPs1u2qBJV1Q6y+sptNUBgMrjE5JmI3qRRU0rLoaKz5kGB6wnQ/DAZXYWaal1zU/LgKMc8/vGxXx9OiPNv9mOa1lsEQQVLxyszR9NWtXV4Led4N6RLlN5igMBg8ozaTqWxQIeRpy6JrybTjgVx5PLObVD+7QdgARopBKUHcKpnaiWU7WdTOUvY6UnSVQ/Zkf7kHotwSMkEQMSaewCwmCuIJkmkKgWtBqAVjujnwyQ9wHyRmJ+yWP3up4lk1HmZQeon8LsgEhQZ2A1gNQjao/yLAf6lY2JIiArstlGmsqZOSZkLgODDmALk/JkCUQjEQbmPGKV68x39X8erCnUvqLiDwPV5d3/BP9BDwjCRaBcZjiSObX6Fz4Ogwwg/C6nq97mgQThPMH2HgFADlOrxEDQZ/JtnQ8mOvru9JWLA9I5kWXW+Yorue0g1gFQEPdI0a9egBX3ujQ7ehwdi29IiqxJ49ZzBwLoCPmFPlPGVzXPYcSXZb2ouLe9INSVP6GhMUHsF4DkTLu6X14AR7w27ddoZjIMTuz/5pt6ePrhDOOWC+CIQTdHsLIYekqfxqALYXF3e9ZTFQ+eo18w3iKt0A38eSbk/aqRd1m3GDziV1xxLJy8B0vnlWXCVNwjoyvnDjZrcv7HpYpJfU/oiBT7t93YiyHcy3c0zcnryueatuM17QeUPdJOqTl4HocnNMpWv8MNGQcr1WjKthMVCn4iXdFbiCD3cS0+17GDeOs1M7dbtRAdszkl1W12XEyHZhx+r2E3AcSXxMVX3La25e1NUPtQDZJihGAveB+TYn1lcbX5S6JipBkYXs9Z3J+tRSJ9Y7PXsPcvfCUCoWMbm+UMu1lsXAied/Nvs/SuYxKeWXq+xNr+o24gc67KnvEULcYg6dKhkppXVslb3xFbcu6ForgASWmKAoiR0AXZxoSM0zQfEPsvcie0+I6RwA23T7CSBCCGexmxd05cPddf2090PK50xYFAcD90tZfsVo+813dHvxM7vtwycK0XMbAZ/U7SVgMMCzEg0tL7hxMXdaFpKvMUFRFLuzrYlkQ+pTJiiGJ3uPsvdqoJWxQ7efAEEMcu0IxBF/wLvtqdMcId40m8UKhPGcYJxbaadSuq0EkdxeFKYHAByv20sw4D4hxPTKhc0tI73SiFsWjqAvm6AoDCK+N17VN9cERelU1rc0x8fGPsDArbq9BAOKOZL/y5UrjeTFO785dVxZL20CKOmGmRDTC6bLEoual+s2Eia6ltQtAPi7AMp0e/EzBHTskZg60qn4EbUsynrpUhMUw8GdYD7LBIX7JBqalzHL0wHs0u3FzzBQVWZhxKeZldyyYBuxtKhtMRvGhmQLQ5yu6wSpqNC5ZNoxBLnKPItDwa1x2VJHNkpe7FZyyyJt1Z5p3pwh2WRJa64JCu/J3mMhcTKAjbq9+Beakqa600dyhdK7IYyLRiIcZhj4KwnrlAp74wbdXqJCpZ1KkbBOzd573V58C/GIPrMldUPS9vQpLPpSZhZkUDYJiQ+aGQ89DDybTwOo0+3FhzgkrLpSt6+X1LJg6ptvgmJQtlhSnmqCQh9xe0OrRc6HAbTp9uJDLJay5K3rRYcFPwgLhC+UKhhidkrIeRX2pibdRqJORf3mjVJa88wsyWDwF9gurZFQ9Iu6Xqv7EIBDShELMb3M8hNVDZvW6zYyUqpnLYgDduDLDFTZG19hprNza1wM+1LXSTUfLOWFRdfgJIFzvSs2HlT4kuSiTb/V7WJYzj7bqm4dPZOlOFoQHSmJDyfGEQDGZD9f/f9lUX3iFgAXZbLfDUS0m6VsBdEbxPQGBL/R01f2p23P3/G27n/OcCQXNT/etaTuiwCbNS77IEDnAvhdsa8raoCT75pVlt7ann1IxhcrFF7ojkRD82W6XeSj+uQvHMF91kdI4FRIfBDkWhWqVwE8yeDfyfSe32x96V7Pj88rla7Ftd8DjXxRUnjgd+Ky5eBi11wUFRZdi2vOANEjRXsLK4w18XGxuXTlhj26rezL1FMuHdfb23s2EV0A4CQFO4KzrZBHAHlvW8UhK/GU7asqV/1fctt/B/DJur34BSaal6xvfqyY1xQXFo21d4PheiHQgLKDhHWsF1WUS+XgE+cfJYi+zpw7o0PXwT4tAP5HUHJF6+pbMpo8vIuMPW2qFPIvpr7nAET/m6hvnl/USwr9Rb51+qj0zr6tA/3byEPAp+INqft1+8gy+aSLjoPEQgb+00c1ULcCdHNvReyObU/d0anbTJZ0Y90nmPknun34hB1xmTiI7PU9hb6g4AcrvaP3QyYo/s4P/RAUtXM/N7b6xPnfYYk/MfBxHwVFlkkALy3b0/vm5DnzL9BtJku8vvkhAt+n24dPGNdF6aJmRYp5uEa0rjxEvN1bJl2pDzACaPKJF32up7vsTYCu9PUCOcbBzHRP9eyLVk2Zc+F03XZ6pfOl/laPAZQ7TrJgCg8LMmGB3PJ6vnzs1zdpK+02fvYVo6tPvOgBBn4A4ABdPoqGME+yeOngEy/SuqdojN26nQDdYe8LCFzUZ7qgMYvuxkMOddgym6KAXyYaUmfpEj/4hIvfLyx+gJmn6fLgBkS4t6+r+1Kd061dS2p/bVrLgBBUW2jJvYJaFpJjkb+pAHosElfpEq+ec9EXSMhngx4UWZhxvhWvWD159vwpujxY0sp233w15a0DyVxwV6SgsOAimythhIBvV9Q3adn+fPDsi74ExoqQlY87honWTpmz4Bgd4hX2xg3MuEOHtq/gwltXw4YF3zUr+4CWtJY8RLR3l4tvaNClybMX3EKEb4f0qIVqyfzklDkXnqBDvJdzB2NF/WiBU3ObQwtg2LBIb91xHICEK7YCChNuGn9Nk/IdjNVzLvoWkzuVmX3MRMni8dxaEcX0F7Clm1Xr+ozR6ddrZhbyi8OGBUFGfYnstoSTuF21aPWJC64GQ9sYiWJGs8Sjk06Yr7xgTVzGs622v6nW9RMEUdBnfPhuCOX2FkQWBv6b7PVKVyD2L2LiG1Vq+oBqS9Cq6lkLJqoU7X9v+TsqNf2GLHDPzPADnBzdsCCgo1dimUrNKXMWHMNM3wvpGMVwHI4yea/qehq9ZXxn7siGiELABwr5vSHflExjTbZZONk1VwFDAv870oNZiuGAuV9MSuYHAVSq0vQf9JHqE7d8VaXi2K9v2sGg76vU9BmT09cfOmxBqyHDgplmu2opWHBMWkrHKsoyvdlWzJEqNX3K9dUnXqh0rCxG4rv9vc6IIuWc4X5l6OYeQ/kItV8g0JMqS/kffOL8j4HwKVV6PicGiLtr536uQpVgRX3TXwn4vSo9v8HAscP9ztAtC0JBUyqhhNWVYquetSBOoP9RpRcQpvd2lymdDZLMK1Tq+QsednHcMANJw18gpOysHBf7uTK1Mm4AUKtMLyAwcO2k47+gbHl7osp5mIAOVXo+Y9iGQd6w2GVPGQ+QtrX7mvm5qlJ5A2sLvqxCK4BUipi1VJUYfaU1A6JfqtLzGVN32LVDVhHLGxaCrGH7MGGFCQ+o0hKCrtZYAs/3EOPjk0668GhVeizVvfc+gypiYsj7nDcsLDH0C0PMrsSBE5SU9T/g+C8eRDA1TYeBYtL6miqx+DjrsaiuuZAshxx2yBsWkll7VSM90BN08TolB9OUWT1XRXtNRWEw+JOqxi76u5/0pAotv8FMQ37m84YFRfVgWZYrVcjMmHF2tuvxORVaISAWs2IXKlMjrFKm5SMIPOQg+1CzIZEcnScrVtRZCqWyPTn23wGaoEIrDDD4PFXLwC1H/kaFjg8ZsoEwVMsiimGRUnUOCAmcr0InREydPLtNSV2V/sOtuVWFls8Ysqs3aFjstg+fyP1nX0YKAp5VoTNlzoXji6lQZOiHiT+jTAuk5FnwGWOGmj4dNCysWF8UWxXZuFitQsWR4lQzXVoKdJoqJQH8UZWWnygXnLcrMng3xJER3WnqvKBChUCnqtAJH3yIqrNHSNCLKnR8B4u8CzHzjFmw0gIkPoEzsvxlJUrEJixKxJH0IRU63X38UhR3oTJx3kH3QcOCBUUxLJon2Bt2ey0yUAnqKK91wgqRmuLRA3VMIjjImf+zP2hYCJk/XULMmypE2JJHRbQKlksIZUFLICXPhJ8QKLZlQRGc/2c0q5AhIY5QoRNe+HBVYcuQSp4JP1F0NwRA5MKCBQo6wm3EEJuwGBmJybPnqxqAj1xYgIvshjAw3lNDfoRZyWIsMA5VohNiiKBkRoQhNqnQ8RNDffYHDQtijt7mJhbblMgA41TohBmHSM09JH5HiY6PIM6/sXHwbgjRKC8N+REiqeTBoAiujHUbAVZyD4lE5MICIv9iwcFbFuE6gLcghBDblQgxJZXohBiWagJXsNOuQsdXMPI2FPKNWUSuZdEnrLQSIeJInxvrDkJJWDhCqHkm/EVxYTHUC8JKTw+U1NzsP7vIMDK4T4VKby+reiZ8BBfXDRnqBWFlPPp6FElF8dvKbZTcw7Gj+yIYFvnHK/OEBUVwhWFC1Te+CYsRQqToHsYqotgKtPL9IF83JIKJqmbLOAFbVeiEGUnibRU627dHrzsOIG8XL19YZLzz4k86yncqeTA4kpuT3IX7pJIFdOXlkQyLvMWq86yz4MiFhdUjlDwYxKRmpWiIiUtSErhWTyTDosiWBVPkwkJaYowSHfCrKnRCTFvTumW7VAg54CFP6AonXGTLgqM3ZRQjcYASHSuiFZjc48/KlKhPyTPhK4jyHrCUb7l35FoW7EglD8bmZ5c1AfC8yE5YYUBZ2FqKvkD8BHP+g6HNAOcATJikSgrA04q0Qgcx/UGVFpOaLxA/MdQp8vmWe3d76siHEKs7J4WJlZylGkK60YdnVIkxCyVHJvoJpvxhERvsLwlQs6nKRzCRujoTjKieeDVC+I9t65YrW9RG4MjVHiGZ/7Ofb8yizUtDPkXZg/HWmhWvEegVVXphgUAPqRWMXlhA8Ja8Pxr0b6WMYlgcxg/mX+rqPvyAOq1Q0Mu96sKCbcQwzKniYYRl/oZCvgHOKIZFvPP1qUeqEnNg3Zf7j6FAeFXbumXKitF0oe49ACpU6fkGQcW1LJhEFMMCBOu9qrTeXvO9FIBHVekFHhbfVapHrOxZ8BPMTnFhIWVZ3heEGub3KVa8TbFeUHmtbe2yxxVrRjIspJRv5fvZoGFRtejNdkRx+pRwikq9tjXLn2DgOZWagYT4f1QfJUgCH1Cp5xMyY+zW4mZDiHJvjJJtwD7jfdtvnKZkj8jfITQo1Qsef20bNeUelYK5Z4BxrEpNnzDk8EO+Ac7sUxzFrog1qtc5WaXgW6uX/wbA71RqBguux1O2kjJ6exm1h/9lqCIwYYVLDwv5mgd+fA8zfVi1pmRx+VB1BCLMM21rVjyoQXeeBk3tELBxqJ/nDQsCrffEkc8h4D9Ua7699q5XwfRt1bo+p0c6uET1WEUO4jOVa/oABoZsIOQNC8nRDAsAtZ123UzVokIkFmGYNytSEC99+/nlyp/BLrvmfQBqVOv6ASJ6faif529ZxGRklyOTYOWti9bVt2RA8jPZb1TV2n6DgecO7hGNWsQFnaVF1wdYTolhkbiu5S0A0TuRqf9hPY9ZzbH++9K2+n9fYMbVqnV9xg6Gde66dcuUj+EMvOefUa3rEzKj0NQ01C8MMcCZu3mR7IoQcFjmhtrZOrTfWrv8OwCW69D2AY5gPm9gdatyMo1TT1K5odBXMF4mO3/9TQwXFkTR3RnJEp/VpR0fV3EFAb/Xpa8LAl3RunbFr3XpM8QFurS1Q8NXIBsyLAAZyZYF+lsXn1G+QGuADStv25Phiv8PxH/Soa8F4sYta5bdqUt+29IjqgB8Upe+D3hhuF8YJiys5100EygYqKroZW3fNNvX3rYbPeJ0AH/R5UEhS9tWr9C6kjWxZ8/nAYzW6UEnJGjYQshDhkVcNr0AcN5qv2FHMl+uY6BzL23rlr1TXtE7F8AfdXnwHMaStjXLr9FqwYaQwGU6PeiFOyv7mkcWFv0DHvSsq74CBAGHp6+v1TqVlnrq7p3opdPA+LlOHx7gMNElbWuXL9JtJGPV/Ef2vdbtQx/07HCDmxi+G5Ib5VRWINWXMBp0ti7Q38JIt61d/rHcd6COFY3u8w6YPvrW6mV36TaC/sK81+r2oBXigqrNDxsWggu7UIh5b3pJzUd1m8g+021rViwWzGcCHNwdwcyr4fS9r23tssd0W8nStbju3wGepduHTgQLd8KiQmJtRE9V/wckFmf7tbptZGldu+LXssyZCeBnur0UyR4mXNtWOeVf2p7/gS/Oe83VXBV8vW4fmumuGGsVVFNl2A8A2alugKIzhTcoPKuL6nyzsu/tP/xgW9uabLcEZwFo1u1nWJiflg5mvbV6+TdVbzcfivTrNZ8FQ/k+ID9BwBq6ckNBjYHCvi1NVwRE/E22q+O6fexL25rlvxSUnJH9xoY/z3r5KxM+1rZ2xQd1bAobCr55SmVuCD/icBGn4xUUFgxpTtACJqep3Hf7NlpX35LJfmN3c0UdwLfq9pODsJ4ZF7RVTH7PW6uX+7K7lO6I1QM4RLcP3TDLgsOioFF+vmtWWXpr+1YA40bkLPj0SOLjqupbfLmVfPKc+Rcwk9ISdPtDoFe2rKk+FrClTh9D0bFk6gwB8QKAMt1eNLMrLhMHkr2+oJ3OBbUs6OJ1vQQ2ZeuBcmK6U/dUaj5YiqO1ewDX6fYwFGxDCFh3maDItRQeLTQoUPCYRe7K4helmgoTBHwwfX3tJbp9DArJY3RbAJCYMvst3+7czIjaKwFWWmfVtxAV1UUsOCwqnfiqKB4PMCiM/95t1yo7vaxwyA9hAYbjy8rYHY01RzHwDd0+fEJ3V3l5UQd0FxwWZK/vBMgMdPYTt4jv5btm+aYpO/WUS8cBmKzbB3KHh/lvOpLtGeUCdF/2e0+3F5/w+AFfe6OjmBcUu9AobPsTSofo/V1vty/VbWMvvdIXXZAByHdhkab0zWCoPnHOtzDwcLGvKSospBS/NIf5/gMifLlzcd35un1kIUdqH9z8Oz5b6JReUvtJEEd4V+m7cKQsf6TYFxUVFlX2xr8R8IdiRcIMkbyjwz5U+weVCT5qWaC2du7nxuo2kaVzSd2xDKzQ7cNPEPD0aPvNok+kL3q/g2T6frGvCTeUFML5Vadde5BWF/BVWFBPplx7gHbdUHMwgbOt4YRuL35CMu4t5XVFh0WiqvchADtLEQsxtSToEb5pkr6HkjFDm/agsNauSG45dx/9HMBUnT78BgEdCU78pJTXFh0W9JXWDID7SxELNzwrnYk/oGOGpPr4zx8Cgi+a/Xth6Bu3YHtGeboz9jAIJ+jy4FeY8eP+mc3iKXHbtTBdkUHhM9Jb2+9nGzGVqkJYfuqC5CDScwo5PwirS3Rlm9kf0aHveyxR8vhNSWGRaGh6HoSXShUNOR/LWDXfV1n/QpI/FmPtxzGArbQGSDYoMm/U3UPAOSp1AwPhxcTCppLLTZT8ZhJgWhd5YKbzu0TtjxR2SfwYFokpczZPUyWW2+z4Ru3/MbNv6o74Dx7RrFDJYdFn9d4X+QpaQ0DAJ9Nb33mY7doKBXLaZx4Gw2E1i7NyYxRb238Kxtkq9AJKpsehH43kAiWHxehrt7QD+L+RiIcfOrNLkLdN4rl2DIAP96lkA1MoG+QkYK4qrSBCxA+Ns1MjmsUcUZ/SkVia7TKP5Bohx2EpVnkpcFDmrcMBjPJSo2SYlQxykr2+h4EnVWgFFXbw7ZFeY0RhMdpOvQ7A1LnIA4GeqrI3/s1LDUGOH8crcpBQuEeEsFKZVvD4dcJuGfYQoeEY8Wg1ATeM9BphhYl/6rkGyJfjFcg1LLhu/OwrlBwJSE7s0ZCcqeI6AnSjO9cZIfGG1FqAwnu8XulICPZ8ly75a0/I/lCF6FYSZnF7QyuAyJ76nxfGmsqGZlf2c7kzD074livXCREM/CFxXctbXuuQTwre5IOYlC3OIsavVWkFB/fORXElLOILm38FwFel3nUjiDzvgkyaeX6CmWu91hkJUuEeETLjFvvzcryhxbUAdSUsiLLdU9zkxrVCggT1Fl1cpFjK4pVHu9Y69AhSuEekYtKEZwHsUqXnd5h5afaz6db1XHvQEkel7gOx6TOiv58YX9i6xWsZST4qeJMfZcu+6eJ1vQA/rkLL7zDwZoJbHnDzmq69iXQOHEhc49b1ggwRStoCXLSOz8crBqg65KQ2lccDmK5I/zP4NbLh6lGRriZ+YlHLo2SK+jJJ4XkXBP3fHkEIC/SxunELlvRrM4WK1fGFKdeP7nC9eSglXxXpVZ2MtZV20yZFWkHohoAUhkXSTr0N4EVVej6ESfBVbo5V7MX1sEjaqRcZeNDt6wYFVjALkuXA2fMnZf+jQmukqNwjkoMpslOoTHgwvrDlWS+u7cnAk0V8bVR3pMako6QLUiasQLQq0H+kodJCOEROVMctemKOtdCri3sSFpX1Lc0M3OnFtf0NrauwNzWpUJLw756QQZimatl3lsojN60BsF2Vnl9gxu0V9sYNXl3fsymtnnJhA2jz6vp+hMEPqdIiGYiZkL1QpdWjrKAwnQOHCUUdzRcCtjvc59pqzcHwLCzGX9O0i4i+5NX1/UhMWsrCgikYg5t7kQoHOfsFKVJdEQb+/zF2q6etKU8Xy8Trm7Mfnmicvk540csm4D9jCwLeo0bLHVTOiGThMmtVVGblCPhdoj51j9c63q+sk84XI7EEl9XMgmQZWOSUVKXnEkoHOauu3bANjJKL0waItCDnIi+mSvfH87BI2JvbiLDIax3dSJLKwsLhYCzG2o+Z/V+CSgl9V4TA9RX1mzeq0FKyZr/SSd0GYLUKLU28XFXf8poqMZKBDIuqSSfMV7pDlqzQr7d4vvLIlu+oElOzwceGZNClAHpV6CmHiz++fkRyxIEa3NyLRWpPKavsa852Qzwta6iRXpY0P7cnSxHKtjcnG5r/woR6VXoqkaxuFmSAILYsAKGuEA4GvqSIOKRTqLw0aTcrPehLaS2EhJO6CeAnVGp6DQFvVNkblW3Nn376FaMAHKZKz02INZx/GsYpVMZzcZlsVC2rNCxy3RFLnAdgq0pdL2FmpftgMru6jwLUnqXqFjoOS+4pl6sAdnWrtmZ2CsGfJHt9j2ph5VWWktc1bwXz58OyjZhJKJsFQW4mOqBdkH4OPWDuF5VO+Y79+qYdgFirUtNLCLi0sr6lWYe2lpJsiUUtKxm4TYe2mzDw12RD819UalLAVm7uhyjP9Kj3TzIkXRG6I96Qul+Xurb6jYmxsatBwa47QAzVA5vZb5YgtywgNXRFEIaq38SvxJO9V+m0oC0s6MoNexwHnwKwW5eHEWOpqYi1L0GpjpUP5bUtctsOWl4M9qZG7nQgPkFfac3odKG1MnTu+EPmTwPq5opdpDl+XdM6lYLTZi0YA2CySk3XEYo3lA1Unwfg6ZmzHsLMuGR0ffMbuo1oLyOfWNTyKAPX6vZRLMT8kIr1+PvSHcu1KlQvmXYX1rLsG0RBnULlG5KLWn6k2wX8EBbILdhKfQvgFbp9FIWi8nn/LBnsLsgAYw468ZIa1aIZx3osgCuIH47LFt/sq/JFWGSJy+RlzHhat48C2VxZn3pOtShDhiEsIOAo74pMsDfsZsCT2pSeQPhzvDJzAdn+2Wbvm7DILTKJ0TnZD6JuL8PBoJ+o7oL0E6jqWHlReUrZfsJB6Yq0kRM7i766tUu3kX3xTVhg74It8FkAfHWT9kdATVHeQQhUwZt86FjJmdN1rEd16BYHdwJ85sCp8L7CV2GRJdHQ8gIz/aePq4O3VcpNyrfbT549fwqA8ap1PULphrK9DOzhUXOmS2k4YDov+xnQbWQwfBcWWZKLmh8H41w/ruln4CEd/UiHwtEFGWD6pJnnJ7Qos2+7IgzQFxOL3D9JzC18GRbITammfsEQn/dbHUVLqJ8FQe6NClVYiLJEubJq3/vhy7Ag8FWJhuZlun0MhW/DAv01MO4D+ArdPvZha8XhzX/UIUwBLXiTD4eFlq5IPJ55wm9dXAa+Hm9ouVm3j+HwdVigfwzjDhB7dspScdBPVVYm2hcOZim9vOja49I/w8B/0KE9KAQ72ZC6UbeNQvB9WGRJ1LfcQMC3dPtg1jQLMteOgXCkFm2vYLVHGu4LkT9qcxLzTYn61GLdPgolEGGRJd6Q+hoYOm/stgRv+r0O4YO7Ww8DUKFD2ztIy7LvLH2OH8Yt+LvxRS1X63ZRDIEJC/QPetogvlzToOfPyIaW2ZmQDW72QxhbfcqCQ3RI5zYwAkrK5w8GA7fG61uu1KVfKoEKC/R3SW5n0GdVT6uyhr0g/9AO1+Dm3+lztHVFwKRjFyoz0dXJhtSX9KwAHhmBCwvsnSVh+gSAbkWSOxJO/ClFWu8mWIcgFwzB0rPsO4fq6lnZLzeen6xvvkmtrnsEMiwwsA5DEp/RvzzWc36mo0Dq3wnHbtN3wVBf22Iv8SrnSQBpRXJpEM5KNLR8X5GeJwQ2LLJU1bc8SQLzPD9IhlhbF2RgpWOdLn2P0RYWA1WnVAxYbyfwvyXqW3wxAzMSAh0WWeILW54Vgk4A4FXh3J1xJ6ntrJOBlY6Bf5/ycFj1rAVxXeIEz6dQm6SUH4g3tITi6M5QPISVC5tb4pWZkwEPBiEJv9DZBZEQ4Rzc7MeSo1jXsm8I6XgWFgz8XkprTpW96VWvNFQTirDAwMq8eH3z2Uy4xtWpValvFgS5KvbhHNzci2B94xYV9qYmBt704NLLEjL1b1X2xlCdsxrIk63y0T8dlVqabqzbyMz3ZHspI7oe0FHJ/Lh7DouHSR4T9LKbQ6LjSMN/Jtu6ONyla3Uz45LkotQ9Ll3PV4SmZbEv8frmhyD5AwBGenLTr8hOqZqezQOFuRsC7l/JqdGAa+MWLQCfFNagQFjDIkvCbvnznnLxXib8X8kX0TgLkqV61oKJACbp9OA1xDhOZ8XyxDjr6ZFWZiPQb2Usdrxfi9a4RWjDIsv4a5p2JetTnx5Y8Vnseox0pdOr9awJsqTuJrr3EMZWH//5Kdrkr9ywB8CTJb68F4zFlbL5tKprN2xz2ZrvCHVY7CXZ0PxD0T9QWPAUFlO2C9KmatHOoMhwVcfKC1GZ3lAsrZDvqwDPTixK2X6qwO0lkQiLLJV2KhWXqX8Z2Lk67JsrNM+CIIQFb/IhhdS3RyR3n61Hivh1BrAsLntC3+3Yn8iEBXLHDaAv+03AJOYNM/iZroynfbDiLiItC83/zvjCjZsBrC/gV7cwidMSDamLdbc6dRCpsNhLsr7pibjsOZrA/51n9+oqH5zZQGEp/V8AWlsW6C9EM9SXAxPxvX2yb2b22VFoy1dEMiyQa2W0peMNLV9lKWYBWPtPPwN+os9ZP5OO/0IdgCrdPhRx+JQ5X67UacDJU8iXgb8y07x4fcsFY+zW7eqd+YfIhsVeknbzS3GZOgmgiwnoANCdkTHtXRBLiEh0QQawHNmhtRWVPGjiMwB27fNXaTAWJ8bGjskdTWEwYYH+sQyZaGheRlIcTYRrJ9gbdmv3FJGZkL2QIL2DnBev6wXw24H//YUQ9J7cTEf/1KohbMu9R0ql3bQJwC26faB/ZePRCF4xpZLxxR4YprsB3J1Y1Pwr3Vb8iAkL38L6PzwKYdJX7XsvJiSGxnRDfMj0068YBeAw3T4Uoz0sDENjwsKHZNp7jgRQptuHYsZPmXPJZN0mDPkxYeFDpJCRWLn5LmSfaV34GBMWPkTX0X66kRDh3zgXYExY+BCOaFhAY7Vvw/CYsPAhBESzGyK0V80yDEGI67UFk2mzFozpLuMdEX1v+soreqtST92tuTqZYTBMy8JndFdiDChXF3Jj/5aFSNHR0ytqdJswDE4Uv70Cw6xZC8paLTklRqIWxDUMqmXmOhCmEuEAMCYCuT+Wbq8FkAHQDmALAa1g2iyFbIGkzZaQm/tisvntP/wg9NWmgowJixAw+YTLJnBZZiIcmgimiRA0AZIOhOAJBBoNRpzBowCMA2FU9v8BlBFRct/rMMsxAO1tbfYSUec//5z39G+w4i4Q9RCwi/t/bzez7GCidkhuB6hdgLYTZDsD20lUtbeuviWj9KYYDAaDQQ9mzMJgMBSECQuDwVAQJiwMBkNBmLAwGAwFYcLCYDAUhAkLg8FQECYsDAZDQfy/AAAA//9Mt6y0sZ19sAAAAABJRU5ErkJggg==;" parent="17" vertex="1">
                    <mxGeometry x="47.222222222222214" y="33.75" width="55.55555555555556" height="55.55555555555556" as="geometry"/>
                </mxCell>
                <mxCell id="18" value="" style="group" vertex="1" connectable="0" parent="1">
                    <mxGeometry x="927" y="520" width="150" height="105" as="geometry"/>
                </mxCell>
                <mxCell id="19" value="" style="group" vertex="1" connectable="0" parent="18">
                    <mxGeometry x="33" width="150" height="105" as="geometry"/>
                </mxCell>
                <mxCell id="14" value="&lt;font style=&quot;font-size: 12px;&quot;&gt;MariaDB&lt;/font&gt;" style="shape=process;whiteSpace=wrap;html=1;backgroundOutline=1;fontFamily=Lucida Console;fontSize=12;verticalAlign=top;" vertex="1" parent="19">
                    <mxGeometry width="150" height="105" as="geometry"/>
                </mxCell>
                <mxCell id="4" value="" style="shape=image;verticalLabelPosition=bottom;labelBackgroundColor=#ffffff;verticalAlign=top;aspect=fixed;imageAspect=0;image=data:image/png,iVBORw0KGgoAAAANSUhEUgAAAVQAAACvCAMAAACVbtbpAAAAGXRFWHRTb2Z0d2FyZQBBZG9iZSBJbWFnZVJlYWR5ccllPAAAA2hpVFh0WE1MOmNvbS5hZG9iZS54bXAAAAAAADw/eHBhY2tldCBiZWdpbj0i77u/IiBpZD0iVzVNME1wQ2VoaUh6cmVTek5UY3prYzlkIj8+IDx4OnhtcG1ldGEgeG1sbnM6eD0iYWRvYmU6bnM6bWV0YS8iIHg6eG1wdGs9IkFkb2JlIFhNUCBDb3JlIDUuMy1jMDExIDY2LjE0NTY2MSwgMjAxMi8wMi8wNi0xNDo1NjoyNyAgICAgICAgIj4gPHJkZjpSREYgeG1sbnM6cmRmPSJodHRwOi8vd3d3LnczLm9yZy8xOTk5LzAyLzIyLXJkZi1zeW50YXgtbnMjIj4gPHJkZjpEZXNjcmlwdGlvbiByZGY6YWJvdXQ9IiIgeG1sbnM6eG1wTU09Imh0dHA6Ly9ucy5hZG9iZS5jb20veGFwLzEuMC9tbS8iIHhtbG5zOnN0UmVmPSJodHRwOi8vbnMuYWRvYmUuY29tL3hhcC8xLjAvc1R5cGUvUmVzb3VyY2VSZWYjIiB4bWxuczp4bXA9Imh0dHA6Ly9ucy5hZG9iZS5jb20veGFwLzEuMC8iIHhtcE1NOk9yaWdpbmFsRG9jdW1lbnRJRD0ieG1wLmRpZDpEM0U0ODlGRkY1MjA2ODExODIyQUNFOEFCMjIyRjYzRiIgeG1wTU06RG9jdW1lbnRJRD0ieG1wLmRpZDpENzUwOERDMjJGRjcxMUUzOTYxMDgzOEY5NEY0MkUzMyIgeG1wTU06SW5zdGFuY2VJRD0ieG1wLmlpZDpENzUwOERDMTJGRjcxMUUzOTYxMDgzOEY5NEY0MkUzMyIgeG1wOkNyZWF0b3JUb29sPSJBZG9iZSBQaG90b3Nob3AgQ1M2IChNYWNpbnRvc2gpIj4gPHhtcE1NOkRlcml2ZWRGcm9tIHN0UmVmOmluc3RhbmNlSUQ9InhtcC5paWQ6RDRFNDg5RkZGNTIwNjgxMTgyMkFDRThBQjIyMkY2M0YiIHN0UmVmOmRvY3VtZW50SUQ9InhtcC5kaWQ6RDNFNDg5RkZGNTIwNjgxMTgyMkFDRThBQjIyMkY2M0YiLz4gPC9yZGY6RGVzY3JpcHRpb24+IDwvcmRmOlJERj4gPC94OnhtcG1ldGE+IDw/eHBhY2tldCBlbmQ9InIiPz4Dh2wQAAAAZlBMVEUAAAD///8AK2QAK2QAK2QAK2QAK2QAK2QAK2QAK2QAK2QAK2QAK2QAK2QAK2QAK2QAK2QAK2QQOG4gRncwU4FAYItQbZRge55wiKiAlbKPorufsMWvvc+/ytjP1+Lf5ezv8vX///+X3zc0AAAAEXRSTlMAABAgMEBQYHCAj5+vv8/f7/4ucL8AAA4eSURBVHja7Z3bmqI6EEazgQgBOfwgotIoef+X3BcBJRDONtNK6qpn9ENZViV1SkH+0/J2IRqBhvq1UMn3iEXpyDs01HlisghAZGuobyPqHFGJqaG+w+bZMcRLHA11FUzm+xHawjTUhcbuBS2USayhrtqQwrZyxuecXzXU5Ui9imOaXa8/RVEURfHg5flenjTUZWIIpOfbg0uSpSkvr7HeqBaIEwFIbiVvSZadztmD80dxBqiGOkdNjwCSnHckP53P8SnnnPMzYGioM1yoAMDlpaX3ovr7Ht/SS5ZwzjlPcNQR1QymERAXFdBHlgBIOeecl0me3JNzzjnnd0CHqfOYnmo1zcU+L6Bm1/Qnu8Xib4Q6oTKLaVYbflE5T2fOOS9ORfpI8gvnnD/GFFVD7WPKkwpqzjnnSZEWt2v2wznnKXyd+pu874dNpveKacY553l2T3l6P5Wc8ysiQ0OdKkFjPeW8PANAfOWcc366X3Iec3DOc0QW0VAnigfEksP/KIrKD3ic+OlxT3k6jamGWssBwJ2rpXzwCy8ynvJsClMNtU6hRMCND0rJ7yeEE5hqqJX4tUM6ID8xAoNoqFOFAfFjRFHPgDvtahoqIYSYtT/aL0UyVkPVUOca/wUILKKhzsigAhg0/vIEHA2ioc4IpSLgOsT0ngDejAtqqIQcgWSQaTyPqYZKCAXw806mGioh4fAuVZ7mMtVQCRvZpc6Y6PJrqFJ8ehnyT4HIJBrqXBc1LocV1SEa6uzk1FAs9cBonl9DVWT7T0PuVD5akNJQ2+ICKPig9UdEQ51X6kOzLKWS2e6UhhqM7FK8WGL9+4bKRjN+15GuKQ1VZfwjGb8UAdFQ5xr/SLp/0ZK6Z6guRmt990VL6o6hHuo+qQG5AZaGOi/mT8oRqBlANNTpoVQw0DzRaFLzNdRZ2f6x+inn5bJ9aq9QPQwn/J6uv6OhzmGajTLl15FTKBrqfKY8XbZP7RLqVKY8XhRP7RGqEWCkzN9w/T0NdZLPHwHxzxSmPF+4T+0NqnEEkD4mMeXZsnhqZ1ANFgHxjU+UZEnWf2dQDRYBOD+mMi0xclpSQxVI04JPlp+lS+peoFIPM5Fyflm6pO4CajW6Yx5Szk9Ll9Tvh2oxMV0mu89Dujib8u1QTdsT42UUcyamLKm2htoDFHFW8AWSjYxJ2xtUyo7Ra+5RyRdJMnaqfz9QTbsxoSu9FnypPJYvqV8F1XKeCorkvAJoVfOz9w7VsL2owbPka+W8fEn9Eqh2PYIzvfys51k5VIuX1G+AarpCR5N3Aa3Sft5+oVKhpPHlzt8pZ+CwV6jUFxN5fvh7pcSidr9vgGr6Qkkf/N2SY2F56tOhGu7SCHSS9bt7hGpHPZMO32T9h/1BNf3XgKP3yw0LK/4fDdWJ5OGRb5ZkcSXlc6HOqokukAKLKykfC5VGQJzz35MzVsSonwnVAXAuf5HpA6scqg+EanhzSveLJMMqh+rzoBoBkNx/lekDK63/06AaAZCW/NcVdZX1fxhUI5jYBLlWUd39QN2CKU+BFUn/z4PqTZhy+A4fdWFX+kdCPUijeJfJz8gmVyb7gmpEiNfu+1cUow1Uqzf/T4LqTjj5NG7bip+lUSYsAKSrEtSfBdUaP0o6ZRNSRaXPWOIRA3mxI/MPRoZITDsZAVXy9NwYlpbz+36gOsMD+aa69YkqeZq+Xs8557uBakXrjZ/HSpcsqUlXTHk68mC0b4FqBOPnyKdU8xSxQ1GvCTVTfllT8/8gqB5QrFbUs/JU2llALU/PI8A/+4j9nYln9Eared2f5gEAJS8aS0O51qf6CKj2G7wpLh7PWapyUrhlaA6pSVcG/58Alb0hPBXVvO5cv8fruajXZjH1+NVQDSd8D9MrVIMTshfUUloovrVGZVHHDYA+pvf8mqav5++maXa9FcXQZOnuktpQ1LO8eXlfBNWkNmOe33ymdnLtMi3zLIZa4vSsgPs4AUCsTJ5WH1PKbpb1HVAPzG8TSs83RQbk/iLqN6T1bPMkTc9XIVkavx6D1kmeeocQkEtf6fxB1H8RqlW1l6dper1er3lRFD3dEkUKAKHHqKVQdMrY0Q97tLhQJE99UzzdTzrAVmAN1T8C1TwCcXab4OA/UgChY42vx8zvPElekTz16ii47sZ+PDewyDY+Gaod4TQpXVJeAHh0xl7H3NeycOsaf70fGb5Csd1PhupNDZjyGPAWODv0wNCZP1vKbWiHtl779JPN35kyeKuy/GDhnR66cX8KhJIqWu6La+CYn737GwHSfLyH7xojWtyL1x3nnynTppQy5tB16dS/Yf6vBS3uLUEXJyBYrD1WR1Hz1S0Tf373t48BQj/qreuXF6zKHPvtuZ452sb/fVDrxEnPOOM8xrSHa/ZtVO0ZlPn64v5HQLX8viA/T1a4N1XRUDaBG7A2u/8RUFnPsLgyTwCEq7SKyQNoywy/afx/Bqrhq5v4qyifrQJgyc/wu58ATHr88YdD9VQlucftJBIe65pwSCAlp28it2KTr4fa6XJ4/FxEq9hqpMRFowerEL9TdCDfD9UHcHpm6l6555CtXvkOjaC/qC7sW2QHUJX5jMB9w72b0TOpn1dIQ5uQPUAlhLrNhEbku7b5lhusH+TzUye2fx3pHyunUHpgjB0ofZ+34wL4Ka7P9cSjhOwL6vvlIK0nR9vY5FO/G6rxKltF3kZEvx5qNQQoOjrWlh/73VBNxpiqPqihfp5oqBrqnDQKpfuAao1vwNab9mhvSTuEQSUZ86qfYv5LqP5oYth8Uz7eFjH+ggpBq059ZLQ/CdQMqem/ghqOdih6q4aXyBma+SN7qLpb6HgYhQogPPwbqKM1DHPtwZBfgapOGCjgG/8AqjnaTOth2VP1lBWU+dM6e6GKPrYxqPUivilUOlZuM1cPhXhuOcGSkgl9ajellFKHea+UZCevjWfVnFKnit3c7aE6YweUPawbXdak6jA2O3lIFZ9P3box0+6DSkg9zFHc3aZQ2Uhl2HzDsfBVQtU/qh2qqKLV33F83t2mUP0RaB5+tcdhMVRiiG8mLydtqMZzFd8UqsjteyOJOufvQa393mAIqlDVzaFieOyD2LHf5FO9GWpFlQ1BZfXNbQnVrEsawxllpU9l2MewCl2qXdiktE7qWdWfdgAgsNsvS5epHv4ReIdGZDoBKnEBIDLGoFobQ316geaQoqp8KtPreuLsxd8Xf1ZviszWy42lsXmAJWIdjkNQxeLFBqC6/8L8HQBB1KeqRgQgVN4V6zjZlgJqDZ6RHqhO1I6TrDlQKYDmI6o6UIP69S2hMgCu26eqDACo4lVVT0BEO1BtWdE7UA1PEQLZM6AK5+XQC5X+E5fKB8DMnlXVECrc9amMoO7CpwYhtH74xKEFNYwAeNS0qRpq+zLVSmDPgHqQB9a1oIoPoFtDDQBQYaWmWlFNErR9qgpG46iImJoeHWWobee8DVW8p3EOwxCLCpsOlUTSii9DtQKgPu2yJVSxOapVtVJUoc3dgqjsu9ZHyVpQHdIP1VV4a9azJ2YiVDmKblzQqOwn2jyhYlZfSamqrLIdt6VgjrLvsbZlCapP+qHSwctMheqgeRAYAHzpcHIdcW0IlVabo0pVjahiwGSfSviu3WSmGXWhHgaghupQzQhnQaXSit/NDhrbJ6md+jYVqloravu2WN8wU9qBGpJ+qPZrvWtVxGZBNaVfuJtNtbdPUrNaQbuq+lRUcZempGGR0bu+NaG6A1CDZ0ygjJOmQpX3JoWHVuVcN4T62oM6qspediVZGO3PBZhtqId+qGb/8F5jHdTQ9+Vz8J6xLdTgaTttVX0pqnBbHAm20R81NqHSfqhDyfHjKqj1P0zKwlfssSHUxp23VLWhqLJP5Q+UmVvOP/pfJt5Aucqeu6ay3ogqrCsq20E1G1rXUtWwBUBaC9nAVjwRqo/+mUh01e4vfTnjWCXZt4MqfWGvadd287tKPhWmQ41GoLIhk57jp9KBL+eLhX47qE5TBSVDaiqqCLCb35tOg+pvALU3opLdanM7qLI37r18Jbu74ZuN7+38HahDsX/DQ7O3gyrfWUNVJUUVPg6dv6aOQe0722/NzFKxQajCB9wOaiv/9FRVu2XjTe0c2mGc6VC9ASfiMDOfag1CNTaG2mL3VNVQkaNjDTIR6XcwJ0J1Btxdb17mPyCDUMm2UE20Rr1VqtpW1CYsoUaH/lBoIlRr4IRvNBWqSL7Y5C+Zf+f7VqraVlTZp4p6DZfNgErCXu/fnhymHttZmz+wUTmd+/IARE7Ha3KaN+b27f8i9zcVqtPn8Fa5vwlQu90zf8Cl6lY3TUBV6Jd8KjPqad7zMQequFmrD9U41Kpq6JFhqEex7G4GVeHW1OVN2mVNJSvv9u57mAVVWHn3x/EmZv6rsF7+Hl2oXlVf2AyqwuU01R0pssUHdYFeVW2eDFXoUJuqN6lGZdg+FP1p3YRKUH+nzaCq9nF1l5+MXyye0ug0oTfBLKhVOYp16n4DLhWl9MBcv9l60Ybq1edTnLqLNTK2g2qq8JnKFvIWoqp0GlbD92q9sdksqM/L1J3Ah2Nf3b+vP91QWFQ3979lL5V6tfJU/qPbIm3VqfXQ9+uRqJFNZkJ9lU6j12WUHSpqWLYyadApU23aSe0ooZoq95G131rlKcd6qUagVk0Y471UKlaOQSZArc+wbAWVqb14TxHo0K77Q6V2KtGuNxtq9zIGGYca+V7P4JE2UW/zc1TqdlFiUNX/0e7Aj9ds03q8hKI/VTIC5Qe+LuNXyif1p7aOUQ4fpJTeKH3UtofT1onVPQW69DLfMUJJi4aqoX6F/A/bLl78nVA/0QAAAABJRU5ErkJggg==;" parent="19" vertex="1">
                    <mxGeometry x="23.999999999999996" y="38" width="102" height="52.5" as="geometry"/>
                </mxCell>
                <mxCell id="20" value="" style="group;fontSize=12;" vertex="1" connectable="0" parent="1">
                    <mxGeometry x="960" y="270" width="150" height="105" as="geometry"/>
                </mxCell>
                <mxCell id="23" value="" style="group" vertex="1" connectable="0" parent="20">
                    <mxGeometry width="150" height="105" as="geometry"/>
                </mxCell>
                <mxCell id="21" value="&lt;font style=&quot;font-size: 12px;&quot;&gt;Portainer&lt;/font&gt;" style="shape=process;whiteSpace=wrap;html=1;backgroundOutline=1;fontFamily=Lucida Console;fontSize=16;verticalAlign=top;" vertex="1" parent="23">
                    <mxGeometry width="150" height="105" as="geometry"/>
                </mxCell>
                <mxCell id="9" value="" style="shape=image;verticalLabelPosition=bottom;labelBackgroundColor=#ffffff;verticalAlign=top;aspect=fixed;imageAspect=0;image=data:image/png,iVBORw0KGgoAAAANSUhEUgAAARkAAABLCAYAAABEIfNfAAAACXBIWXMAAC4jAAAuIwF4pT92AAAAGXRFWHRTb2Z0d2FyZQB3d3cuaW5rc2NhcGUub3Jnm+48GgAAGvpJREFUeJztnXt8XMV1x39ndrVeaW1jW5Jl752VhXHAYAJOcCBAKA2Q4BBe4eGC5fAK4DYQUloClKZASFJCC5QkTQiPlJfWBscOaUt5NKRJSikmgWBDTTAWlqydK1v2CtuyZeuxd07/2JW8e3dX+9A+jD7z/Xz88WfPnce5u/cezZw5cwaoApPD0dcC4SgHwtF/qUb/BoOhcohqK2AwGCY2xsgYDIayUlkjs4p9gXDvjQA3xAV8fKAtenpFdTAYDBWFKtVR3Yod54DpfgLmgRADw5t0+WVyxI17L5vxf5XSx2AwVIayG5m6tuinSNB9YD4lqdOdDEwH0AdgakI8zMBDHvJ9a8/SqdFy62UwGCpD2aZLtU9Ercnh3oeIsDbJwLzLLM4CsBEAwHiWwcsB7ABQQ8D1Dg91TA7vuBOPdfjLpZvBYKgcpTcyT24LTA7vuFN4sYnB1yb66Gbw8v6a+mP2LZvxwmhZgt7X2viwF94jANwDYJCAyQy6I+CbsjEQjl4G5opN6QwGQ+kpnZG5k0UgHL0sILztDLoDQC2AfQDuqR3g+ftaGx/GEnIyVd3dOm1nf2vDrR7ojwP4WULcDOCJQLj3tSltH55cMj0NBkNFKYmRCYSjZwQOj/4BwBMgzALAAH7mwHNUf2vDrdGvNO7Jp52+1pmb+lsblmimEwlYCwAgnKBJvxIIR1f5n9x1aCn0NRgMlWNcRmbKiuj8QDi6CsAvwXRsQvxrFvq4/taGJQOt07cU0+7+ZfVr9y6tP4lASwBsQdxBfbHHE9sQCEe/N6Otd2qOJgwGw0FCUUZmyhN99YFw9Pua8Q6AixPi9wm0pL+14bR9l858a9yaEfHe1vqf9e8dOgrArQD2ID4Fu2WQ9AeBcO/XsYo94+7HYDCUlcKMTDyY7uvaO/QBgBsAeAF8CODW/uk7j9nbWv+zsRsoguXBff2tDfew4PkEehiAA1ADwA8EhnrfqVu544sl79NgMJSM/IwMM00O914cGI6+B/ADAA4BMEyghwX5juhvbbgHZ31ssJyK7ru0sXtva/1y1nw8CL8BABCOJE3PBcLRXwbaPvx4Ofs3GAzFQYFw9O3cpdAMxiHxDwwQ7QbzNoCGiuz3MAB1AHYCUK5rHoA9IGIwhsdoYyqIZ4FpUkJHBkMB2DVSQGi+eM+XGzcWqaPBYCgBXgC5RwCc/IEQNzh0SAn6n57454JcfWbTKymEhkEAQol/AAAtuHa8ChoMhvHhJeA7+RRk8FwCbc5y7ZMg6iGGPSokPoaZdhHQlVaecCUYFpjXE9G/uy6fzsCJAO0k8I/y0o24FkyN7r64BtvyqW8wGA5y6tqir05ui16XLAuEdzwfaIv+TabyYyWtCqyI3hMIR7kuHG0vl74Gg6FymHwyBoOhrBgjYzAYyooxMgaDoax4cxfJDRHVEXDYlBUffmZExqynO6PL3gbDmJCU8hoAZzHzAIBHbNv+VbWVmijMnj37SI/HcxOA2UT0GjPfq5TaX6n+S2JkwLpWE90I5huTxSTwRknaN0xoQqHQd5j5NgAgIgBYIqU8Wyn1fHU1++gTCoUOY+bfAZgMAMz8BQAnATgL+QWKjJuSTJcY1JtJTozuUrRvmNAQM1/nlgH4ajWUmWhora9AwsAksTgUCs2tlA6lGckYDkqCweARQogrk2Va62e6u7vHv4G1dAgAvgxyE0hZAogoW4bJin2/KUYmEI7+DsAx7kIE3KjBrQRalN4E3cJckVGXoUCEEIcBuCVZRkQbABxMRsYB8HMArclCZl5VHXUmFsy8hohuBJCcseCdSCTyXqV0cE2XeBKA9H8EL4EyX2NtRkOGceH3+78K4EeI5w5qB3CzbdsPV1eriYFt22uJ6CIAbzBzD4B/dRznHACxSulQmtUlsGLQB2kXBH9YivYNE5v29vY+ANcn/hlKTCQS+QWAX1Sr/5IYmf5ljX9WinYMBsPEY8JMdZqbm49L/iyE6O3s7OxMlrW0tLTEYrGTiWg2MzcQUT+A97XWr9q27U45UQye5ubmhcx8LDM3EtFUZu4jok7HcdZ1d3cXlHZi1qxZjT6fb0qyrKurK3mTqkdKeQqAeUTUH4lEVgLx+9RaC2ae5faXCSEam5ubU1YWtNaDSikbufFYlnW8EGIhgIZ4Va2EEB2RSORVxP0rAIBgMFjn9XqPTKns8aiOjo4ed6NNTU0zJ02aFEqWxWKxP3Z3d+9zl7Us63CPxzP6nTDzYCQSGT0UsKWlZdrw8PDnhBBztNbTiKiHiCIej2ed+3kohqampsCkSZNO0loflfiNvUS0l5k3M/Mbtm2/n29bjY2Nk2tra2cmy7TWW5NjWEKh0NFa608QUVApdU8xOufzbuTRxlGJ57qZiA5h5t1E1OM4zvru7u71AHS2uhPGyGitf4ckH5PjOI8DuBIAQqHQeVrrm2Kx2MmIL5kCAEb+JyKWUv631vo73d3dLxfadzAYbPZ4PH/JzMu01o0j8uR+hBCQUrYDeNTn8/1k8+bNu3O16/V679Zaf8UlFgDIsqwbiOivAchEHy8AWAkAsVhsHZA5EJKZ72Pm+1zi3wM4PpselmXVCyH+ipmvBjAz2XAREZgZUsqtAJ70er3f6+zs3OX1eo/UWqfESTHzNwDc626/pqbmEq31913iTyKDg5qIHtZan5ok2gzgMCnlPCL6+1gsdj4R1TDzSMwNmBmxWAxSyteZ+Tu2bT+X7V7H+A4+TUQ3Afii1to/cu8j7Y98llJuAPCAUupx5PB7+P3+s7XWK133txjAS8Fg8AwhxN3MvCjRj4P4sUEFo7X+PZIOckx+N8aiubl5OjN/VWt9tda6ZUSe4bneBuApZv5Bpj/WKUZGs1guati9pg5fP23cP4lfF16kJfCuiXk3+cM753g9Tp37Gg36tu+5fGrGGJpKIKWcwcyPMfO5Iw9EFgjAqUKIUy3LenpwcPDaaDSazwkLJKW8BcDtzHnlrpkH4HuDg4M3WpZ1g23bBa+gSCn9AJ4FcGahdYshFAqdy8yPMPPMHEVnA7glFotdHgqFlgPIZ2RUEqSUFwIIM/OkHEVPIKJ/l1K2eb3eazo7OwdytR0MBuuI6J+J6Arkd+LqAgCPSCmvE0K0dnV1vZtHnRRCodA3mflbqOK2n1AodGnC8DfmeHcAYBaAbxDRdaFQ6PZIJHI/kgL9UoyMIP0QYpS2hD3k5xsE4zLEkLaEPcyxmwToAnZwkvsae4ZuA3B3frdVWoQQ9cz8MhF9opB6RHSJ3++f39zcfFpXV9fOMYp6Q6HQCma+eIwy2fpoAvC0lHK+UuquAuv+hJkrYmCklNcy84Mo7GGfxcxrtNbfz+PhLAUWgGeQukSbi2WxWKwW8ST4WeMv5s2bN3VgYOBlAJ8qQq+FWutXLcv6gm3bawuot5SZLyuiv5JhWdZdzPx3RVStY+Z7pZSfUEpdjsT0ecJMl9ww8zku0QDi8RjvIJ783ALwJwBORfpfqIWJOI0zkWWuKaV8MIuBGQTwAhG9y8y7Ev6fEwF82lWOAHzLsqzttm3/pID7yvkAMvOdRDSJmY8goitd154hordcsq3uNqSUiwH8GJkNTDuA1YhPVZiI5jLzBQCOSFz3JqZylSB59DIE4N+IaC0z9zHzZMRHL+e7ygHAhaFQ6IpIJPJYlnZpYGDgaWQ2MP+N+P1vIiLNzCEApwO4EKmBhdMSI6eFefq88vp9y4mU8usAMhkYDeDXiE9htwOoB7AQwBlIN/CtUsqdSqmvARPYyCTDzI8DuMm27bSpW3Nz81Fa65/CZQSY+Qwp5VVKqUfddUKh0HkJ/4SbnwK4WSmVtnRvWdaxRPQYgJSRFRHdb1nWfxXiMEzwEoCnALwjhNgrhBh1ktq2/QAASCnPQvrc+z+UUk+N1XBDQ8MUAI8g/eHZDeA6pdRKpBvfv7Us60IiegTAtALvpRSsdRznkq1bt6ad9RUMBpuFEKvhMhha69sBPIkkh/UIoVDoisQ+n2T6iOjyxJKwm5/OmTPnUMdx2oCUUX0DgB8gboDyhpn/SEQPAVgrhNhRSN1iSbwLaX4fIno5FotdneW7DQkhHgTgPjXkeinl80qpFyZ8qgdmvs227SszGRgA6OrqelcpdQqANRkufxPphtjDzJl+iL9TSl2dycAAgG3b6/1+/4kA/st1qVYI8e3cd5LCcqXUYqVUWCn1dldX1+bOzs6SpRqtra1djoRDOYmdWusTlFJhZB7dsW3bq7XWJyJujCrJBz6fb3GmlwAAuru7uwAsRjzYbxQiagmFQpmOQPZmmC7EiOjsLAYGALBly5aO4eHhzwN403XpS5ZlHZupThZWTJs2baFS6vtKqde7uro2u1YVy4LW+rtIH/GtjEQiZ47x3UaUUuckptVu/gGAmOhG5jnbtr+XR7mY3++/CkCHSz5HSnlGskBK+XkcmBaM8OtIJPL3uTppb28f9Hq9rQCiyXJmvmjOnDmz89ATAJ5VSpU1GpaZr3HLiOiKfJbgu7u73yOiPy+PZplh5m/nWq1TSn3IzJn8g6e4BaFQ6DQA7iORH4xEIq/k0qWnp6cfQNqGTyHE5bnqJtihtb5mw4YNxZ4EUhTBYLAZwHnJMmbuHBgYWI4xlqdHitbW1t4IYL1LfrRlWZ9NMTIM9CF+pEjKP615AFmuEWiAwBmvAVSxnBWZIKK7kOd29kTU6f0ZLp3l+nx+hjL3IvcPAQBIjDjcuY1FLBY7N5/6RPRkPuWKRUo5D8DhLvE7kUjk3/JtIxKJPAOgUkfRMIC8lqSFEO6k9dBaz8tQdHGGug/lq5BS6nW4k9ozn5GleArMvDpTfFC5EUKcB5dvkogezHOVFe3t7YMZQiNAROcfmAowk16xPbO1jXedOYlQ/NoLmS55fFTxLyuJ9yKRyO8LqeDz+Z4aGhr6AVK/7JRhLhEtcgW47VJK/WeBuoUB3OxuF0DOB9lxHPdQvKQw80L3qhAzr8xSfIxm+Eki+m7pNMtKb7apsJtIJNItpewHEBiREVFaWAYzu6c2Q47jLLAs66gC9HL/gZ2PuI8rzf+TDBGV9fcdo1/3cw3HcZ4psI3ViPvykqdci0aNTN3K3vMInmfHo2gaw9g9ddXuuX1LDqnGHqaCd5lu3rx5t2VZ2xNLzCMEk8swc4urWgcK3GymtW4XrpkqM8/Jp64QIpq71Lhw+2IAYFOhjRBRpUYyef2lTaIPSUYGmZe+3d+Bj4gKeuEyUNPS0jKls7Nz11iFiKjcv29GMjzXQ1u3bo0U0oZSar+UshupU805B5505nIsOR7iDA1nWoUpO0RUlCM0Q72A67M7WDEtTD4XieFwystBRFOyFE9BKZUzgGycpAdVFvHga60rdeZVoXlG8inv/s1LQiwWy8cHWu7fNyNE5H6utyNPF4AL9+8+RQBAbVuvJFAmL/v4IVRl86TWOsPJlHnhjmztd312PwTZkgJl5bjjjqtB+oPs7qdapPnR8oj2TcPj8TSURp2qUA5folZKjTmKqSaJ3MrJFPxcJ0h575i53wsAHuBkzi9kuhiOxZPbArhsVkVfIiLKa/qRjJSyFkCTS+wOotoKpGyvyDS9GJPe3l4L6UFuB8Vpl0KI7gxJyA4rtB2t9aEVivgtOcy8jYiSHcJ9WuuC4lzcEJGD4kYGlcIdkDm9qakpkFgtyxeC630gom1eANCEw8v4OHgCwje3Px5pW0k+JaW08o20THAh0l/+lGU5Zl5HRMlL2Ie1tLTMKiROxXGc09wydxRutYjFYm97PKluCiL6MxS4PSRR56PKOwA+k/R5quM4b/f09GyvlkLlhojWMXOyIfV4vd5PI9uCTwYsyzoNLncCM78lAICQvvGxlAhRlaNRPMxcSLyGB8ANGeQvuj67V9LIcRz3TumsLFiwwMeuUx0AwHGcgncGl4OtW7e+h/Tzy4+1LOv0fNsIBoMnI30bxUcGIUTaamEivmnCQkSZVogL8qcS0dcyyJ6LGxnWZV1q1rriEaAAACL6m+bm5s/lU1ZKeTvS96nYTU1NKakfamtrn0U8DmgUZr45EV+Sk127dv0TgKNd4t8UmmsmHxJDdLcsU9LuZJiZ07YdENFTLS0ts3L12dLSMk0IMea2hYMdj8fzIuKOz1GI6JuWZeWcGi9YsMAnpVwnpWTXP/cWhVIy7qDarq6uPwB4O1lGREuCwWBe8T2WZf05XMF8AJTf748bGQ2RMWS4ZIjhag0zPVrr1ZZlXTRWGSnl3ci8Kewf3nzzzeFkQXt7ex8RuYP2pjLzL8cKHQ8Gg3VSykeIyH3Uhx45c6jUMHMmR+PCXPV8Pt8Pkb41YHYsFvvfYDD4yWz1Zs+efWQsFnsV6dGyHyk6OzsHiOgfXeIZRPRSKBTK6p+aN2/epL6+vkfgiq0CsE4p5R4Rj4uWlha/ZVk/llLullL2SSnb5s6dO54ZAwO40yUTQojViT1w2RCWZd1GRD90XyCiO9rb2we98ZbwehEHDjBA6xn8Goi2keZhEM0A9AKATsKBpEl9/d6ZVVn7TzCViFaFQqFfMfPjQoi3hoaGdgghpBDilMSU6sgM9V5XSv0oY4NTp96ze/fu8wCMZhwjohYAb1iW1QZgdSJOhLTWc4QQpwP4MuI7v1Ng5rtt235t/LeZjs/ne29oaMhBaizItVJKMPMbAEZGsB8mn9jY0dHRI6W8CfHAqmQOFUK8blnW80S0CkA7ETla60OFEBcx8/nIfLzJR45IJPJAIk9N8rTvKGZeJ6X8MYA1w8PDGxoaGob7+/uDjuOcNjAwcAPSDcwwgOUo8UFqsVjsDiL6iyRR6+Dg4BCAq4ptUyn1rJRyJYBLk8SHAPgPKeVzRNTmOM76mpqaQa11iJlPZObLiSjT+/OLkR3uXgDYu7R+QyAc3Yj0PTmZYACPC8337Plyw0Y8v2lSYFf9ESS4ATHa7h/GlqjYMxyYNPVSMN9FhN9jSfqwvQK8hvhf1FmIZ8M7A8AZWmt4vQcCnbOsgHQQ0QXIEp25YcOGoUQyp1cAJKey9CaSG10xInAH3SXDzI/btl1M3o682Lx5824p5UtI3RrhA3C9677TMuMppR6VUn4c6X4qLxGdC+BcIJ4dbSQ7noufA7hg/HdRNWI1NTXnDw8PvwLgY0nyyYhHa99cU1OD3bvH9ARoZr7atu3flUE/965nEFGarAi+gvgKkXtP19nMfLYQAo5z4LXI8v68orVuRcKwigOF8YM8FNgFpsX9rQ1XxUhMrwtH1wR2Tt8J1uuZ8Sv26Hf2+yka8E1dA+aIiPkWMsSd7kb8A/x5D/Th0I475SKguSRTK2beyMynMvMfC6z6vx6P5+RIJDLm6ZeRSKR7eHj4RAC/LUK9QQC32rZ9Fcp8VKjW+q8AFJWdUCn1lwDuQmFLrzFmvk0IkXPD6MFOR0dHTyJl66+LqL4XwEW2bZdrr1mmqfC443AS+YXPRDyNSKEwEf3E7/d/Lnn/1aiR2eutfxSMsV7IAS2wuN8341eB8I77BPGrFP9L5U476QP4LAC/1J7hH/Z7+zfhIa6ZHI5eEAhHnwiEo2/s89NbMRaPkxDX17XtOBt38qge/csa7wNosQDGnUPDtu33a2trP4H4izJWljsAUAC+ppT6ky1btqQlccpET0/PdqXUZxOJofJx3A4BCGutj00khS77qXjd3d0bhRDHI34kRqEjSlZK3UFEf4r4yHDMsgB+y8yLbNuuSjbEcrBt27YdSqnTmfkKABvyqDKQyF80XylV2m06SWit/xEu409EReUAdqOU2q+UugzAF5D7dwfiv/2LWutTIpHIX7S3tw+m6JX8oW7ljkWk6RVkjPbjb/S3Nt4baIs+BcKyfBUm4DVmTANl9HskCvF61nTNvmUNoxsap6zoa9izdGrevhwppYMko5mYiowmbFqwYIFv586dZxLRCQAsIpqGeJTt+8z8P7Zt/xaFv4QpdxEKhRZprT9HRAuIaCYze4loD4D2hA/kxWz5ZrLc06lwTWHHk+ZBSjlDCHGc1roJqdsHduTzQiQc218UQhzLzA2Ij8i2AtgohFidnPMkGAw2CCHc06W1Sqm3XTKEQqGjmTklfavW+ufd3d1pv38wGDxHCDGaFoOI+iKRyNO5dB9BSrkMSfdORFsikchLBdQ/hplPJ6KjiahRa+0XQuxi5i1E9IbH43kp1/6kEUKh0GHMnBIawMzP53tyhpTyBADLAEwiojXZ7kNKea1L9L5S6jf59AEAwWBwPhF9AcDHichCfMq9j4i6mPkPzPzCWDqnTagmr+i9kJmfRmqypp7+mvrmuqHoVUSUKTlNKRjQjKX7lzUUZf1zGRmDwVAd0rySe5fWrwHRORzP4/oSgMeJ8W1AeRL5WcqFXxDCdU/tyLpEajAYPnpkzPHbv7T+RYx41Fexp86JNtXF6loBbsxUvoTUCkH/DOaTQVR2f4XBYCg/GY3MtMd2Thua5FxHjAsw3LsQIFEBHyUAgIETa8MfnrAfKOQYCYPBcJCSZmRq26JfGibnUWLMqIZCAOAhfRaMkTEYJgQpPpm6Fb1XC8IaoHoGBgAYNDd3KYPB8FFg1MjUroyeQMw/RvnyyuQNF58wx2AwHGQciPh1cD+AmirqMgrFA+MMBsMEQADAlBXR+UTpZ1lXDcIb1VbBYDCUBi8AMJCWqa2aMPNyMIcLWcYmokeYeXSqJ4Qoy85mg8FQGPHVJU5PQVBNCPSZwIre0/uBl3OXjhOJRCp6aqHBYMiPhE+Gh8cuVnmIaEm1dTAYDONHAACDPqi2Im6YeVG1dTAYDOMnnuO3ZvhFjG8HchngadXWwGAwjB8BAHuXzN6B4pLUlA0CFXwyo8FgOPg4kBpB821IP+CpmqyrtgIGg2H8jBqZfV9u3Mrgc1CCjHSlgVdVWwODwTB+UvYu7WttfFM7YhGYS3p8QxG8vLe1sZi8qgaD4SAj6z6l2nD0eEG4EMDx0GhiYCcRGgAcXmadtmpBJ+y/tD5S5n4MBkMFKGgzpD/cM9cDzzoAUwrsJ9/jVjYR0/l7l9W/W2D7BoPhIKWg4y0HWps2g+kiAHsKqPZk/9L6I4npEmTP9r6LwN+uHeDjjIExGCYWRaV1mNzWexQTrwEwf4xiAyC+vd/bcH/y4W6Tn44eyQ4+BfBMJrFLQG/aO7vhVXyWYsXoYjAYDm6Kzx3zENcEJvdeAtAlgD4eoAbED5fqYNC/skOP7b9sRlfJNDUYDB9J/h9cSLcmVt+cjgAAAABJRU5ErkJggg==;" parent="23" vertex="1">
                    <mxGeometry x="28.169999999999987" y="50" width="93.66" height="25" as="geometry"/>
                </mxCell>
            </root>
        </mxGraphModel>
    </diagram>
</mxfile>